<svg width="120" height="40" viewBox="0 0 120 40" fill="none" xmlns="http://www.w3.org/2000/svg">
<path d="M48.9961 33.5015H49.9589C50.1939 33.5015 50.3772 33.5731 50.509 33.7164C50.6408 33.8539 50.7068 34.0287 50.7068 34.2407C50.7068 34.5674 50.5663 34.7938 50.2855 34.9198C50.5893 34.9714 50.8156 35.0946 50.9646 35.2895C51.1136 35.4843 51.1881 35.7708 51.1881 36.1491C51.1881 36.3726 51.1337 36.5789 51.0248 36.768C50.9217 36.9514 50.7755 37.0975 50.5864 37.2064C50.403 37.3152 50.1996 37.3697 49.9761 37.3697H48.9961V33.5015ZM49.9159 34.8339C50.0821 34.8339 50.2082 34.7852 50.2941 34.6877C50.3858 34.5846 50.4317 34.4356 50.4317 34.2407C50.4317 34.0746 50.3858 33.9485 50.2941 33.8625C50.2025 33.7766 50.0706 33.7336 49.8987 33.7336H49.2712V34.8339H49.9159ZM49.9933 37.1376C50.2512 37.1376 50.4689 37.0402 50.6466 36.8453C50.8242 36.6448 50.9131 36.4012 50.9131 36.1147C50.9131 35.7766 50.8242 35.5187 50.6466 35.341C50.4747 35.1577 50.2282 35.066 49.9073 35.066H49.2712V37.1376H49.9933ZM52.1525 33.5015H52.4276V34.8339H52.8488C53.2499 34.8339 53.5594 34.9456 53.7771 35.1691C53.9949 35.3869 54.1038 35.6992 54.1038 36.1061C54.1038 36.3353 54.0465 36.5473 53.9319 36.7422C53.8172 36.937 53.6625 37.0918 53.4677 37.2064C53.2728 37.3152 53.0579 37.3697 52.823 37.3697H52.1525V33.5015ZM54.8688 33.5015H55.1353V37.3697H54.8688V33.5015ZM52.8316 37.1376C53.1124 37.1376 53.3502 37.0373 53.545 36.8367C53.7399 36.6362 53.8373 36.3926 53.8373 36.1061C53.8373 35.7737 53.7485 35.5187 53.5708 35.341C53.3989 35.1577 53.1525 35.066 52.8316 35.066H52.4276V37.1376H52.8316ZM56.4253 33.5015H59.5371V37.3697H59.262V33.7422H56.7004V37.3697H56.4253V33.5015ZM62.5604 37.5072C62.1707 37.5072 61.8183 37.4127 61.5031 37.2236C61.1879 37.0287 60.9415 36.7737 60.7639 36.4585C60.5862 36.1376 60.4974 35.7909 60.4974 35.4184C60.4974 35.0516 60.5862 34.7107 60.7639 34.3955C60.9472 34.0803 61.1937 33.831 61.5031 33.6476C61.8183 33.4585 62.1679 33.364 62.5518 33.364C62.9301 33.364 63.2739 33.4585 63.5833 33.6476C63.8985 33.831 64.145 34.0803 64.3226 34.3955C64.5003 34.7107 64.5891 35.0516 64.5891 35.4184C64.5891 35.8024 64.5031 36.1548 64.3312 36.4757C64.1593 36.7909 63.9186 37.043 63.6091 37.2322C63.3054 37.4155 62.9558 37.5072 62.5604 37.5072ZM62.5604 37.2665C62.8871 37.2665 63.1851 37.1834 63.4544 37.0173C63.7237 36.8511 63.9329 36.6304 64.0819 36.3554C64.2366 36.0746 64.314 35.768 64.314 35.4356C64.314 35.1089 64.2366 34.8052 64.0819 34.5244C63.9272 34.2436 63.7152 34.0201 63.4458 33.8539C63.1765 33.6877 62.8785 33.6046 62.5518 33.6046C62.2252 33.6046 61.9243 33.6906 61.6492 33.8625C61.3799 34.0287 61.165 34.2522 61.0046 34.533C60.8498 34.8138 60.7725 35.1175 60.7725 35.4442C60.7725 35.7708 60.8498 36.0746 61.0046 36.3554C61.165 36.6304 61.3799 36.8511 61.6492 37.0173C61.9243 37.1834 62.228 37.2665 62.5604 37.2665ZM68.4482 37.3697L66.8322 34.0087L65.2161 37.3697H64.941L66.8408 33.3897L68.7491 37.3697H68.4482ZM69.4788 33.5015H69.7539V35.6763H72.3756V33.5015H72.6507V37.3697H72.3756V35.917H69.7539V37.3697H69.4788V33.5015ZM75.7157 37.2322C76.0136 37.2322 76.2973 37.1548 76.5667 37.0001C76.836 36.8453 77.0595 36.6333 77.2371 36.364V36.8024C77.0251 37.0373 76.793 37.2092 76.5409 37.3181C76.2887 37.4213 76.0022 37.4728 75.6813 37.4728C75.326 37.4728 74.9907 37.3783 74.6755 37.1892C74.3661 37.0001 74.1168 36.7479 73.9277 36.4327C73.7443 36.1175 73.6526 35.7823 73.6526 35.427C73.6526 35.043 73.7443 34.6992 73.9277 34.3955C74.1111 34.086 74.3604 33.8453 74.6755 33.6734C74.9965 33.5015 75.3518 33.4155 75.7414 33.4155C76.3374 33.4155 76.8446 33.6505 77.2629 34.1204L74.5638 36.7852C74.7529 36.9399 74.9363 37.0545 75.1139 37.129C75.2916 37.1978 75.4922 37.2322 75.7157 37.2322ZM73.9277 35.4012C73.9277 35.8769 74.0853 36.2837 74.4005 36.6218L76.9191 34.1204C76.73 33.9542 76.5466 33.8367 76.3689 33.768C76.1913 33.6935 75.9793 33.6562 75.7328 33.6562C75.3833 33.6562 75.071 33.7336 74.7959 33.8883C74.5265 34.0373 74.3145 34.2436 74.1598 34.5072C74.005 34.7708 73.9277 35.0688 73.9277 35.4012ZM78.2259 33.5015H78.501V35.6763H81.1227V33.5015H81.3978V37.3697H81.1227V35.917H78.501V37.3697H78.2259V33.5015ZM82.6834 33.5015H82.9584V35.6763H85.5802V33.5015H85.8553V37.3697H85.5802V35.917H82.9584V37.3697H82.6834V33.5015ZM87.1409 33.5015H87.4159V34.8339H87.8371C88.2383 34.8339 88.5477 34.9456 88.7655 35.1691C88.9833 35.3869 89.0922 35.6992 89.0922 36.1061C89.0922 36.3353 89.0349 36.5473 88.9202 36.7422C88.8056 36.937 88.6509 37.0918 88.4561 37.2064C88.2612 37.3152 88.0463 37.3697 87.8114 37.3697H87.1409V33.5015ZM89.8572 33.5015H90.1237V37.3697H89.8572V33.5015ZM87.82 37.1376C88.1008 37.1376 88.3386 37.0373 88.5334 36.8367C88.7283 36.6362 88.8257 36.3926 88.8257 36.1061C88.8257 35.7737 88.7369 35.5187 88.5592 35.341C88.3873 35.1577 88.1409 35.066 87.82 35.066H87.4159V37.1376H87.82ZM94.0355 37.3697L92.6257 35.2465L91.2332 37.3697H90.9581L92.4624 35.0832L91.4137 33.5015H91.7317L92.6171 34.8425L93.4939 33.5015H93.769L92.7804 35.0058L94.3535 37.3697H94.0355ZM96.9349 33.5015H97.2099V34.4471C97.3647 34.1376 97.6053 33.8883 97.932 33.6992C98.2586 33.5044 98.6025 33.4069 98.9635 33.4069C99.336 33.4069 99.677 33.4986 99.9864 33.682C100.302 33.8654 100.551 34.1118 100.734 34.4213C100.918 34.7307 101.009 35.0688 101.009 35.4356C101.009 35.8024 100.918 36.1405 100.734 36.4499C100.551 36.7594 100.302 37.0058 99.9864 37.1892C99.677 37.3726 99.336 37.4642 98.9635 37.4642C98.6139 37.4642 98.2758 37.3697 97.9492 37.1806C97.6283 36.9915 97.3819 36.7422 97.2099 36.4327V39.0889H96.9349V33.5015ZM98.9807 37.2236C99.2959 37.2236 99.5882 37.1433 99.8575 36.9829C100.127 36.8167 100.339 36.5989 100.494 36.3296C100.654 36.0545 100.734 35.7565 100.734 35.4356C100.734 35.1204 100.654 34.8253 100.494 34.5502C100.333 34.2751 100.118 34.0574 99.8489 33.8969C99.5796 33.7307 99.2873 33.6476 98.9721 33.6476C98.6569 33.6476 98.3618 33.7307 98.0867 33.8969C97.8174 34.0631 97.5996 34.2837 97.4334 34.5588C97.273 34.8339 97.1927 35.129 97.1927 35.4442C97.1927 35.7594 97.273 36.0545 97.4334 36.3296C97.5996 36.5989 97.8202 36.8167 98.0953 36.9829C98.3704 37.1433 98.6655 37.2236 98.9807 37.2236ZM103.693 37.4642C103.326 37.4642 102.985 37.3726 102.67 37.1892C102.355 37.0058 102.106 36.7594 101.922 36.4499C101.739 36.1347 101.647 35.7966 101.647 35.4356C101.647 35.0746 101.739 34.7393 101.922 34.4299C102.106 34.1147 102.355 33.8654 102.67 33.682C102.985 33.4986 103.326 33.4069 103.693 33.4069C104.066 33.4069 104.418 33.5072 104.751 33.7078C105.083 33.9026 105.315 34.1577 105.447 34.4728V33.5015H105.722V37.3697H105.447V36.4069C105.292 36.7279 105.051 36.9857 104.725 37.1806C104.404 37.3697 104.06 37.4642 103.693 37.4642ZM103.71 37.2236C104.026 37.2236 104.318 37.1433 104.587 36.9829C104.857 36.8167 105.069 36.5989 105.223 36.3296C105.384 36.0545 105.464 35.7565 105.464 35.4356C105.464 35.1204 105.384 34.8253 105.223 34.5502C105.063 34.2751 104.848 34.0574 104.579 33.8969C104.309 33.7307 104.017 33.6476 103.702 33.6476C103.387 33.6476 103.091 33.7307 102.816 33.8969C102.547 34.0631 102.329 34.2837 102.163 34.5588C102.003 34.8339 101.922 35.129 101.922 35.4442C101.922 35.7594 102.003 36.0545 102.163 36.3296C102.329 36.5989 102.55 36.8167 102.825 36.9829C103.1 37.1433 103.395 37.2236 103.71 37.2236ZM108.81 33.364C109.188 33.364 109.532 33.4585 109.841 33.6476C110.156 33.831 110.403 34.0803 110.58 34.3955C110.758 34.7107 110.847 35.0516 110.847 35.4184C110.847 35.8024 110.761 36.1548 110.589 36.4757C110.417 36.7909 110.176 37.043 109.867 37.2322C109.563 37.4155 109.214 37.5072 108.818 37.5072C108.434 37.5072 108.085 37.4127 107.77 37.2236C107.454 37.0344 107.205 36.7823 107.022 36.4671C106.844 36.1462 106.755 35.8024 106.755 35.4356V35.1003C106.755 34.3726 106.83 33.7794 106.979 33.321C107.133 32.8568 107.36 32.49 107.658 32.2207C107.956 31.9513 108.348 31.7193 108.835 31.5244L110.374 30.9055V31.1548L108.896 31.7565C108.311 31.9915 107.864 32.3095 107.555 32.7107C107.245 33.1061 107.07 33.662 107.03 34.3783C107.208 34.0688 107.452 33.8224 107.761 33.639C108.076 33.4556 108.426 33.364 108.81 33.364ZM108.818 37.2665C109.145 37.2665 109.443 37.1834 109.712 37.0173C109.982 36.8511 110.191 36.6304 110.34 36.3554C110.495 36.0746 110.572 35.768 110.572 35.4356C110.572 35.1089 110.495 34.8052 110.34 34.5244C110.185 34.2436 109.973 34.0201 109.704 33.8539C109.434 33.6877 109.136 33.6046 108.81 33.6046C108.483 33.6046 108.182 33.6906 107.907 33.8625C107.638 34.0287 107.423 34.2522 107.262 34.533C107.108 34.8138 107.03 35.1175 107.03 35.4442C107.03 35.7708 107.108 36.0746 107.262 36.3554C107.423 36.6304 107.638 36.8511 107.907 37.0173C108.182 37.1834 108.486 37.2665 108.818 37.2665ZM113.557 37.5072C113.167 37.5072 112.815 37.4127 112.5 37.2236C112.185 37.0287 111.938 36.7737 111.761 36.4585C111.583 36.1376 111.494 35.7909 111.494 35.4184C111.494 35.0516 111.583 34.7107 111.761 34.3955C111.944 34.0803 112.19 33.831 112.5 33.6476C112.815 33.4585 113.165 33.364 113.549 33.364C113.927 33.364 114.271 33.4585 114.58 33.6476C114.895 33.831 115.142 34.0803 115.319 34.3955C115.497 34.7107 115.586 35.0516 115.586 35.4184C115.586 35.8024 115.5 36.1548 115.328 36.4757C115.156 36.7909 114.915 37.043 114.606 37.2322C114.302 37.4155 113.953 37.5072 113.557 37.5072ZM113.557 37.2665C113.884 37.2665 114.182 37.1834 114.451 37.0173C114.72 36.8511 114.93 36.6304 115.079 36.3554C115.233 36.0746 115.311 35.768 115.311 35.4356C115.311 35.1089 115.233 34.8052 115.079 34.5244C114.924 34.2436 114.712 34.0201 114.443 33.8539C114.173 33.6877 113.875 33.6046 113.549 33.6046C113.222 33.6046 112.921 33.6906 112.646 33.8625C112.377 34.0287 112.162 34.2522 112.001 34.533C111.847 34.8138 111.769 35.1175 111.769 35.4442C111.769 35.7708 111.847 36.0746 112.001 36.3554C112.162 36.6304 112.377 36.8511 112.646 37.0173C112.921 37.1834 113.225 37.2665 113.557 37.2665ZM117.249 33.7508H115.771V33.5101H119.003V33.7508H117.524V37.3697H117.249V33.7508Z" fill="#FFF8F2"/>
<path d="M56.3957 18.5383C57.5514 17.816 58.3985 17.0542 58.9369 16.2531C59.4885 15.4388 59.7643 14.4998 59.7643 13.436C59.7643 12.5429 59.5673 11.7221 59.1733 10.9735C58.7794 10.2249 58.2212 9.62736 57.4989 9.18083C56.7897 8.7343 55.9754 8.51103 55.0561 8.51103C54.1236 8.51103 53.2699 8.74743 52.4951 9.22023C51.7333 9.69302 51.1292 10.33 50.6827 11.1311C50.2362 11.9322 50.0129 12.8187 50.0129 13.7906H49.3628C49.3628 12.7005 49.6123 11.709 50.1114 10.8159C50.6105 9.92286 51.2934 9.22023 52.1602 8.70803C53.027 8.19583 53.9923 7.93973 55.0561 7.93973C56.0936 7.93973 57.0195 8.18926 57.8338 8.68833C58.648 9.18739 59.2784 9.85719 59.7249 10.6977C60.1846 11.5382 60.4144 12.4576 60.4144 13.4557C60.4144 15.5964 59.2521 17.4088 56.9276 18.8929L51.5692 22.3207H60.3553V22.892H49.5204L56.3957 18.5383ZM67.6388 23.089C66.8114 23.089 66.0168 22.9117 65.2551 22.5571C64.5065 22.1893 63.863 21.6903 63.3245 21.0599C62.786 20.4163 62.4249 19.7006 62.241 18.9126H62.8517C63.1669 19.9764 63.771 20.8497 64.6641 21.5327C65.5571 22.2025 66.5487 22.5374 67.6388 22.5374C68.545 22.5374 69.3789 22.3141 70.1407 21.8676C70.9024 21.4079 71.5065 20.7972 71.9531 20.0355C72.3996 19.2606 72.6229 18.4201 72.6229 17.5139C72.6229 16.6077 72.4127 15.7672 71.9925 14.9923C71.5853 14.2174 71.0272 13.6067 70.318 13.1602C69.6219 12.7005 68.8602 12.4707 68.0328 12.4707C67.2316 12.4707 66.483 12.6677 65.787 13.0617C65.0909 13.4557 64.4737 14.0007 63.9352 14.6968H63.2457L63.9352 8.11703H71.6182V8.68833H64.4671L63.9352 13.7512C64.4474 13.1602 65.0581 12.7071 65.7673 12.3919C66.4765 12.0767 67.2316 11.9191 68.0328 11.9191C68.9915 11.9191 69.8649 12.1752 70.6529 12.6874C71.454 13.1865 72.0844 13.8628 72.5441 14.7165C73.0168 15.5702 73.2532 16.5026 73.2532 17.5139C73.2532 18.5252 72.9971 19.4576 72.485 20.3113C71.9859 21.1649 71.303 21.8413 70.4362 22.3404C69.5825 22.8394 68.65 23.089 67.6388 23.089ZM82.5795 23.1481C81.1742 23.1481 79.8871 22.8066 78.7183 22.1237C77.5494 21.4276 76.6235 20.4951 75.9406 19.3263C75.2708 18.1443 74.9359 16.8638 74.9359 15.4848C74.9359 14.1452 75.2774 12.891 75.9603 11.7221C76.6564 10.5533 77.5888 9.62736 78.7577 8.94443C79.9397 8.24836 81.2136 7.90033 82.5795 7.90033C83.9585 7.90033 85.2324 8.24836 86.4012 8.94443C87.5701 9.62736 88.496 10.5533 89.1789 11.7221C89.875 12.891 90.223 14.1649 90.223 15.5439C90.223 16.9098 89.8816 18.1771 89.1986 19.346C88.5157 20.5017 87.5898 21.4276 86.4209 22.1237C85.2521 22.8066 83.9716 23.1481 82.5795 23.1481ZM82.5795 22.5768C83.8403 22.5768 85.0026 22.2616 86.0664 21.6312C87.1433 20.9876 87.9969 20.1274 88.6273 19.0505C89.2577 17.9736 89.5729 16.7981 89.5729 15.5242C89.5729 14.2634 89.2577 13.0945 88.6273 12.0176C87.9969 10.9276 87.1433 10.0673 86.0664 9.43693C85.0026 8.79339 83.8403 8.47163 82.5795 8.47163C81.3187 8.47163 80.1498 8.79339 79.0729 9.43693C78.0091 10.0673 77.162 10.9276 76.5316 12.0176C75.9012 13.0945 75.586 14.2634 75.586 15.5242C75.586 16.7981 75.9012 17.9736 76.5316 19.0505C77.162 20.1274 78.0091 20.9876 79.0729 21.6312C80.1498 22.2616 81.3187 22.5768 82.5795 22.5768ZM99.4514 23.1481C98.0461 23.1481 96.759 22.8066 95.5902 22.1237C94.4213 21.4276 93.4954 20.4951 92.8125 19.3263C92.1427 18.1443 91.8078 16.8638 91.8078 15.4848C91.8078 14.1452 92.1493 12.891 92.8322 11.7221C93.5283 10.5533 94.4607 9.62736 95.6296 8.94443C96.8116 8.24836 98.0855 7.90033 99.4514 7.90033C100.83 7.90033 102.104 8.24836 103.273 8.94443C104.442 9.62736 105.368 10.5533 106.051 11.7221C106.747 12.891 107.095 14.1649 107.095 15.5439C107.095 16.9098 106.753 18.1771 106.071 19.346C105.388 20.5017 104.462 21.4276 103.293 22.1237C102.124 22.8066 100.843 23.1481 99.4514 23.1481ZM99.4514 22.5768C100.712 22.5768 101.874 22.2616 102.938 21.6312C104.015 20.9876 104.869 20.1274 105.499 19.0505C106.13 17.9736 106.445 16.7981 106.445 15.5242C106.445 14.2634 106.13 13.0945 105.499 12.0176C104.869 10.9276 104.015 10.0673 102.938 9.43693C101.874 8.79339 100.712 8.47163 99.4514 8.47163C98.1906 8.47163 97.0217 8.79339 95.9448 9.43693C94.881 10.0673 94.0339 10.9276 93.4035 12.0176C92.7731 13.0945 92.4579 14.2634 92.4579 15.5242C92.4579 16.7981 92.7731 17.9736 93.4035 19.0505C94.0339 20.1274 94.881 20.9876 95.9448 21.6312C97.0217 22.2616 98.1906 22.5768 99.4514 22.5768Z" fill="#FFF8F2"/>
<mask id="path-3-outside-1_662_1335" maskUnits="userSpaceOnUse" x="108.715" y="10.7307" width="11" height="11" fill="black">
<rect fill="white" x="108.715" y="10.7307" width="11" height="11"/>
<path d="M113.544 16.5033H109.483V15.6039H113.544V11.5713H114.502V15.6039H118.505V16.5033H114.502V20.3908H113.544V16.5033Z"/>
</mask>
<path d="M113.544 16.5033H109.483V15.6039H113.544V11.5713H114.502V15.6039H118.505V16.5033H114.502V20.3908H113.544V16.5033Z" fill="#FFF8F2"/>
<path d="M113.544 16.5033H114.098V15.9497H113.544V16.5033ZM109.483 16.5033H108.929V17.0568H109.483V16.5033ZM109.483 15.6039V15.0503H108.929V15.6039H109.483ZM113.544 15.6039V16.1575H114.098V15.6039H113.544ZM113.544 11.5713V11.0177H112.991V11.5713H113.544ZM114.502 11.5713H115.055V11.0177H114.502V11.5713ZM114.502 15.6039H113.948V16.1575H114.502V15.6039ZM118.505 15.6039H119.059V15.0503H118.505V15.6039ZM118.505 16.5033V17.0568H119.059V16.5033H118.505ZM114.502 16.5033V15.9497H113.948V16.5033H114.502ZM114.502 20.3908V20.9444H115.055V20.3908H114.502ZM113.544 20.3908H112.991V20.9444H113.544V20.3908ZM113.544 15.9497H109.483V17.0568H113.544V15.9497ZM110.036 16.5033V15.6039H108.929V16.5033H110.036ZM109.483 16.1575H113.544V15.0503H109.483V16.1575ZM114.098 15.6039V11.5713H112.991V15.6039H114.098ZM113.544 12.1249H114.502V11.0177H113.544V12.1249ZM113.948 11.5713V15.6039H115.055V11.5713H113.948ZM114.502 16.1575H118.505V15.0503H114.502V16.1575ZM117.952 15.6039V16.5033H119.059V15.6039H117.952ZM118.505 15.9497H114.502V17.0568H118.505V15.9497ZM113.948 16.5033V20.3908H115.055V16.5033H113.948ZM114.502 19.8372H113.544V20.9444H114.502V19.8372ZM114.098 20.3908V16.5033H112.991V20.3908H114.098Z" fill="#FFF8F2" mask="url(#path-3-outside-1_662_1335)"/>
<path d="M18.3369 18.3926C17.675 18.3926 17.0604 18.2293 16.493 17.9027C15.9343 17.576 15.4873 17.1376 15.1521 16.5875C14.8254 16.0373 14.6621 15.4356 14.6621 14.7823C14.6621 13.811 15.1048 12.8181 15.9902 11.8038L18.8139 8.56742H19.3039L16.5962 11.5975C16.8197 11.4428 17.1033 11.3181 17.4472 11.2236C17.791 11.129 18.122 11.0817 18.44 11.0817C19.0589 11.0817 19.6392 11.2494 20.1807 11.5846C20.7309 11.9199 21.165 12.3711 21.483 12.9385C21.8097 13.5058 21.973 14.1161 21.973 14.7694C21.973 15.4227 21.8097 16.0287 21.483 16.5875C21.1564 17.1376 20.7137 17.576 20.1549 17.9027C19.6048 18.2293 18.9988 18.3926 18.3369 18.3926ZM18.3369 18.0316C18.9214 18.0316 19.4586 17.8855 19.9486 17.5932C20.4386 17.301 20.8254 16.9055 21.1091 16.407C21.4013 15.8998 21.5475 15.3497 21.5475 14.7565C21.5475 14.1634 21.4013 13.6133 21.1091 13.1061C20.8168 12.5989 20.4257 12.1992 19.9357 11.907C19.4458 11.6061 18.9128 11.4557 18.3369 11.4557C17.7609 11.4557 17.2237 11.6061 16.7251 11.907C16.2266 12.2078 15.8268 12.6118 15.526 13.119C15.2337 13.6262 15.0876 14.172 15.0876 14.7565C15.0876 15.3497 15.2337 15.8998 15.526 16.407C15.8182 16.9055 16.2137 17.301 16.7122 17.5932C17.2108 17.8855 17.7523 18.0316 18.3369 18.0316ZM16.3152 28.2379L13.8912 23.1964L11.4671 28.2379H11.0545L13.9041 22.268L16.7665 28.2379H16.3152ZM20.5302 28.0316C20.9772 28.0316 21.4027 27.9156 21.8067 27.6835C22.2107 27.4514 22.5459 27.1333 22.8124 26.7293V27.3869C22.4943 27.7393 22.1462 27.9972 21.768 28.1606C21.3898 28.3153 20.96 28.3926 20.4786 28.3926C19.9456 28.3926 19.4428 28.2508 18.97 27.9671C18.5058 27.6835 18.1319 27.3052 17.8482 26.8325C17.5731 26.3597 17.4356 25.8568 17.4356 25.3239C17.4356 24.7479 17.5731 24.2322 17.8482 23.7766C18.1233 23.3124 18.4972 22.9514 18.97 22.6935C19.4514 22.4356 19.9843 22.3067 20.5688 22.3067C21.4628 22.3067 22.2236 22.6591 22.8511 23.364L18.8024 27.3611C19.086 27.5932 19.3611 27.7651 19.6276 27.8769C19.8941 27.98 20.1949 28.0316 20.5302 28.0316ZM17.8482 25.2852C17.8482 25.9987 18.0846 26.609 18.5574 27.1161L22.3353 23.364C22.0517 23.1147 21.7766 22.9385 21.5101 22.8353C21.2436 22.7236 20.9256 22.6677 20.5559 22.6677C20.0316 22.6677 19.5631 22.7838 19.1505 23.0158C18.7465 23.2393 18.4284 23.5488 18.1963 23.9442C17.9643 24.3396 17.8482 24.7866 17.8482 25.2852ZM25.7396 22.8095H23.5219V22.4485H28.37V22.8095H26.1522V28.2379H25.7396V22.8095Z" fill="#FFF8F2"/>
<g clip-path="url(#clip0_662_1335)">
<path d="M4.29632 28.5361L4.62638 28.9982C4.72585 29.1418 4.76202 29.2943 4.73037 29.4558C4.69872 29.6173 4.59925 29.7564 4.43648 29.8686C4.27371 29.9807 4.09738 30.0032 3.912 29.9269C3.97078 30.1063 3.96174 30.2948 3.88488 30.5011C3.80801 30.7075 3.67237 30.878 3.47343 31.0126C3.27449 31.1517 3.03938 31.1965 2.7681 31.1517C2.49682 31.1068 2.27527 30.9677 2.11702 30.7389L1.78696 30.2768L4.2918 28.5316L4.29632 28.5361ZM3.61812 29.716L3.40561 29.4199L2.06277 30.3576L2.27527 30.6537C2.40187 30.8287 2.57368 30.9363 2.79523 30.9722C3.01677 31.0081 3.22024 30.9588 3.40561 30.8331C3.59099 30.703 3.70402 30.5281 3.74471 30.3127C3.78541 30.0974 3.74019 29.9 3.61812 29.7205V29.716ZM4.47717 29.1104L4.26919 28.8188L3.55482 29.3167L3.77184 29.6218C3.83514 29.7115 3.92557 29.7654 4.0386 29.7833C4.15616 29.8013 4.26015 29.7788 4.3551 29.7115C4.45005 29.6443 4.50882 29.55 4.53595 29.4289C4.55856 29.3078 4.54047 29.2001 4.47717 29.1149V29.1104ZM5.79741 32.7937C5.5623 33.0898 5.46735 33.4352 5.51257 33.8211C5.55778 34.2114 5.73411 34.5209 6.03252 34.7587C6.33545 34.992 6.67908 35.0862 7.06339 35.0369C7.44771 34.9875 7.75968 34.8125 7.99931 34.512C8.23443 34.2114 8.3339 33.8704 8.2932 33.4846C8.25251 33.0987 8.0807 32.7847 7.78229 32.5514C7.48388 32.3181 7.13574 32.2239 6.74238 32.2733C6.34902 32.3226 6.03252 32.4976 5.79741 32.7937ZM7.89532 32.3989C8.24799 32.6725 8.45145 33.0315 8.50119 33.4711C8.55544 33.9108 8.44693 34.3011 8.17565 34.6376C7.90889 34.974 7.5517 35.1759 7.11313 35.2387C6.67456 35.3016 6.2812 35.1984 5.9421 34.9337L5.86071 34.8709C5.53065 34.6107 5.34528 34.2562 5.30458 33.8076C5.26389 33.359 5.38145 32.9686 5.64821 32.6322L5.96922 32.2284C6.2812 31.8381 6.61578 31.5824 6.97749 31.4612C7.12669 31.4119 7.2985 31.3894 7.49744 31.3984C7.69638 31.4074 7.86367 31.4298 7.99931 31.4612C8.13496 31.4926 8.31581 31.542 8.53284 31.6048L9.80786 31.9861L9.68578 32.1387L8.40624 31.7663C7.43414 31.4792 6.72429 31.6138 6.28572 32.1701L6.24955 32.2194C6.52083 32.0893 6.80568 32.04 7.10409 32.0803C7.4025 32.1207 7.66473 32.2284 7.89532 32.4078V32.3989ZM9.44163 33.6012L9.63153 33.7089L9.10253 34.6151L9.39189 34.7811C9.627 34.9157 9.78073 35.1176 9.84855 35.3868C9.91637 35.656 9.88472 35.9072 9.74908 36.1405C9.61344 36.3738 9.40998 36.5263 9.1387 36.5981C8.86742 36.6699 8.6097 36.634 8.37007 36.4949L7.90889 36.2302L9.44615 33.6012H9.44163ZM9.00758 34.7722L8.18469 36.1809L8.46049 36.3379C8.64587 36.4456 8.84481 36.468 9.06636 36.4097C9.28338 36.3514 9.45067 36.2257 9.55918 36.0373C9.6677 35.8489 9.69483 35.6425 9.64057 35.4227C9.58631 35.1984 9.46424 35.0369 9.28338 34.9337L9.00758 34.7766V34.7722ZM9.88472 37.4864L10.8613 34.6062L11.0693 34.6735L10.5177 36.293L11.2592 36.5398C11.2592 36.5129 11.2773 36.4501 11.309 36.3558C11.4491 35.9431 11.7204 35.638 12.1183 35.4406C12.5162 35.2432 12.9276 35.2163 13.3526 35.3599C13.7776 35.5034 14.0896 35.7726 14.2885 36.1674C14.4875 36.5622 14.5191 36.966 14.3835 37.3698C14.2478 37.7735 13.9766 38.0786 13.5787 38.285C13.1763 38.4914 12.7739 38.5228 12.3579 38.3882L12.3082 38.3702C11.9736 38.2581 11.7068 38.0427 11.5124 37.7242C11.318 37.4057 11.223 37.0737 11.2321 36.7237L10.4635 36.468L10.0972 37.5492L9.88924 37.4819L9.88472 37.4864ZM14.0941 36.2527C13.9223 35.9027 13.6555 35.6649 13.2938 35.5438C12.9321 35.4227 12.5749 35.4496 12.2223 35.6291C11.8696 35.804 11.6345 36.0732 11.5124 36.4366C11.3903 36.7955 11.4129 37.1499 11.5893 37.4999C11.7611 37.8498 12.0278 38.0831 12.3896 38.2042C12.7513 38.3254 13.1085 38.2984 13.4566 38.1235C13.8093 37.9485 14.0444 37.6793 14.1665 37.3204C14.2885 36.9615 14.2659 36.6026 14.0941 36.2527ZM17.4173 36.3603L17.3811 36.5443L16.2327 36.3289L15.6992 39.1194L15.4867 39.0791L16.0202 36.2885L14.8718 36.0732L14.908 35.8893L17.4218 36.3603H17.4173ZM20.0352 36.2751L20.1437 39.3034L19.9312 39.3124L19.8317 36.6205L17.7248 39.3931L17.5349 39.4021L17.4264 36.3738L17.6389 36.3648L17.7383 39.0566L19.8362 36.2885L20.0352 36.2796V36.2751ZM24.8911 38.5093L24.8323 38.5272C24.4119 38.6439 24.0095 38.5901 23.6206 38.3702C23.2318 38.1459 22.9786 37.8274 22.861 37.4146C22.7435 37.0019 22.7932 36.6026 23.0148 36.2123C23.2363 35.8265 23.5664 35.5707 24.014 35.4451C24.4571 35.3195 24.8866 35.3823 25.2935 35.6246L25.3885 35.9566C25.1986 35.795 24.9815 35.6829 24.7419 35.6246C24.5023 35.5662 24.2672 35.5662 24.0411 35.6335C23.6794 35.7367 23.3991 35.9566 23.2092 36.2975C23.0148 36.6385 22.9741 36.9929 23.0781 37.3608C23.182 37.7287 23.4081 38.0068 23.7517 38.1997C24.0954 38.3927 24.448 38.4375 24.8097 38.3343C25.0358 38.2715 25.2393 38.1504 25.4111 37.9754C25.5829 37.8005 25.7095 37.5941 25.7863 37.3518L25.8813 37.6883C25.6688 38.1055 25.3387 38.3792 24.8911 38.5048V38.5093ZM26.0757 33.3634L26.2701 33.2692L26.7765 34.2876L26.8082 34.2742C27.2061 34.0813 27.613 34.0543 28.0289 34.1934C28.4449 34.3325 28.7478 34.5972 28.9377 34.983C29.1276 35.3688 29.1548 35.7681 29.0191 36.1854C28.8835 36.5981 28.6167 36.9032 28.2188 37.1006L28.1782 37.123L28.7524 38.285L28.5579 38.3792L27.9837 37.2172L27.934 37.2397C27.5316 37.4371 27.1156 37.464 26.6861 37.3204C26.2566 37.1768 25.9491 36.9166 25.7592 36.5353C25.5693 36.154 25.5512 35.7547 25.705 35.333C25.8587 34.9112 26.1345 34.6062 26.5324 34.4088L26.5821 34.3863L26.0757 33.3679V33.3634ZM26.6635 34.5523L26.6138 34.5748C26.2701 34.7408 26.035 35.0099 25.8994 35.3868C25.7637 35.7592 25.7773 36.1181 25.9446 36.4501C26.1119 36.7865 26.3832 37.0109 26.763 37.132C27.1428 37.2531 27.5045 37.2307 27.8481 37.0602L27.8978 37.0378L26.6635 34.5478V34.5523ZM26.8579 34.4581L28.0922 36.948L28.1284 36.9301C28.472 36.7641 28.7026 36.4994 28.8247 36.136C28.9468 35.7726 28.9242 35.4227 28.7524 35.0817C28.5851 34.7408 28.3183 34.5075 27.9521 34.3818C27.5859 34.2562 27.2332 34.2742 26.8896 34.4402L26.8579 34.4536V34.4581ZM31.42 35.0817L31.3612 35.1266C31.0221 35.3913 30.6332 35.4945 30.1902 35.4317C29.7471 35.3733 29.3899 35.1714 29.1231 34.835C28.8564 34.4985 28.7478 34.1082 28.8021 33.6685C28.8564 33.2289 29.0643 32.8655 29.4351 32.5783C29.8013 32.2912 30.2308 32.188 30.7282 32.2733L30.3574 35.2298C30.7372 35.2343 31.0311 35.149 31.2436 34.983C31.4561 34.817 31.6099 34.6196 31.7003 34.3863C31.7907 34.1575 31.8269 33.9198 31.8088 33.6685L32.0258 33.9377C31.9942 34.4133 31.7907 34.7901 31.4245 35.0772L31.42 35.0817ZM29.5029 32.7623C29.2181 32.9821 29.0553 33.2872 29.0101 33.6775C28.9649 34.0678 29.0553 34.3998 29.2768 34.6824C29.5029 34.9651 29.7923 35.14 30.1495 35.2029L30.484 32.4527C30.1133 32.4348 29.7832 32.538 29.5029 32.7578V32.7623ZM33.9429 34.7228L30.57 31.8829L30.7101 31.7169L31.2798 32.197C31.1668 31.9458 31.1396 31.6721 31.1939 31.376C31.2482 31.0844 31.3657 30.8287 31.5511 30.6178C31.8405 30.2768 32.2112 30.0884 32.6543 30.0525C33.0974 30.0166 33.4862 30.1378 33.8253 30.4204C34.1599 30.703 34.3453 31.0664 34.3815 31.5061C34.4176 31.9458 34.291 32.3361 34.0017 32.677C33.8253 32.8834 33.5993 33.0359 33.3189 33.1391C33.0386 33.2378 32.7583 33.2603 32.4825 33.2064L34.083 34.5568L33.9429 34.7228ZM31.8766 32.7174C32.166 32.9642 32.5096 33.0673 32.903 33.0359C33.2963 33.0045 33.6173 32.843 33.866 32.5514C34.1147 32.2598 34.2187 31.9233 34.1825 31.5375C34.1463 31.1517 33.9836 30.8376 33.6897 30.5909C33.3958 30.3441 33.0567 30.2365 32.6633 30.2634C32.27 30.2903 31.9535 30.4473 31.7048 30.7344C31.4561 31.0216 31.3521 31.3625 31.3883 31.7573C31.4245 32.1521 31.5873 32.4707 31.8766 32.7129V32.7174ZM36.2804 29.6398L36.2397 29.7026C36.0092 30.066 35.6746 30.2903 35.236 30.38C34.7974 30.4697 34.395 30.398 34.0288 30.1692C33.6626 29.9404 33.432 29.6084 33.337 29.1732C33.2421 28.738 33.3189 28.3253 33.5676 27.9349C33.8163 27.5446 34.1916 27.3069 34.6844 27.2216L35.3219 30.1333C35.6791 30.0121 35.9323 29.8372 36.077 29.6084C36.2217 29.3796 36.2985 29.1418 36.3121 28.895C36.3211 28.6483 36.2759 28.4105 36.1764 28.1817L36.4703 28.3656C36.5969 28.8232 36.5336 29.2495 36.285 29.6398H36.2804ZM33.6987 28.083C33.5043 28.3836 33.4546 28.729 33.5405 29.1104C33.6264 29.4917 33.8253 29.7788 34.1283 29.9718C34.4357 30.1647 34.7658 30.232 35.1275 30.1736L34.5261 27.4684C34.169 27.576 33.8932 27.7779 33.6987 28.0785V28.083Z" fill="#FFF8F2"/>
</g>
<g clip-path="url(#clip1_662_1335)">
<path d="M0.00202179 13.7231L0.185244 13.1791C0.241007 13.0111 0.344567 12.8911 0.495925 12.8191C0.647282 12.7471 0.814571 12.7431 1.00576 12.8071C1.19296 12.8711 1.31246 12.9991 1.36424 13.1951C1.47178 13.0391 1.63509 12.9351 1.84619 12.8711C2.05729 12.8111 2.27636 12.8191 2.5034 12.8951C2.73044 12.9711 2.90569 13.1351 3.02917 13.3831C3.15264 13.6311 3.16858 13.8911 3.08095 14.1551L2.89773 14.699L0.00600488 13.7151L0.00202179 13.7231ZM1.36025 13.5671L1.24474 13.9151L2.79417 14.443L2.90967 14.0951C2.97739 13.8871 2.96145 13.6871 2.86188 13.4831C2.75832 13.2831 2.60298 13.1471 2.38789 13.0751C2.1728 13.0031 1.96568 13.0151 1.76653 13.1111C1.56737 13.2071 1.43195 13.3591 1.36025 13.5671ZM0.3605 13.2351L0.24499 13.5791L1.06949 13.8591L1.18898 13.5031C1.22483 13.3991 1.21288 13.2951 1.1611 13.1911C1.10932 13.0871 1.02567 13.0151 0.918132 12.9791C0.810588 12.9431 0.699062 12.9511 0.583552 13.0031C0.468043 13.0551 0.396347 13.1351 0.3605 13.2391V13.2351ZM3.72222 9.39137C4.02096 9.62735 4.36748 9.72335 4.75783 9.67535C5.14817 9.62735 5.46283 9.45537 5.69784 9.15139C5.93284 8.85141 6.02843 8.50343 5.97665 8.11946C5.92487 7.73148 5.74962 7.4195 5.45088 7.18352C5.15215 6.94753 4.80562 6.84754 4.41528 6.89154C4.02494 6.93553 3.71426 7.10352 3.47926 7.4035C3.24425 7.70348 3.15264 8.05146 3.20442 8.44743C3.2562 8.84341 3.43146 9.15939 3.73019 9.39537L3.72222 9.39137ZM3.31993 7.28751C3.59477 6.93553 3.95723 6.73155 4.39935 6.67555C4.84147 6.62356 5.23181 6.73155 5.57038 6.99953C5.90894 7.26751 6.11208 7.62349 6.17581 8.06346C6.23953 8.50343 6.13597 8.8954 5.86911 9.23938L5.80538 9.31938C5.54648 9.65135 5.188 9.83934 4.73791 9.87934C4.28782 9.91934 3.8935 9.80734 3.55493 9.53936L3.14866 9.21938C2.75433 8.9074 2.49543 8.57143 2.37594 8.21145C2.32416 8.06346 2.30425 7.88747 2.31221 7.69148C2.32018 7.4915 2.34009 7.32351 2.37196 7.18752C2.40382 7.05153 2.45162 6.87154 2.51535 6.65155L2.89374 5.37164L3.04908 5.49563L2.67467 6.77955C2.38789 7.75548 2.52332 8.46343 3.08493 8.9034L3.13273 8.9434C3.00129 8.67142 2.95349 8.38744 2.99332 8.08746C3.03315 7.78748 3.14069 7.5235 3.31993 7.29551V7.28751ZM5.39114 5.13166L5.55444 4.98767L6.24352 5.78761L6.49445 5.56763C6.69759 5.38764 6.94056 5.31164 7.21937 5.33564C7.49819 5.35964 7.72523 5.47163 7.90048 5.67962C8.07972 5.88761 8.1554 6.12759 8.13548 6.40757C8.11557 6.68755 8.00006 6.91954 7.78896 7.09952L7.39065 7.4475L5.39114 5.12766V5.13166ZM6.36301 5.9276L7.43446 7.16752L7.67743 6.95953C7.83675 6.81954 7.92438 6.63556 7.94031 6.41157C7.95625 6.18759 7.88853 5.9876 7.74514 5.82361C7.60175 5.65562 7.41455 5.56363 7.18353 5.54363C6.95251 5.52363 6.76132 5.58363 6.602 5.71962L6.35903 5.9276H6.36301ZM9.12727 5.86761L7.73319 3.13579L7.92836 3.0358L8.71303 4.57169L9.40609 4.21572C9.38617 4.19572 9.35431 4.13972 9.30651 4.05173C9.10736 3.65975 9.07549 3.25178 9.21092 2.82381C9.34634 2.39984 9.61321 2.08386 10.0115 1.87987C10.4098 1.67589 10.8201 1.63989 11.2463 1.77988C11.6725 1.91587 11.9831 2.17585 12.1783 2.55983C12.3735 2.9438 12.4054 3.35178 12.2779 3.78375C12.1465 4.21572 11.8876 4.5317 11.5012 4.73168L11.4534 4.75568C11.1387 4.91567 10.8002 4.95567 10.4337 4.87567C10.0673 4.79168 9.76457 4.62769 9.51761 4.37571L8.80066 4.74368L9.32244 5.76761L9.12727 5.86761ZM11.1706 1.97587C10.7962 1.85188 10.4417 1.87587 10.1031 2.05186C9.76457 2.22785 9.53753 2.49983 9.41804 2.87981C9.29854 3.25578 9.33041 3.61576 9.50168 3.95973C9.67694 4.29971 9.94779 4.5317 10.3222 4.65569C10.6966 4.77968 11.0511 4.75168 11.3897 4.57969C11.7282 4.4037 11.9553 4.13172 12.0748 3.75575C12.1942 3.37977 12.1664 3.0238 11.9911 2.67982C11.8159 2.33984 11.541 2.10386 11.1706 1.97987V1.97587ZM15.1338 0.279981L15.1776 0.467969L14.0384 0.731951L14.6797 3.52776L14.4686 3.57576L13.8273 0.779948L12.6882 1.04393L12.6443 0.859942L15.1298 0.283981L15.1338 0.279981ZM19.0133 0L19.089 3.05979L18.8779 3.06379L18.8102 0.343977L16.6792 3.11979L16.488 3.12379L16.4123 0.0639957L16.6234 0.059996L16.6912 2.77981L18.8141 0.00399973L19.0093 0L19.0133 0ZM23.7691 4.05973L23.7094 4.03973C23.2991 3.89974 22.9964 3.62776 22.8012 3.21978C22.61 2.81181 22.5821 2.40384 22.7215 1.99587C22.861 1.58389 23.1278 1.27991 23.5301 1.08393C23.9324 0.88794 24.3506 0.863942 24.7888 1.01193C25.2269 1.15992 25.5416 1.4519 25.7407 1.88787L25.6292 2.21585C25.5615 1.97187 25.446 1.75988 25.2827 1.57189C25.1194 1.38791 24.9242 1.25592 24.7011 1.17992C24.3466 1.05993 23.9922 1.08793 23.6377 1.25992C23.2832 1.4359 23.0482 1.70389 22.9247 2.07186C22.8012 2.43584 22.8251 2.79581 23.0004 3.15179C23.1756 3.50776 23.4385 3.74375 23.797 3.86374C24.02 3.93974 24.2511 3.95573 24.494 3.90774C24.737 3.85974 24.96 3.75975 25.1592 3.59976L25.0477 3.93574C24.6374 4.16372 24.2112 4.20372 23.7691 4.05573V4.05973ZM28.9471 1.67189L29.1343 1.77988L28.5647 2.77181L28.5926 2.78781C28.975 3.0078 29.2259 3.33178 29.3414 3.75975C29.4569 4.18372 29.4052 4.58369 29.1901 4.95967C28.975 5.33564 28.6563 5.58363 28.2341 5.70362C27.8119 5.82361 27.4096 5.77561 27.0233 5.55163L26.9834 5.52763L26.3342 6.66355L26.147 6.55556L26.7962 5.41964L26.7484 5.39164C26.3581 5.16765 26.1072 4.83568 25.9837 4.3997C25.8642 3.96373 25.908 3.55976 26.1231 3.18779C26.3382 2.81581 26.6608 2.57583 27.099 2.46383C27.5331 2.35584 27.9474 2.41184 28.3297 2.63182L28.3775 2.65982L28.9471 1.66789V1.67189ZM28.2859 2.83181L28.2381 2.80381C27.9075 2.61182 27.549 2.56783 27.1627 2.66782C26.7763 2.76781 26.4856 2.9798 26.2984 3.30778C26.1112 3.63576 26.0713 3.99173 26.1828 4.37571C26.2944 4.75968 26.5134 5.04766 26.844 5.23565L26.8918 5.26365L28.2819 2.83581L28.2859 2.83181ZM28.4731 2.9398L27.083 5.36764L27.1189 5.38764C27.4495 5.57963 27.796 5.61962 28.1664 5.51963C28.5369 5.41564 28.8157 5.19965 29.0069 4.86767C29.198 4.5357 29.2419 4.18372 29.1463 3.80774C29.0467 3.43177 28.8356 3.14779 28.505 2.9598L28.4771 2.9438L28.4731 2.9398ZM29.9389 7.93947L29.8831 7.88747C29.5725 7.58749 29.4131 7.21552 29.4131 6.76755C29.4091 6.31958 29.5565 5.9396 29.8553 5.62362C30.154 5.30764 30.5244 5.14766 30.9705 5.13966C31.4166 5.13166 31.807 5.28765 32.1455 5.61162C32.4841 5.9356 32.6434 6.34757 32.6315 6.84754L29.6362 6.89954C29.688 7.27551 29.8114 7.55549 30.0066 7.74348C30.2018 7.93147 30.4209 8.05546 30.6638 8.11146C30.9068 8.17145 31.1498 8.17145 31.3927 8.11946L31.1537 8.37144C30.6758 8.40344 30.2695 8.25945 29.9349 7.93947H29.9389ZM31.9782 5.70762C31.7193 5.45963 31.3927 5.33964 30.9984 5.34764C30.6041 5.35564 30.2814 5.49163 30.0345 5.75561C29.7836 6.0196 29.6521 6.33158 29.6402 6.69555L32.4243 6.63955C32.3885 6.26758 32.2411 5.9556 31.9822 5.70762H31.9782ZM30.1819 10.0113L33.8941 7.61949L34.0096 7.80348L33.3803 8.20745C33.6551 8.17545 33.926 8.23145 34.1928 8.36744C34.4597 8.50743 34.6668 8.69542 34.8182 8.9314C35.0611 9.31138 35.1328 9.71935 35.0373 10.1553C34.9417 10.5913 34.7106 10.9273 34.3402 11.1673C33.9698 11.4032 33.5675 11.4752 33.1333 11.3792C32.6992 11.2832 32.3606 11.0473 32.1176 10.6673C31.9703 10.4393 31.8906 10.1753 31.8747 9.87534C31.8587 9.57936 31.9185 9.30338 32.0539 9.05539L30.2894 10.1913L30.1739 10.0073L30.1819 10.0113ZM32.7151 8.62342C32.3965 8.83141 32.1933 9.12739 32.1097 9.51136C32.026 9.89934 32.0858 10.2513 32.2929 10.5753C32.5 10.8993 32.7948 11.0993 33.1732 11.1793C33.5555 11.2592 33.9061 11.1952 34.2287 10.9873C34.5513 10.7793 34.7545 10.4833 34.8461 10.0993C34.9337 9.71535 34.8779 9.36337 34.6708 9.04339C34.4637 8.72342 34.1689 8.51943 33.7786 8.43943C33.3922 8.35944 33.0377 8.41944 32.7151 8.62742V8.62342ZM33.7706 14.0871L33.7467 14.0151C33.6073 13.6071 33.6432 13.2031 33.8463 12.8031C34.0494 12.4032 34.3601 12.1352 34.7664 11.9992C35.1767 11.8592 35.5789 11.8912 35.9812 12.0912C36.3796 12.2912 36.6544 12.6112 36.8057 13.0551C36.9571 13.4991 36.9093 13.9391 36.6623 14.379L33.9857 13.0271C33.8583 13.3831 33.8344 13.6911 33.922 13.9471C34.0096 14.207 34.145 14.415 34.3322 14.583C34.5194 14.747 34.7345 14.863 34.9775 14.931L34.6509 15.043C34.2127 14.851 33.922 14.535 33.7706 14.0911V14.0871ZM36.6066 13.0631C36.4911 12.7191 36.2561 12.4632 35.9056 12.2872C35.5511 12.1112 35.2045 12.0832 34.862 12.1992C34.5194 12.3152 34.2566 12.5312 34.0773 12.8471L36.5668 14.0951C36.7101 13.7511 36.7221 13.4071 36.6066 13.0631Z" fill="#FFF8F2"/>
</g>
<circle cx="0.895416" cy="21.311" r="0.895416" fill="#FFF8F2"/>
<circle cx="36.3544" cy="21.3109" r="0.895416" fill="#FFF8F2"/>
<defs>
<clipPath id="clip0_662_1335">
<rect width="34.7421" height="12.1777" fill="white" transform="translate(1.79087 27.2207)"/>
</clipPath>
<clipPath id="clip1_662_1335">
<rect width="36.8911" height="15.043" fill="white"/>
</clipPath>
</defs>
</svg>
