<svg width="77" height="49" viewBox="0 0 77 49" fill="none" xmlns="http://www.w3.org/2000/svg">
<path fill-rule="evenodd" clip-rule="evenodd" d="M30.8564 26.3145L33.1689 26.3145V26.7854L33.1507 26.7808L33.0754 26.7655C33.0373 26.6409 33.0012 26.5642 32.9721 26.5347C32.916 26.4927 32.8182 26.4712 32.6497 26.4712H31.6274L30.8564 26.3145ZM38.557 26.7773C38.5076 26.8143 38.4599 26.8537 38.4138 26.8957L38.2104 26.8471C38.2617 26.8045 38.3154 26.7638 38.3714 26.7249C38.4329 26.7427 38.4947 26.7603 38.557 26.7773ZM37.7396 27.3784C37.7592 27.3483 37.7793 27.3186 37.8001 27.2895C37.805 27.32 37.809 27.3506 37.8112 27.3792C37.7875 27.3796 37.7636 27.3793 37.7396 27.3784Z" fill="#FFF8F2" fill-opacity="0.8"/>
<path fill-rule="evenodd" clip-rule="evenodd" d="M0.367662 26.3145H1.71422C2.19097 26.3145 2.54157 26.3669 2.75178 26.4726C2.97639 26.5787 3.13083 26.7105 3.22884 26.8686C3.32688 27.0251 3.38293 27.2344 3.38293 27.4928C3.38293 27.8887 3.24265 28.1861 2.9624 28.3864C2.696 28.5851 2.31709 28.6793 1.84065 28.6705L1.84063 28.6258C2.14915 28.6258 2.38746 28.5341 2.5697 28.353C2.76573 28.1702 2.84993 27.9306 2.84993 27.6333C2.84993 27.4027 2.80785 27.198 2.72383 27.0182C2.62566 26.8395 2.49933 26.7033 2.34538 26.6104C2.17698 26.5174 1.92437 26.4712 1.58805 26.4713L1.25128 26.4712V30.4799C1.25128 30.7061 1.27955 30.8423 1.32152 30.8848C1.37761 30.9282 1.47573 30.9499 1.61587 30.9499L1.61589 30.9964L0.367684 30.9964L0.367662 30.9499C0.59247 30.9499 0.704473 30.85 0.704451 30.6486L0.704473 26.7699C0.704473 26.6046 0.690461 26.4957 0.634215 26.4407C0.59247 26.3872 0.508267 26.3596 0.367662 26.3596V26.3145ZM8.62558 30.9963C8.8745 30.8277 9.09323 30.858 9.67956 30.9963H10.425C10.1399 30.9428 9.8584 30.8908 9.59681 30.8395L8.96435 30.8396C8.78196 30.8395 8.64157 30.8282 8.5575 30.8033C8.47361 30.7787 8.4034 30.7177 8.36132 30.622C8.35427 30.606 8.34806 30.5882 8.3425 30.5687C8.11616 30.524 7.92387 30.4682 7.75809 30.2944L7.75811 30.6162C7.75809 30.7625 7.73042 30.8542 7.67435 30.8891C7.61793 30.9239 7.53375 30.9442 7.42179 30.9498L7.42177 30.9963L8.62558 30.9963ZM7.75811 29.6825L8.30525 29.7772L8.30527 28.7041L9.79172 28.704C9.90406 28.7041 9.97414 28.7143 10.0161 28.7359C10.0442 28.7575 10.072 28.7983 10.0861 28.8606H10.1282L10.1282 28.4164H10.0861C10.0862 28.4689 10.0581 28.5082 10.0299 28.5328C9.98782 28.5604 9.88978 28.5733 9.74967 28.5733H8.30523L8.30525 26.4712H9.86196C10.0299 26.4712 10.1422 26.4927 10.1843 26.5347C10.2262 26.5772 10.2825 26.7178 10.3529 26.9586L10.3948 26.9586V26.3145H7.42179V26.3595C7.5902 26.3595 7.68805 26.3941 7.71617 26.4654C7.74412 26.5347 7.75811 26.6551 7.75811 26.8281V29.6825ZM14.9103 30.019L15.0496 29.9818L14.9103 29.9536V30.019ZM14.9103 29.5294C15.0936 29.5931 15.276 29.638 15.4569 29.6745V28.7563H15.8358L16.2563 28.7431L16.7334 29.4668C16.7334 29.4715 16.7334 29.4757 16.7334 29.4801C16.9323 29.7717 17.1058 30.0174 17.255 30.2171C17.4092 30.2345 17.5412 30.2601 17.6188 30.3095C17.9702 30.5331 17.788 30.3612 17.6646 30.6359C17.9508 30.6662 18.0826 30.7119 18.3167 30.7584C18.3496 30.765 18.5901 30.8073 18.614 30.8131C18.7274 30.8408 18.7543 30.84 18.7569 30.8341C18.642 30.8149 18.5221 30.7719 18.402 30.7048C18.2336 30.612 17.9953 30.3493 17.6728 29.9197C17.3643 29.4902 17.1679 29.2101 17.0977 29.0842L16.7612 28.576C17.0278 28.4269 17.2382 28.2453 17.3782 28.0291C17.5187 27.8145 17.5884 27.5884 17.5884 27.3502C17.5884 27.1427 17.5465 26.9673 17.4761 26.8235C17.3923 26.6816 17.2663 26.5683 17.1117 26.4841C16.9576 26.4014 16.8032 26.3506 16.6491 26.3363C16.495 26.3216 16.2564 26.3144 15.9057 26.3145H14.5735L14.5735 26.3595C14.7279 26.3621 14.8259 26.4027 14.8682 26.4827C14.8963 26.5613 14.9103 26.6611 14.9103 26.7829V29.5294ZM18.7873 30.8386C18.8252 30.8555 18.8974 30.8873 19.0309 30.9444L19.0126 30.8358C18.9719 30.8424 18.9319 30.8457 18.8928 30.8457C18.8582 30.8457 18.823 30.8433 18.7873 30.8386ZM23.4103 30.9465C23.4783 30.9618 23.5437 30.9791 23.6083 30.9963L23.6869 30.9963L23.4576 30.9407C23.4429 30.9431 23.4272 30.9451 23.4103 30.9465ZM23.6608 30.4519C23.8448 30.4872 24.0224 30.5198 24.2081 30.5555L24.2079 30.5334L24.2079 29.5496C24.0217 29.5108 23.8381 29.4719 23.6608 29.4336V30.4519ZM23.6608 29.3767C23.8069 29.415 23.948 29.4462 24.0796 29.4635L24.2079 29.4844L24.2079 28.6649H25.7364C25.8765 28.6649 25.9465 28.717 25.9466 28.8215H26.0026L26.0026 28.3789H25.9466C25.9466 28.4442 25.9186 28.4861 25.8765 28.5068C25.8344 28.5255 25.7502 28.534 25.6239 28.534L24.2079 28.5341L24.2079 26.4712L25.7224 26.4712C25.8908 26.4712 26.0026 26.4887 26.0728 26.5247C26.1569 26.5613 26.2131 26.6598 26.2552 26.8193C26.2552 26.8281 26.2552 26.8354 26.2692 26.838V26.8612H26.3113L26.3113 26.3145H23.3243V26.3595C23.4644 26.3595 23.5488 26.3915 23.5907 26.4537C23.6328 26.5159 23.6608 26.625 23.6608 26.7829V29.3767ZM30.5319 29.9744L31.0794 30.0857L31.0793 28.704L32.5654 28.704C32.5964 28.7041 32.6242 28.7048 32.6491 28.7064C32.5604 28.6625 32.4711 28.6181 32.366 28.5733H31.0793L31.0793 27.741L31.0791 27.7409L31.0793 27.7404V27.2245C30.827 27.2212 30.9063 27.1489 30.5672 27.0881C30.5551 27.0859 30.5434 27.084 30.5319 27.0822L30.5319 29.9744ZM33.3519 30.5409L33.435 30.5588V30.3506L33.3931 30.3506C33.3816 30.4247 33.3679 30.4881 33.3519 30.5409ZM32.916 28.8325C32.8936 28.8229 32.8719 28.8132 32.8507 28.8036C32.8568 28.8201 32.8603 28.839 32.8602 28.8607H32.916V28.8325ZM30.5319 26.9698L31.0793 27.0733V26.4712H31.6274L30.8564 26.3145H30.2096L30.2096 26.3595C30.3638 26.3595 30.4621 26.3941 30.4901 26.4654C30.5183 26.5346 30.5319 26.6551 30.5319 26.828L30.5319 26.9698ZM37.376 28.2803C37.4241 28.2986 37.4819 28.324 37.564 28.3618C37.6694 28.4103 37.7332 28.4392 37.7738 28.4554C37.77 28.4067 37.7681 28.3591 37.7681 28.3124C37.7681 27.7742 37.9788 27.3139 38.3715 26.9354C38.3855 26.9219 38.3995 26.9087 38.4138 26.8957L38.2104 26.8471C38.0534 26.9772 37.9175 27.1248 37.8001 27.2896C37.805 27.3201 37.809 27.3507 37.8112 27.3793C37.7875 27.3797 37.7636 27.3794 37.7396 27.3784C37.7107 27.423 37.6828 27.4688 37.6562 27.5157C37.5155 27.7639 37.4244 28.019 37.376 28.2803ZM47.4445 29.2831L47.9916 29.4064V26.4641L49.2253 26.4641C49.2954 26.4641 49.3515 26.4712 49.3935 26.4841C49.4218 26.4987 49.4496 26.5306 49.4495 26.5801C49.4496 26.6379 49.4358 26.683 49.4358 26.7178H49.4778L49.7021 26.1579H49.6602C49.632 26.232 49.5898 26.2768 49.5341 26.2912C49.4778 26.3073 49.3935 26.3145 49.2675 26.3145H46.1402C46.0139 26.3144 45.9297 26.3073 45.8878 26.2912C45.86 26.2768 45.8178 26.232 45.7758 26.1579H45.7336L45.958 26.7178H46.0001C45.9858 26.6598 45.9718 26.6177 45.9718 26.5886C45.9718 26.5333 46.0001 26.4987 46.0279 26.4841C46.0698 26.4712 46.1402 26.4641 46.2665 26.4641H47.4445L47.4445 29.2831ZM38.3714 26.7249C38.4329 26.7427 38.4947 26.7603 38.557 26.7773C38.9227 26.5039 39.3798 26.3669 39.928 26.3669C40.5447 26.3669 41.0776 26.5916 41.5407 27.0443L41.5826 27.0442L41.4144 26.5438C41.4004 26.5408 41.4004 26.5392 41.4004 26.5364L41.1899 26.4581C41.0639 26.4059 40.8954 26.3566 40.6992 26.3073C40.5028 26.2593 40.2782 26.2363 40.0119 26.2363C39.493 26.2363 39.0163 26.3492 38.6096 26.5787C38.5258 26.624 38.4465 26.6728 38.3714 26.7249ZM33.1689 26.7854L33.1507 26.7808L33.0754 26.7655C33.0922 26.8206 33.1093 26.8849 33.1265 26.9586H33.1689L33.1689 26.7854ZM15.4569 26.445L15.4569 28.6331L15.948 28.6331C16.3407 28.6331 16.6209 28.5416 16.8174 28.3601C16.9996 28.1787 17.0977 27.9394 17.0977 27.645C17.0977 27.3576 16.9996 27.0862 16.8174 26.8281C16.6351 26.5726 16.3124 26.445 15.8358 26.445L15.4569 26.445Z" fill="#FFF8F2" fill-opacity="0.8"/>
<path fill-rule="evenodd" clip-rule="evenodd" d="M47.9916 29.4064L47.4445 29.2831L47.4445 30.5409C47.4445 30.7017 47.4305 30.8077 47.3884 30.8585C47.3462 30.9094 47.2481 30.9398 47.0797 30.9498V30.9963H48.3699V30.9498C48.258 30.9498 48.1876 30.9428 48.1457 30.9267C48.0896 30.9108 48.0613 30.8715 48.0335 30.8123C48.0053 30.7513 47.9916 30.6394 47.9916 30.4724V29.4064ZM37.7738 28.4554C37.7332 28.4392 37.6694 28.4103 37.564 28.3618C37.4819 28.324 37.4241 28.2986 37.376 28.2803C37.3472 28.4359 37.3335 28.5936 37.3335 28.7535C37.3335 29.3891 37.544 29.9344 37.9644 30.3898C38.3994 30.8456 39.1004 31.0751 40.0823 31.0751C40.3484 31.0751 40.5731 31.0631 40.727 31.0426C40.8816 31.0211 41.232 30.9528 41.7652 30.8368L42.1015 30.3317L42.0452 30.3191C41.8911 30.5087 41.6247 30.6611 41.2881 30.7744C40.9516 30.8876 40.6012 30.9442 40.2504 30.9442C39.7176 30.9442 39.255 30.805 38.876 30.5262C38.4978 30.2478 38.2169 29.8907 38.0347 29.4599C37.89 29.0884 37.7971 28.7531 37.7738 28.4554ZM31.0793 27.0733L30.5319 26.9698L30.5319 27.0822C30.5434 27.084 30.5551 27.0859 30.5672 27.0881C30.9063 27.1489 30.827 27.2212 31.0793 27.2245V27.0733ZM31.0793 27.7404L31.0791 27.7409L31.0793 27.741L31.0793 27.7404ZM32.366 28.5733C32.4711 28.6181 32.5604 28.6625 32.6491 28.7064C32.7144 28.7105 32.7595 28.7203 32.7898 28.7359C32.8174 28.75 32.839 28.7724 32.8507 28.8036C32.8719 28.8132 32.8936 28.8229 32.916 28.8325V28.4164L32.8603 28.4164C32.8603 28.4689 32.8461 28.5081 32.8042 28.5327C32.7621 28.5604 32.6778 28.5733 32.5377 28.5733L32.366 28.5733ZM33.435 30.5588L33.3519 30.5409C33.3283 30.6184 33.3 30.6729 33.2666 30.7048C33.2247 30.7583 33.1548 30.7946 33.0845 30.8123C33.014 30.831 32.8461 30.8395 32.5797 30.8395H31.7381C31.5561 30.8396 31.4298 30.8282 31.3313 30.8034C31.2474 30.7787 31.1774 30.7177 31.149 30.622C31.1073 30.5262 31.0793 30.3682 31.0793 30.149L31.0794 30.0857L30.5319 29.9744L30.5319 30.6162C30.5319 30.7624 30.5041 30.8542 30.4481 30.8891C30.392 30.9239 30.3079 30.9442 30.2095 30.9498V30.9963L33.435 30.9963L33.435 30.5588ZM24.2079 29.4844L24.0796 29.4635C23.948 29.4462 23.8069 29.415 23.6608 29.3767V29.4336C23.8381 29.4719 24.0217 29.5108 24.2079 29.5496V29.4844ZM24.2081 30.5555C24.0224 30.5198 23.8448 30.4872 23.6608 30.4519L23.6608 30.6352C23.6608 30.7352 23.6468 30.8123 23.6047 30.8671C23.5767 30.9047 23.5304 30.9287 23.4576 30.9407L23.6869 30.9963L24.5722 30.9963L24.5722 30.9499C24.4321 30.9498 24.348 30.9255 24.2919 30.8745C24.2381 30.8257 24.2103 30.7188 24.2081 30.5555ZM23.6083 30.9963C23.5437 30.9791 23.4783 30.9618 23.4103 30.9465C23.3844 30.9488 23.3558 30.9498 23.3243 30.9498V30.9963L23.6083 30.9963ZM19.0126 30.8358L19.0309 30.9444C18.8974 30.8873 18.8252 30.8555 18.7873 30.8386C18.7772 30.8373 18.7671 30.8358 18.7569 30.8341C18.7543 30.84 18.7274 30.8408 18.614 30.8131C18.5901 30.8073 18.3496 30.765 18.3167 30.7584C18.0826 30.7119 17.9508 30.6662 17.6646 30.6359C17.788 30.3612 17.9702 30.5331 17.6188 30.3095C17.5412 30.2601 17.4092 30.2345 17.255 30.2171C17.4738 30.5103 17.6402 30.7046 17.757 30.8002C17.9532 30.9614 18.1916 31.0413 18.4583 31.0413C18.8788 31.0413 19.2013 30.9367 19.4677 30.7282L19.4399 30.664C19.2891 30.7573 19.1467 30.8143 19.0126 30.8358ZM15.4569 29.6745C15.276 29.638 15.0936 29.5931 14.9103 29.5294L14.9103 29.9536L15.0496 29.9818L14.9103 30.019L14.9103 30.5059C14.9102 30.6814 14.8963 30.7976 14.8542 30.8554C14.8122 30.9121 14.7279 30.9442 14.5735 30.9498V30.9963H15.7938L15.7938 30.9498C15.6395 30.9498 15.5554 30.9194 15.5128 30.8568C15.4709 30.7946 15.4569 30.6916 15.4569 30.5465L15.4569 29.6745ZM8.30525 29.7772L7.75811 29.6825L7.75809 30.2944C7.92387 30.4682 8.11616 30.524 8.3425 30.5687C8.31497 30.4716 8.30525 30.3315 8.30525 30.1489L8.30525 29.7772ZM9.59681 30.8395C9.8584 30.8908 10.1399 30.9428 10.425 30.9963L10.6607 30.9963V30.3506H10.6048C10.577 30.5334 10.5488 30.6512 10.4929 30.7048C10.4369 30.7583 10.3805 30.7946 10.3107 30.8123C10.2262 30.831 10.0582 30.8395 9.79168 30.8395L9.59681 30.8395ZM8.62558 30.9963C8.8745 30.8277 9.09323 30.858 9.67956 30.9963H8.62558Z" fill="#FFF8F2" fill-opacity="0.8"/>
<path fill-rule="evenodd" clip-rule="evenodd" d="M59.106 9.43446C60.2109 9.82454 59.6101 9.36923 60.2983 10.5134L64.64 21.9829L54.4828 21.9573C55.1323 18.2248 58.5246 13.1925 59.106 9.43446ZM59.106 9.43446C59.0383 9.51245 58.9413 9.55114 58.9121 9.70742C58.8831 9.86358 58.7571 9.92859 58.7184 9.99345L53.6619 22.6013L54.435 22.7626C55.337 22.3551 56.2374 22.5372 58.1757 22.5684C63.2225 22.6265 64.6063 22.278 65.3583 23.1384L65.4042 23.0521C65.4165 23.0339 65.4353 23.0069 65.449 22.9892C65.7287 22.6276 66.127 22.7197 66.2856 23.0842L66.4184 22.984C66.5398 22.9156 66.438 22.9195 66.6377 22.8997C66.8698 22.8767 66.9779 22.9139 67.1969 23.0312C67.0935 22.7665 66.9671 22.8805 66.6797 22.5997L67.3399 22.7068C66.2598 19.9281 65.3665 17.6434 64.8628 16.3525C64.1222 14.4523 63.2005 11.7989 62.2549 9.52137C62.0951 9.51523 62.0205 9.51351 61.6785 9.45226C61.3789 9.39859 61.1942 9.43737 60.8445 9.35094C60.5562 9.27971 60.1981 9.11853 59.9062 9.07072L59.1694 8.93542C59.1477 9.09154 59.1268 9.25716 59.1059 9.43448L59.106 9.43446ZM53.5154 22.9669L53.2138 23.7188C53.2198 23.7188 53.2315 23.72 53.2547 23.7231C53.2774 23.6878 53.2968 23.6725 53.3104 23.6997C53.3165 23.712 53.3225 23.7232 53.3284 23.7337L53.4053 23.7454L53.5382 23.7722C53.6474 23.6103 53.7193 23.2124 53.7562 23.1793C53.8134 23.1354 53.8697 23.0941 53.9253 23.0555L53.5154 22.9669ZM65.5609 23.4224C65.7292 23.7056 65.8757 24.0783 66.05 24.5666C66.1113 24.5795 66.1698 24.5916 66.2252 24.6029L68.2416 25.0298L68.1313 24.7454C67.9811 24.7383 67.9569 24.7721 67.6988 24.568C68.0616 24.4224 67.6144 24.6802 68.0367 24.5855C68.0474 24.5831 68.0574 24.5812 68.067 24.5795L67.8619 24.0506L65.5609 23.4224ZM61.4948 7.79788C61.3963 7.59044 61.2981 7.39024 61.2002 7.19868C61.1483 7.18971 61.1008 7.18114 61.0597 7.17313L60.7806 7.42551C60.7559 7.43544 60.6365 7.46442 60.6033 7.47674C60.8863 7.62497 61.1868 7.7237 61.4948 7.79788Z" fill="#FFF8F2" fill-opacity="0.8"/>
<path fill-rule="evenodd" clip-rule="evenodd" d="M69.4684 32.8712C69.74 32.9425 69.9989 33.0014 70.2096 32.9286C70.0027 32.7851 69.7045 32.7051 69.3698 32.6459L69.4684 32.8712ZM69.1052 32.0389C69.9578 32.2135 70.6708 32.3498 71.081 32.3988L71.0766 32.3873C70.684 32.2359 69.8848 32.0471 69.03 31.8665L69.1052 32.0389ZM68.4216 30.4702C68.7254 30.4939 69.1329 30.4882 69.2759 30.7635C68.9859 30.6323 68.893 30.5473 68.7052 30.7041C68.5953 30.7958 68.6221 30.8368 68.5805 30.8349L68.8141 31.371C69.4867 31.49 70.1635 31.6181 70.8461 31.7849C70.6503 31.274 70.4543 30.7639 70.259 30.2555L68.1369 29.8145C68.2306 30.0303 68.33 30.2597 68.4216 30.4702ZM70.8777 31.8676L69.8015 31.7381C69.8611 31.8458 69.753 31.7655 69.9294 31.8662C70.0606 31.9411 70.4678 32.0284 70.9738 32.1188L70.8777 31.8676ZM67.6714 28.7425C67.7647 28.7665 67.8764 28.789 68.0541 28.8167L69.4629 29.1002C69.5816 29.1268 69.6938 29.1457 69.82 29.1483L69.8341 29.1511L69.6486 28.6696L69.2321 28.584C68.9265 28.5292 68.7112 28.4978 68.4586 28.4431L67.4473 28.2264L67.6714 28.7425ZM67.3489 27.9974C67.5941 28.0477 67.8089 28.0907 67.9749 28.1207L69.5562 28.4299C69.1066 27.2641 68.6651 26.1228 68.2416 25.0298L66.2252 24.6029C66.1698 24.5916 66.1113 24.5795 66.05 24.5666C66.3346 25.3629 66.6947 26.4675 67.3489 27.9974ZM67.3399 22.7068L66.6797 22.5997C66.9671 22.8805 67.0935 22.7665 67.1969 23.0312C66.9779 22.9139 66.8698 22.8767 66.6377 22.8997C66.438 22.9195 66.5398 22.9156 66.4184 22.984L66.2856 23.0842C66.127 22.7197 65.7287 22.6276 65.449 22.9892C65.4353 23.0069 65.4165 23.0339 65.4042 23.0521L65.3583 23.1384C65.4308 23.2214 65.4975 23.3155 65.561 23.4224L67.8619 24.0507C67.6836 23.5911 67.5099 23.144 67.34 22.7068H67.3399ZM68.067 24.5795C68.0574 24.5812 68.0474 24.5831 68.0367 24.5855C67.6144 24.6802 68.0616 24.4224 67.6988 24.568C67.9569 24.7721 67.9811 24.7383 68.1313 24.7454L68.067 24.5795ZM54.435 22.7626L53.6619 22.6013L53.5154 22.9669L53.9253 23.0555C54.0997 22.9343 54.2674 22.8384 54.435 22.7626ZM53.5382 23.7722L53.4053 23.7454L53.3284 23.7337C53.4094 23.8782 53.4793 23.8597 53.5382 23.7722ZM53.2547 23.7231C53.2315 23.72 53.2198 23.7188 53.2138 23.7188L53.1067 23.9858C53.1573 23.9263 53.2119 23.7894 53.2547 23.7231Z" fill="#FFF8F2" fill-opacity="0.8"/>
<path fill-rule="evenodd" clip-rule="evenodd" d="M59.1694 8.93542L59.9062 9.07072C60.1981 9.11853 60.5562 9.27971 60.8445 9.35094C61.1942 9.43737 61.3789 9.39859 61.6785 9.45226C62.0205 9.51351 62.0951 9.51523 62.2549 9.52137C62.0022 8.91281 61.7479 8.33127 61.4948 7.79788C61.1868 7.7237 60.8863 7.62497 60.6033 7.47674C60.6365 7.46442 60.7559 7.43544 60.7806 7.42551L61.0597 7.17313C61.1008 7.18114 61.1483 7.18971 61.2002 7.19868C60.9511 6.71097 60.7043 6.27875 60.4629 5.92332C59.6106 6.9505 59.3593 7.56913 59.1695 8.93542H59.1694Z" fill="#FFF8F2" fill-opacity="0.8"/>
<path fill-rule="evenodd" clip-rule="evenodd" d="M76.9999 48.9319L76.8604 48.9043C76.9525 49.0229 76.9983 49.0303 76.9999 48.9319Z" fill="#FFF8F2" fill-opacity="0.8"/>
<path fill-rule="evenodd" clip-rule="evenodd" d="M73.4233 38.5737L72.7561 38.4375C72.7313 38.4314 72.7017 38.4229 72.677 38.417C72.6526 38.4111 72.623 38.4031 72.5988 38.3975C72.4137 38.3554 72.1425 38.2941 71.8219 38.2235C72.6601 40.1149 73.381 41.7218 73.9964 43.0737L75.1699 43.2963C74.6576 41.8836 74.0635 40.2804 73.4233 38.5737ZM75.1287 45.5279C75.367 45.5412 75.5804 45.531 75.7491 45.4842C75.5779 45.4167 75.3182 45.3467 75.0101 45.2756C75.0514 45.364 75.0888 45.4429 75.1287 45.5279ZM74.8934 45.0243C75.2197 45.0958 75.5435 45.166 75.8629 45.2338C75.8037 45.0653 75.7438 44.8956 75.6809 44.7183C75.3252 44.6451 74.9653 44.5658 74.6427 44.4843C74.73 44.6733 74.8115 44.8483 74.8934 45.0243ZM74.4484 44.0618C74.5412 44.0752 74.6146 44.0914 74.7472 44.1209C75.145 44.2094 75.3499 44.3498 75.5232 44.2772L75.471 44.1312C75.2542 44.0134 74.8187 43.8986 74.3254 43.7938L74.4484 44.0618ZM74.2306 43.5871C74.6113 43.6563 74.9895 43.7263 75.3515 43.7988L75.2491 43.5156C75.2306 43.5107 75.2111 43.5057 75.1901 43.5007C74.9277 43.4374 74.5397 43.3639 74.0918 43.2838C74.1397 43.3888 74.1841 43.4853 74.2306 43.5871Z" fill="#FFF8F2" fill-opacity="0.8"/>
<path fill-rule="evenodd" clip-rule="evenodd" d="M72.1204 35.1243L70.2847 34.7364C70.414 35.0309 70.5381 35.313 70.6627 35.5964L72.4328 35.9475L72.2993 35.5956C72.0592 35.533 71.8865 35.469 71.8555 35.4086L72.2605 35.4934L72.1204 35.1243ZM71.8219 38.2235C72.1425 38.2941 72.4137 38.3554 72.5988 38.3975C72.623 38.4031 72.6526 38.4111 72.677 38.417C72.7017 38.4229 72.7313 38.4314 72.7561 38.4375L73.4233 38.5737L73.4053 38.526L71.8139 38.2057L71.8219 38.2235ZM71.3277 37.1058C71.8908 37.2107 72.4543 37.3167 72.9893 37.4201L72.7792 36.8629C72.2106 36.7454 71.6377 36.6339 71.0719 36.5267C71.1591 36.7245 71.2424 36.9127 71.3277 37.1058ZM70.9689 36.2934C71.5836 36.3808 72.0974 36.5391 72.6942 36.6382L72.5633 36.2923C72.5291 36.2775 72.4979 36.2643 72.471 36.2538C72.0621 36.0947 71.4341 35.9867 70.7876 35.8807L70.9689 36.2934Z" fill="#FFF8F2" fill-opacity="0.8"/>
<path fill-rule="evenodd" clip-rule="evenodd" d="M70.2847 34.7364L72.1204 35.1243C71.7783 34.2239 71.4304 33.3119 71.081 32.3988C70.6708 32.3498 69.9578 32.2135 69.1052 32.0389L69.3698 32.6459C69.7045 32.7051 70.0027 32.7851 70.2096 32.9286C69.9989 33.0014 69.74 32.9425 69.4684 32.8712C69.7494 33.5146 70.0218 34.137 70.2847 34.7364ZM69.5562 28.4299L67.9749 28.1207C67.8089 28.0907 67.5941 28.0477 67.3489 27.9974C67.3793 28.0685 67.4095 28.1392 67.4411 28.2121L67.4473 28.2264L68.4586 28.4431C68.7112 28.4978 68.9265 28.5292 69.2321 28.584L69.6486 28.6696L69.5562 28.4299ZM69.8341 29.1511L69.82 29.1483C69.6938 29.1457 69.5816 29.1268 69.4629 29.1002L68.0541 28.8167C67.8764 28.789 67.7647 28.7665 67.6714 28.7425L68.1369 29.8145L70.259 30.2555C70.1169 29.8859 69.9753 29.5177 69.8341 29.1511ZM70.9738 32.1188C70.4678 32.0284 70.0606 31.9411 69.9294 31.8662C69.753 31.7655 69.8611 31.8458 69.8015 31.7381L70.8777 31.8676L70.8461 31.7849C70.1635 31.6181 69.4867 31.49 68.8141 31.371L69.03 31.8665C69.8848 32.0471 70.684 32.2359 71.0766 32.3873L70.9738 32.1188ZM68.5805 30.8349C68.6221 30.8368 68.5953 30.7958 68.7052 30.7041C68.893 30.5473 68.9859 30.6323 69.2759 30.7635C69.1329 30.4882 68.7254 30.4939 68.4216 30.4702L68.5805 30.8349Z" fill="#FFF8F2" fill-opacity="0.8"/>
<path fill-rule="evenodd" clip-rule="evenodd" d="M75.1699 43.2963L73.9964 43.0737L74.0918 43.2838C74.5397 43.3639 74.9277 43.4374 75.1901 43.5007C75.2111 43.5057 75.2306 43.5107 75.2491 43.5156L75.1699 43.2963ZM75.3515 43.7988C74.9895 43.7263 74.6113 43.6563 74.2306 43.5871L74.3254 43.7938C74.8187 43.8986 75.2542 44.0134 75.471 44.1312L75.3515 43.7988ZM75.5232 44.2772C75.3499 44.3498 75.145 44.2094 74.7472 44.1209C74.6146 44.0914 74.5412 44.0752 74.4484 44.0618C74.5135 44.2035 74.5803 44.3494 74.6427 44.4843C74.9653 44.5658 75.3252 44.6451 75.6809 44.7183C75.6302 44.5756 75.5762 44.4253 75.5232 44.2772ZM75.8629 45.2338C75.5435 45.166 75.2197 45.0958 74.8934 45.0243C74.9315 45.1062 74.9731 45.1965 75.0101 45.2756C75.3182 45.3467 75.5779 45.4167 75.7491 45.4842C75.5804 45.531 75.367 45.5412 75.1287 45.5279C76.0752 47.544 76.624 48.5997 76.8604 48.9043L76.9999 48.9319C77.0059 48.6178 76.572 47.2499 75.8629 45.2338Z" fill="#FFF8F2" fill-opacity="0.8"/>
<path fill-rule="evenodd" clip-rule="evenodd" d="M72.2605 35.4934L71.8555 35.4086C71.8865 35.469 72.0592 35.533 72.2993 35.5956L72.2605 35.4934ZM72.4328 35.9475L70.6627 35.5964L70.7876 35.8807C71.4341 35.9867 72.0621 36.0947 72.471 36.2538C72.4979 36.2643 72.5291 36.2775 72.5633 36.2923L72.4328 35.9475ZM72.6942 36.6382C72.0974 36.5391 71.5836 36.3808 70.9689 36.2934L71.0719 36.5267C71.6377 36.6339 72.2106 36.7454 72.7792 36.8629L72.6942 36.6382ZM72.9893 37.4201C72.4543 37.3167 71.8908 37.2107 71.3277 37.1058C71.4928 37.4798 71.657 37.8516 71.8139 38.2057L73.4053 38.526C73.2687 38.1618 73.1298 37.7929 72.9893 37.4201Z" fill="#FFF8F2" fill-opacity="0.8"/>
<path fill-rule="evenodd" clip-rule="evenodd" d="M37.1021 24.2036L37.317 24.2036C37.2886 24.1422 37.2286 24.0688 37.1272 23.9829C37.4228 24.1703 37.4981 24.1826 37.6236 24.189L37.636 17.4368L37.1371 17.3282L37.1021 24.2036ZM37.6373 16.7631L37.6492 10.2982C37.4898 10.2725 37.3309 10.2466 37.1733 10.2195L37.1401 16.7324C37.336 16.7548 37.4522 16.7346 37.6373 16.7631ZM37.6496 10.1053L37.6511 9.28785C38.9778 10.2382 37.5411 9.09821 38.5752 10.2455C38.5924 10.2655 38.6105 10.2863 38.6294 10.3079L39.495 10.4868C39.7139 10.5455 40.0131 10.6605 40.2656 10.7406L39.6055 10.6954C39.3495 10.6179 39.078 10.554 38.798 10.4977C38.9783 10.6989 39.1952 10.9383 39.4079 11.1882C40.1123 11.9992 40.3139 12.3867 41.0274 13.1612L48.1215 21.505C49.2426 21.7694 50.1309 21.8366 50.9263 22.0165C50.6371 21.4592 50.4691 20.9276 50.4708 20.4476C50.4841 17.7477 50.7237 13.0227 50.5533 9.517C50.4153 9.49657 50.2775 9.47586 50.1403 9.45444L50.1048 20.6667C48.5584 19.8409 41.5125 11.1954 40.4419 9.81412C40.2564 9.57285 40.0189 9.26389 39.7522 8.92871C39.3649 8.84374 39.0447 8.7698 38.868 8.725C38.371 8.59895 37.764 8.54163 37.1823 8.46174L37.1745 10.0071L37.6496 10.1053ZM48.4041 21.8374L50.7452 24.5908C50.8691 24.7107 50.9927 24.8319 51.1161 24.9542L53.7287 25.4534C53.1674 24.9181 52.6309 24.3595 52.1609 23.8L52.1337 23.7937C51.5942 23.7797 52.3052 23.7331 52.0143 23.8369C52.0007 23.8417 52.0483 23.9379 51.7325 23.8283L51.4762 23.7076C51.4469 23.6876 51.2674 23.6114 51.2113 23.4147C51.5945 23.387 51.2063 23.4084 51.6053 23.4678L51.9358 23.5255C51.6516 23.1699 51.3973 22.8157 51.1833 22.4685C50.2623 22.2598 49.3315 22.03 48.4041 21.8374ZM50.5226 8.96795C50.4796 8.29736 50.4189 7.68219 50.3356 7.14765C50.2733 7.13064 50.2107 7.11346 50.1477 7.09646L50.142 8.88967L50.5226 8.96795ZM39.3119 8.38546C39.1274 8.16272 38.9363 7.93825 38.7441 7.72258L38.7435 7.72419C38.6931 7.8178 38.7987 7.87815 38.5361 7.6153C38.5192 7.59845 38.4328 7.50657 38.403 7.48784C38.2984 7.42211 37.7819 7.28862 37.6474 7.26466L37.1888 7.18282L37.185 7.94146C37.5404 8.0187 37.9002 8.10155 38.2667 8.17575L39.3119 8.38546Z" fill="#FFF8F2" fill-opacity="0.8"/>
<path fill-rule="evenodd" clip-rule="evenodd" d="M62.5134 30.9726C62.3604 30.9154 62.2238 30.8517 62.1081 30.7793C62.2876 30.7402 62.7412 30.7868 63.357 30.8853C63.6493 30.8438 63.9378 30.7914 64.2207 30.7284L62.7356 30.4245C61.9142 30.3787 61.0654 30.2097 60.2067 29.907L58.6907 29.5967C58.7969 29.3299 58.932 29.4102 59.1785 29.4998L59.1684 29.4764C58.7764 29.2895 58.3838 29.0744 57.9924 28.8296C57.9531 28.805 57.9125 28.7794 57.8714 28.7531C57.686 28.7126 57.5914 28.6579 57.3354 28.5995C57.0971 28.5451 56.807 28.5171 56.5664 28.4727C55.9023 28.3503 55.9915 28.4594 55.8941 27.9866C56.3184 28.2079 56.4826 28.1436 56.9356 28.2487C57.028 28.2701 57.1207 28.2909 57.2136 28.3113C56.2042 27.6047 54.9116 26.5812 53.7287 25.4534L51.1161 24.9542C53.2434 27.0606 55.3451 29.4729 59.0812 30.6056C60.1913 30.9418 61.3681 31.0465 62.5134 30.9726ZM65.8001 29.9867L66.2323 30.0672C66.548 29.9256 66.8473 29.7708 67.1261 29.6045L66.8259 29.5421L66.8001 29.5343C66.4798 29.7097 66.1459 29.861 65.8001 29.9867ZM65.58 30.3316C65.4128 30.3017 65.2326 30.2573 65.0596 30.2129C64.6901 30.3047 64.3095 30.3689 63.9203 30.4045L64.788 30.5864C65.0591 30.5107 65.3236 30.4254 65.58 30.3316ZM67.9011 28.7913C67.9463 28.7994 67.9968 28.8078 68.0541 28.8167L68.1709 28.8402C68.3063 28.7171 68.4315 28.5907 68.5456 28.4613C68.5169 28.4555 68.488 28.4495 68.4586 28.4431L68.3263 28.4148C68.189 28.5462 68.0471 28.6717 67.9011 28.7913ZM68.5152 28.2264L68.7084 28.2641C68.912 28.0015 69.0699 27.7283 69.1739 27.4483C68.97 27.7253 68.7497 27.9847 68.5152 28.2264ZM50.9263 22.0165C50.1308 21.8365 49.2426 21.7694 48.1215 21.505L48.4041 21.8374C49.3315 22.03 50.2623 22.2597 51.1833 22.4684C51.0895 22.3163 51.0036 22.1655 50.9263 22.0165L50.9263 22.0165ZM51.9358 23.5255L51.6053 23.4678C51.2063 23.4084 51.5945 23.387 51.2113 23.4147C51.2674 23.6114 51.4469 23.6876 51.4762 23.7076L51.7325 23.8283C52.0483 23.9379 52.0007 23.8417 52.0143 23.8369C52.3052 23.7331 51.5942 23.7797 52.1337 23.7937L52.1609 23.8C52.084 23.7085 52.0089 23.6169 51.9358 23.5254L51.9358 23.5255ZM37.6236 24.189C37.4981 24.1826 37.4228 24.1703 37.1272 23.9829C37.2286 24.0688 37.2886 24.1422 37.317 24.2036L37.6236 24.2036L37.6236 24.189Z" fill="#FFF8F2" fill-opacity="0.8"/>
<path fill-rule="evenodd" clip-rule="evenodd" d="M37.1733 10.2195C37.3309 10.2466 37.4898 10.2725 37.6492 10.2982L37.6496 10.1053L37.1745 10.0071L37.1733 10.2195ZM38.798 10.4977C39.078 10.554 39.3495 10.6179 39.6055 10.6954L40.2656 10.7406C40.0131 10.6605 39.7139 10.5455 39.495 10.4868L38.6294 10.3079C38.6804 10.3661 38.7371 10.4297 38.798 10.4977ZM37.1823 8.46174C37.764 8.54163 38.371 8.59895 38.868 8.725C39.0447 8.7698 39.3649 8.84374 39.7522 8.92871C39.6124 8.7528 39.4644 8.56978 39.3119 8.38546L38.2667 8.17575C37.9002 8.10155 37.5404 8.0187 37.185 7.94146L37.1823 8.46174ZM37.1888 7.18282L37.6474 7.26466C37.7819 7.28862 38.2984 7.42211 38.403 7.48784C38.4328 7.50657 38.5192 7.59845 38.5361 7.6153C38.7987 7.87815 38.6931 7.8178 38.7435 7.72419L38.7441 7.72258C38.1873 7.09759 37.6226 6.54677 37.1932 6.32835L37.1888 7.18282ZM50.1403 9.45444C50.2775 9.47586 50.4153 9.49657 50.5533 9.517C50.5442 9.33049 50.5341 9.14708 50.5226 8.96795L50.142 8.88967L50.1403 9.45444ZM50.1477 7.09646C50.2107 7.11346 50.2733 7.13064 50.3356 7.14765C50.2832 6.81122 50.2221 6.50649 50.1505 6.24055L50.1477 7.09646Z" fill="#FFF8F2" fill-opacity="0.8"/>
<path fill-rule="evenodd" clip-rule="evenodd" d="M68.7084 28.2641L68.5152 28.2264C68.4531 28.2903 68.3904 28.3533 68.3263 28.4148L68.4586 28.4431C68.488 28.4495 68.5169 28.4555 68.5456 28.4613C68.6028 28.3963 68.6569 28.3305 68.7084 28.2641ZM68.171 28.8402L68.0541 28.8167C67.9967 28.8078 67.9463 28.7994 67.9011 28.7913C67.5568 29.0733 67.1885 29.3215 66.8001 29.5343L66.8259 29.5421L67.1261 29.6045C67.5182 29.3705 67.8698 29.1139 68.171 28.8402ZM64.788 30.5864L63.9203 30.4045C63.5334 30.44 63.1377 30.4469 62.7356 30.4245L64.2207 30.7284C64.4125 30.6857 64.6018 30.6383 64.788 30.5864ZM65.0596 30.2129C65.2326 30.2573 65.4128 30.3017 65.58 30.3316C65.804 30.2498 66.0218 30.1615 66.2323 30.0672L65.8001 29.9867C65.5588 30.0746 65.3118 30.1503 65.0596 30.2129ZM57.2136 28.3113C57.1207 28.2909 57.028 28.2701 56.9356 28.2487C56.4826 28.1436 56.3184 28.2079 55.8941 27.9866C55.9915 28.4594 55.9023 28.3503 56.5664 28.4727C56.807 28.5171 57.0971 28.5451 57.3354 28.5995C57.5914 28.6579 57.686 28.7126 57.8714 28.7531C57.671 28.625 57.45 28.4768 57.2136 28.3113ZM59.1684 29.4764L59.1785 29.4998C58.932 29.4102 58.7969 29.3299 58.6907 29.5967L60.2067 29.907C59.8619 29.7854 59.5153 29.6419 59.1684 29.4764ZM63.357 30.8853C62.7412 30.7868 62.2876 30.7402 62.1081 30.7793C62.2238 30.8517 62.3604 30.9154 62.5134 30.9726C62.7971 30.9542 63.0788 30.9249 63.357 30.8853Z" fill="#FFF8F2" fill-opacity="0.8"/>
<path fill-rule="evenodd" clip-rule="evenodd" d="M37.1371 17.3282L37.636 17.4368L37.6373 16.7631C37.4522 16.7346 37.336 16.7548 37.1401 16.7324L37.1371 17.3282Z" fill="#FFF8F2" fill-opacity="0.8"/>
<path fill-rule="evenodd" clip-rule="evenodd" d="M36.1147 23.8738L36.1339 21.7508L36.1332 17.5567C35.0369 17.3118 35.7205 17.5879 35.2702 17.4799C34.8006 17.2299 34.8418 16.9814 34.5468 16.8512L34.5544 23.9087L35.7776 24.1172C35.8702 24.0424 35.9606 23.6292 35.9794 23.8813C36.023 23.8709 36.0701 23.8699 36.1147 23.8738ZM36.1329 16.4327L36.1317 10.0038C35.7303 9.89878 35.3417 9.76604 34.8988 9.68101C34.7218 9.85475 35.0269 9.83514 34.8221 9.98084C34.8137 9.97909 34.6732 9.9652 34.5777 9.9257L34.5393 9.90986L34.5459 16.081L35.893 16.3445C35.9159 16.3497 35.9453 16.3578 35.9688 16.3655C35.9942 16.3738 36.0211 16.3875 36.0473 16.3981C36.0766 16.4101 36.105 16.4215 36.1329 16.4327ZM36.1317 9.7915L36.1314 8.26779L34.5371 7.93333L34.5377 8.45409C34.6029 8.46333 34.6424 8.46867 34.6494 8.46949C35.0238 8.97016 34.504 8.67295 34.8976 8.9326C35.1388 9.0917 35.2773 8.99665 35.5434 9.05354L35.3989 9.24415C35.3945 9.25248 35.3801 9.27933 35.3765 9.28796L35.3481 9.43103C35.347 9.4379 35.3504 9.4663 35.3459 9.48306L34.8616 9.46464C34.8778 9.47873 34.9041 9.5032 34.9236 9.51618C34.9241 9.51651 35.305 9.62001 35.3171 9.62311L36.1317 9.7915ZM36.1313 7.74042L36.1313 7.37021C36.1106 7.22445 36.0995 7.09778 36.0941 6.98748L34.5358 6.70942L34.5365 7.36787L34.5708 7.37472C34.7591 7.42303 34.9409 7.48307 35.0962 7.51883C35.4831 7.60804 35.7562 7.68036 36.1313 7.74042Z" fill="#FFF8F2" fill-opacity="0.8"/>
<path fill-rule="evenodd" clip-rule="evenodd" d="M36.1147 23.8738C36.0701 23.8699 36.023 23.8709 35.9794 23.8813C35.9606 23.6292 35.8702 24.0424 35.7776 24.1172L34.5544 23.9087L34.5547 24.2006L36.1118 24.2006L36.1147 23.8738Z" fill="#FFF8F2" fill-opacity="0.8"/>
<path fill-rule="evenodd" clip-rule="evenodd" d="M34.5393 9.90986L34.5777 9.9257C34.6732 9.9652 34.8137 9.97909 34.8221 9.98084C35.0269 9.83514 34.7218 9.85475 34.8988 9.68101C35.3417 9.76604 35.7303 9.89878 36.1317 10.0038L36.1317 9.7915L35.3171 9.62311C35.305 9.62001 34.9241 9.51651 34.9236 9.51618C34.9041 9.5032 34.8778 9.47873 34.8616 9.46464L35.3459 9.48306C35.3504 9.4663 35.347 9.4379 35.3481 9.43103L35.3765 9.28796C35.3801 9.27933 35.3945 9.25248 35.3989 9.24415L35.5434 9.05354C35.2773 8.99665 35.1388 9.0917 34.8976 8.9326C34.504 8.67295 35.0238 8.97016 34.6494 8.46949C34.6424 8.46867 34.6029 8.46333 34.5377 8.45409L34.5393 9.90986ZM34.5371 7.93333L36.1314 8.26779L36.1313 7.74042C35.7562 7.68036 35.4831 7.60804 35.0962 7.51883C34.9409 7.48307 34.7591 7.42303 34.5708 7.37472L34.5365 7.36787L34.5371 7.93333ZM34.5358 6.70942L36.0941 6.98748C36.0441 5.95404 36.5081 6.37764 34.5354 6.35878L34.5358 6.70942Z" fill="#FFF8F2" fill-opacity="0.8"/>
<path fill-rule="evenodd" clip-rule="evenodd" d="M34.5468 16.8512C34.8418 16.9814 34.8006 17.2299 35.2702 17.4799C35.7205 17.5879 35.0369 17.3118 36.1332 17.5567L36.1329 16.4327C36.105 16.4215 36.0766 16.4101 36.0473 16.3981C36.0211 16.3875 35.9942 16.3738 35.9688 16.3655C35.9453 16.3578 35.9159 16.3497 35.893 16.3445L34.5459 16.081L34.5468 16.8512Z" fill="#FFF8F2" fill-opacity="0.8"/>
<path fill-rule="evenodd" clip-rule="evenodd" d="M31.645 6.15512L31.6492 6.83808C31.9337 6.88193 32.1841 6.9155 32.3791 6.93528L33.4677 7.15363L33.4661 6.51868L33.2944 6.48796C32.7998 6.44428 32.1563 6.21637 31.645 6.15512ZM31.6524 7.32812L31.656 7.90462C32.1858 8.05105 32.8824 8.18536 33.4704 8.28627L33.469 7.70933L31.6524 7.32812ZM31.6632 9.03565L31.6637 9.10837C32.0472 9.19802 32.4202 9.29927 32.7663 9.44415L31.6644 9.24296L31.7042 15.5252L33.4885 15.8742L33.4732 9.41421C33.2987 9.37603 33.121 9.34136 32.9281 9.3055C32.4584 9.21801 32.0564 9.1193 31.6632 9.03565ZM31.7111 16.6295L31.7555 23.6553C31.7777 23.6613 31.8011 23.6689 31.8262 23.6784C32.2906 23.8539 32.6385 24.0746 33.154 23.9353C32.7864 23.6427 32.4854 23.6318 32.3022 23.5271C32.3905 23.6934 32.7482 23.5892 32.9017 23.598C33.1225 23.6107 33.3143 23.6675 33.5074 23.7213L33.4912 16.9423L33.1402 16.8509C32.9325 16.8009 32.7314 16.8328 32.5361 16.8077C32.2792 16.7748 31.9987 16.7068 31.7111 16.6295Z" fill="#FFF8F2" fill-opacity="0.8"/>
<path fill-rule="evenodd" clip-rule="evenodd" d="M33.5074 23.7213C33.3143 23.6675 33.1225 23.6107 32.9017 23.598C32.7482 23.5892 32.3905 23.6934 32.3022 23.5271C32.4854 23.6318 32.7864 23.6427 33.154 23.9353C32.6385 24.0746 32.2906 23.8539 31.8262 23.6784C31.8011 23.6689 31.7777 23.6613 31.7555 23.6553L31.759 24.2036L33.5085 24.1679L33.5074 23.7213Z" fill="#FFF8F2" fill-opacity="0.8"/>
<path fill-rule="evenodd" clip-rule="evenodd" d="M31.6644 9.24296L32.7663 9.44415C32.4202 9.29927 32.0472 9.19802 31.6637 9.10837L31.6644 9.24296ZM31.6632 9.03565C32.0564 9.1193 32.4584 9.21801 32.9281 9.3055C33.121 9.34136 33.2987 9.37603 33.4732 9.41421L33.4704 8.28627C32.8824 8.18536 32.1858 8.05105 31.656 7.90462L31.6632 9.03565ZM31.6524 7.32812L33.469 7.70933L33.4677 7.15363L32.3791 6.93528C32.1841 6.9155 31.9337 6.88193 31.6492 6.83808L31.6524 7.32812ZM31.645 6.15512C32.1563 6.21637 32.7998 6.44428 33.2944 6.48796L33.4661 6.51868L33.4597 3.82823L40.1637 3.8165C39.4445 3.25599 40.4258 3.70892 39.2804 3.42269L25.0284 3.32131C25.3301 3.49428 25.4013 3.58378 26.0807 3.78638L31.6303 3.8282L31.645 6.15512Z" fill="#FFF8F2" fill-opacity="0.8"/>
<path fill-rule="evenodd" clip-rule="evenodd" d="M31.7111 16.6295C31.9987 16.7068 32.2792 16.7748 32.5361 16.8077C32.7314 16.8328 32.9325 16.8009 33.1402 16.8509L33.4912 16.9423L33.4885 15.8742L31.7042 15.5252L31.7111 16.6295Z" fill="#FFF8F2" fill-opacity="0.8"/>
<path fill-rule="evenodd" clip-rule="evenodd" d="M26.3557 23.6872C26.633 23.6289 26.8941 23.5451 27.1399 23.4387L26.3376 23.2574C25.9948 23.4063 25.6548 23.515 25.3756 23.5571C25.1692 23.5876 26.5255 23.4875 26.3557 23.6872ZM27.6222 23.1902C29.6571 21.9636 30.4692 19.0715 30.5655 16.8261C30.5724 16.6636 30.5786 16.5003 30.5842 16.3363C30.3848 16.295 30.1929 16.2664 30.0147 16.2601C29.8303 18.7297 29.2926 20.8528 27.9537 22.118C27.7498 22.4332 27.2828 22.7769 26.7652 23.0514C26.969 23.0903 27.1646 23.1198 27.3471 23.1347L27.6222 23.1902ZM30.6114 15.3115C30.6511 13.2657 30.6125 11.1313 30.5854 9.04592L30.3852 9.00942C30.0576 9.22783 30.5967 9.37201 30.0084 9.24417L29.9837 9.23874C30.0515 11.2397 30.1429 13.2994 30.0726 15.2061L30.6114 15.3115ZM30.5679 7.39263L30.5661 7.10035L29.9265 6.96617C29.9275 7.05804 29.9288 7.15012 29.9303 7.24255L30.5679 7.39263ZM30.5643 6.65144L30.564 6.36114L29.9227 6.3611C29.9227 6.41584 29.923 6.47098 29.9232 6.52599C30.1371 6.5696 30.3526 6.61175 30.5643 6.65144Z" fill="#FFF8F2" fill-opacity="0.8"/>
<path fill-rule="evenodd" clip-rule="evenodd" d="M27.6222 23.1902L27.3471 23.1347C27.1646 23.1198 26.969 23.0903 26.7652 23.0514C26.625 23.1258 26.4811 23.1951 26.3376 23.2574L27.1399 23.4387C27.3078 23.366 27.4685 23.2829 27.6222 23.1902Z" fill="#FFF8F2" fill-opacity="0.8"/>
<path fill-rule="evenodd" clip-rule="evenodd" d="M29.9837 9.23874L30.0084 9.24417C30.5967 9.37201 30.0576 9.22783 30.3852 9.00942L30.5854 9.04592C30.5782 8.49049 30.5718 7.93854 30.5679 7.39263L29.9303 7.24255C29.9407 7.8959 29.9608 8.56395 29.9837 9.23874ZM29.9265 6.96617L30.5661 7.10035C30.5653 6.95021 30.5647 6.80049 30.5643 6.65144C30.3526 6.61175 30.1371 6.5696 29.9232 6.52599C29.9238 6.67188 29.9247 6.81855 29.9265 6.96617Z" fill="#FFF8F2" fill-opacity="0.8"/>
<path fill-rule="evenodd" clip-rule="evenodd" d="M30.0147 16.2601C30.1929 16.2664 30.3848 16.295 30.5842 16.3363C30.5957 15.9976 30.6047 15.6557 30.6114 15.3115L30.0726 15.2061C30.0594 15.5633 30.0405 15.9151 30.0147 16.2601Z" fill="#FFF8F2" fill-opacity="0.8"/>
<path fill-rule="evenodd" clip-rule="evenodd" d="M17.1767 16.7167C17.2572 16.9632 17.425 17.0825 17.7102 17.238L17.847 17.3C18.079 17.3521 18.1354 17.3648 18.4004 17.4155C18.5388 17.442 18.6676 17.4775 18.8009 17.5231C18.792 17.3878 18.7847 17.2513 18.7786 17.1137C18.6324 17.0857 18.4874 17.0547 18.3306 17.0168L17.1767 16.7167ZM18.8459 18.067C18.7532 18.0416 18.6321 18.0072 18.4475 17.9805L17.4188 17.7592C17.3161 17.7252 17.2537 17.7093 17.2105 17.7035C17.3519 19.1507 17.7452 20.5199 18.6563 21.7413C18.8595 22.0116 19.1626 22.311 19.5316 22.6023L21.3817 22.9377C19.6888 21.8469 19.0541 20.1233 18.8459 18.067ZM17.1499 15.6384L17.3503 15.6992C17.3665 15.7013 17.3983 15.6996 17.4138 15.7009L18.3752 16.0787C18.3344 16.089 18.3049 16.0697 18.2519 16.1055C17.9734 16.2938 17.6185 16.0474 17.3898 15.9839L17.1446 15.9391C17.143 16.0751 17.1432 16.2104 17.1443 16.3455L18.7644 16.7044C18.7131 14.6526 18.9186 12.364 18.8585 10.0864L18.8265 10.1173C18.8078 10.0906 18.7926 10.032 18.7585 10.0466L18.6193 9.92318C18.5979 9.90885 18.5695 9.88911 18.5452 9.87486C18.1499 9.64287 17.8394 9.66528 17.3442 9.59632C17.4659 11.5823 17.1964 13.65 17.1499 15.6384ZM26.6244 23.4024C26.0261 23.4274 25.5388 23.5229 25.0891 23.61L26.1119 23.7955C26.3905 23.7033 26.8264 23.5593 26.8702 23.5432C27.0278 23.4833 27.0912 23.4485 27.0979 23.4292L27.0029 23.4077C26.851 23.4098 26.5761 23.447 26.6244 23.4024ZM24.168 23.7544C23.5617 23.8053 22.9276 23.7313 22.0646 23.3168L21.9716 23.2975C21.3453 23.2144 22.4011 23.3704 21.6264 23.3561C20.8285 23.3413 20.5824 22.999 20.1704 23.0205L20.1221 23.0232C20.701 23.3958 21.3709 23.7192 22.0469 23.8993C22.9407 24.1341 24.3292 24.2276 25.3865 24.0079L24.168 23.7544ZM18.83 9.36808C18.8268 9.30779 18.8237 9.24749 18.82 9.18727C18.8094 8.88052 18.7874 8.58235 18.7539 8.29307C18.3872 8.22245 18.0445 8.16469 17.7418 8.12792C17.4924 8.0976 17.301 8.06251 17.1517 8.0272C17.1714 8.12885 17.1897 8.2308 17.2064 8.33309C17.6705 8.45242 18.1281 8.56203 18.2244 8.56914C18.0636 8.4624 17.6116 8.40485 17.2072 8.33715C17.2445 8.56627 17.2739 8.7971 17.2977 9.02916L18.2708 9.2572C18.4771 9.32076 18.6556 9.34257 18.83 9.36808ZM18.722 8.0505C18.6796 7.74232 18.626 7.44297 18.5594 7.15423C18.2799 7.08069 17.9938 7.00709 17.7921 7.03032C17.6463 7.04708 17.2426 6.91466 16.831 6.81409C16.929 7.10121 17.0109 7.39205 17.0788 7.68605C17.2247 7.71785 17.3379 7.74351 17.4098 7.76138C17.8524 7.87135 18.2638 7.94817 18.722 8.0505Z" fill="#FFF8F2" fill-opacity="0.8"/>
<path fill-rule="evenodd" clip-rule="evenodd" d="M27.0979 23.4292L27.0029 23.4077C27.0631 23.407 27.1039 23.4117 27.0979 23.4292ZM26.1119 23.7955L25.0891 23.61C24.772 23.6715 24.4735 23.7288 24.168 23.7544L25.3865 24.0079C25.5643 23.971 25.7327 23.9252 25.8878 23.8698C25.9133 23.8612 25.9999 23.8325 26.1119 23.7955ZM21.3817 22.9377L19.5316 22.6023C19.7137 22.7461 19.9119 22.8879 20.1221 23.0232L20.1704 23.0205C20.5824 22.999 20.8285 23.3413 21.6264 23.3561C22.4011 23.3704 21.3453 23.2144 21.9716 23.2975L22.0646 23.3168C21.9683 23.2705 21.8692 23.2201 21.767 23.1651C21.6327 23.0928 21.5045 23.0168 21.3817 22.9377Z" fill="#FFF8F2" fill-opacity="0.8"/>
<path fill-rule="evenodd" clip-rule="evenodd" d="M17.3442 9.59632C17.8394 9.66528 18.1499 9.64287 18.5452 9.87486C18.5695 9.88911 18.5979 9.90885 18.6193 9.92318L18.7585 10.0466C18.7926 10.032 18.8078 10.0906 18.8265 10.1173L18.8585 10.0864C18.8522 9.84678 18.8428 9.60725 18.83 9.36808C18.6556 9.34257 18.4771 9.32076 18.2708 9.2572L17.2977 9.02916C17.3171 9.21737 17.3326 9.40643 17.3442 9.59632ZM17.2072 8.33715C17.6116 8.40485 18.0636 8.4624 18.2244 8.56914C18.1281 8.56203 17.6705 8.45242 17.2064 8.33309L17.2072 8.33715ZM17.1517 8.0272C17.301 8.06251 17.4924 8.0976 17.7418 8.12792C18.0445 8.16469 18.3872 8.22245 18.7539 8.29307C18.7446 8.21119 18.7331 8.13101 18.722 8.0505C18.2638 7.94817 17.8524 7.87135 17.4098 7.76138C17.3379 7.74351 17.2247 7.71785 17.0788 7.68605C17.105 7.79934 17.1296 7.91297 17.1517 8.0272ZM16.831 6.81409C17.2426 6.91466 17.6463 7.04708 17.7921 7.03032C17.9938 7.00709 18.2799 7.08069 18.5594 7.15423C16.7969 -0.490877 6.80853 -1.33373 3.61334 1.47479C6.65614 0.162138 11.4587 1.12638 14.597 3.45477C15.732 4.4808 16.4222 5.61481 16.831 6.81409Z" fill="#FFF8F2" fill-opacity="0.8"/>
<path fill-rule="evenodd" clip-rule="evenodd" d="M18.3306 17.0168C18.4874 17.0547 18.6324 17.0857 18.7786 17.1137C18.7727 16.9782 18.7678 16.8419 18.7644 16.7044L17.1442 16.3455C17.1478 16.8042 17.167 17.2577 17.2105 17.7035C17.2537 17.7093 17.3161 17.7252 17.4188 17.7592L18.4475 17.9805C18.6321 18.0072 18.7532 18.0416 18.8459 18.067C18.8278 17.8881 18.813 17.7068 18.8009 17.5231C18.6676 17.4775 18.5388 17.442 18.4004 17.4155C18.1354 17.3648 18.079 17.3521 17.847 17.3L17.7102 17.238C17.425 17.0825 17.2572 16.9632 17.1767 16.7167L18.3306 17.0168ZM17.1446 15.9391L17.3898 15.9839C17.6185 16.0474 17.9734 16.2938 18.2519 16.1055C18.3049 16.0697 18.3344 16.089 18.3752 16.0787L17.4138 15.7009C17.3983 15.6996 17.3665 15.7013 17.3503 15.6992L17.1499 15.6384C17.1475 15.7388 17.1457 15.839 17.1446 15.939L17.1446 15.9391Z" fill="#FFF8F2" fill-opacity="0.8"/>
<path fill-rule="evenodd" clip-rule="evenodd" d="M16.3465 17.6168L14.9173 17.3222C14.6836 18.8167 13.9981 20.2139 12.9116 21.2916C13.1948 21.3305 13.4911 21.3721 13.7915 21.4176C15.0473 20.4041 15.9846 19.1121 16.3465 17.6168ZM10.9353 14.8989L11.2209 14.867C11.2136 14.8282 11.2059 14.7896 11.1977 14.7513C11.0635 14.7055 10.9102 14.6673 10.7497 14.633C10.812 14.7249 10.8734 14.8139 10.9353 14.8989ZM6.4801 13.7446L5.09122 13.4439L5.08558 17.7109L6.2452 17.802L6.4801 13.7446ZM5.09156 13.1938C5.56497 13.3179 6.00718 13.3736 6.48302 13.472L6.49571 13.4746L6.57869 12.0423C8.91306 12.1192 9.82212 13.2641 10.5005 14.263L11.105 14.3823C10.8272 13.4259 10.2989 12.6381 9.70963 12.1583C8.74697 11.3639 7.85973 11.3888 6.61673 10.8591L6.60901 9.22887C8.90592 9.27023 10.7102 8.83164 12.2715 10.2304C13.8612 11.6554 14.7269 13.4381 14.9491 15.2272C15.2025 15.2656 15.4476 15.2678 15.671 15.1987C16.0056 15.5045 16.1751 15.4694 16.4591 15.4805C16.3117 14.3089 15.8224 13.0528 14.8943 11.7362C13.9467 10.3959 12.9766 9.58468 11.1194 9.07169L11.6745 8.533C11.3587 8.47552 11.0442 8.39783 10.7299 8.31685C9.79404 8.93595 8.34564 8.98131 6.57872 9.01368L6.60033 7.48897C6.22863 7.38998 5.66645 7.27031 5.09543 7.16717L5.08964 8.26744C5.26212 8.30586 5.4297 8.35397 5.57191 8.41022C5.41954 8.44637 5.25589 8.40739 5.0892 8.35475L5.08337 9.46893C5.15481 9.53356 5.13401 9.58923 5.08242 9.64974L5.07777 10.5364C4.73673 11.364 5.10072 10.8178 4.4565 11.3059C4.04725 11.6204 3.96356 11.5377 3.40259 11.8192C1.17435 12.9447 0.446394 14.3677 0.0219546 16.7181C-0.0230603 17.4066 0.00267207 18.0372 0.0851623 18.6172C0.257905 18.6435 0.432671 18.654 0.785206 18.6477L1.04228 18.7005C0.0702611 15.9857 1.02207 12.9484 5.093 12.1087L5.09156 13.1938ZM12.63 21.5562C12.2767 21.8694 11.886 22.1507 11.4597 22.394L12.1084 22.5145C12.5639 22.2748 13.0008 22.0069 13.4082 21.7104L12.63 21.5562ZM11.1836 22.5435C11.0553 22.6095 10.9239 22.6721 10.7896 22.7312C10.8437 22.7464 10.9052 22.7614 10.9756 22.7753L11.1366 22.8002C11.2443 22.8139 11.3431 22.8284 11.4344 22.8434C11.5496 22.7922 11.6634 22.7381 11.7766 22.6832L11.1836 22.5435ZM10.2691 22.9399L10.2387 22.9508L10.2632 22.9591L10.2691 22.9399ZM9.78712 23.0974C9.42522 23.2046 9.06841 23.285 8.71861 23.3369L8.84717 23.3456C8.87096 23.3485 8.90194 23.3509 8.92558 23.3537C8.94907 23.3565 8.9803 23.3592 9.00352 23.3622C9.20046 23.3871 9.26202 23.3949 9.4524 23.4556C9.49165 23.4681 9.52868 23.4811 9.56407 23.4943C9.83489 23.4244 10.1037 23.344 10.3695 23.2551C10.2757 23.2052 10.1003 23.1529 9.78712 23.0974ZM5.68276 23.1216C3.65166 22.5049 2.07198 20.9863 1.27067 19.2575C1.25006 19.2545 1.22959 19.2517 1.20913 19.249C0.868253 19.2046 0.510958 19.1144 0.149126 19.011C0.743794 22.0457 3.05156 23.5215 5.7547 23.807C5.7181 23.4765 5.56161 23.5544 5.84338 23.2705C5.85221 23.2617 5.88559 23.2429 5.89691 23.2216C5.81411 23.1882 5.74447 23.1547 5.68276 23.1216ZM11.8821 5.86109C11.873 6.03166 11.8581 6.19339 11.8367 6.34571C11.958 6.37883 12.0768 6.41414 12.1926 6.45221C12.0655 6.49041 11.9381 6.50806 11.8103 6.50967C11.807 6.52844 11.8036 6.54705 11.8001 6.56558C12.1295 6.64188 12.5364 6.73129 12.9806 6.82655C13.0929 6.59285 13.1813 6.35677 13.2455 6.12089C13.0331 6.04694 12.8391 5.93297 12.662 5.74439C12.3912 5.91722 12.697 5.4098 12.6388 5.82603C12.5037 6.79252 12.8541 5.1417 12.6133 6.0455L11.8821 5.86109ZM11.7114 6.93464C11.631 7.20632 11.5244 7.44145 11.3937 7.64549L12.3126 7.86081C12.5071 7.62378 12.6769 7.3796 12.8197 7.13115C12.678 7.10664 12.5622 7.08895 12.483 7.08021L11.7114 6.93464Z" fill="#FFF8F2" fill-opacity="0.8"/>
<path fill-rule="evenodd" clip-rule="evenodd" d="M13.7915 21.4176C13.4911 21.3721 13.1948 21.3305 12.9116 21.2916C12.8204 21.382 12.7268 21.4705 12.63 21.5562L13.4082 21.7104C13.5388 21.6155 13.6669 21.5181 13.7915 21.4176ZM1.04228 18.7005L0.785206 18.6477C0.432671 18.654 0.257905 18.6435 0.0851623 18.6172C0.104 18.7507 0.124083 18.883 0.149126 19.011C0.510958 19.1144 0.868253 19.2046 1.20913 19.249C1.22959 19.2517 1.25006 19.2545 1.27067 19.2575C1.1856 19.0739 1.10938 18.888 1.04228 18.7005ZM12.1084 22.5145L11.4597 22.394C11.3693 22.4456 11.2771 22.4952 11.1836 22.5435L11.7766 22.6832C11.8885 22.6289 11.9987 22.5722 12.1084 22.5145ZM11.4344 22.8434C11.3431 22.8284 11.2443 22.8139 11.1366 22.8002L10.9756 22.7753C10.9052 22.7614 10.8437 22.7464 10.7896 22.7312C10.7431 22.7518 10.6967 22.7726 10.6495 22.7923C10.5221 22.8452 10.3954 22.8941 10.2691 22.9399L10.2632 22.9591L10.2387 22.9508C10.0873 23.0051 9.93682 23.0531 9.78712 23.0974C10.1003 23.1529 10.2757 23.2052 10.3695 23.2551C10.731 23.1342 11.0875 22.9979 11.4344 22.8434ZM9.56407 23.4943C9.52868 23.4811 9.49165 23.4681 9.4524 23.4556C9.26202 23.3949 9.20046 23.3871 9.00352 23.3622C8.9803 23.3592 8.94907 23.3565 8.92558 23.3537C8.90194 23.3509 8.87096 23.3485 8.84717 23.3456L8.71861 23.3369C7.63316 23.4985 6.61105 23.4036 5.68276 23.1216C5.74447 23.1547 5.81411 23.1882 5.89691 23.2216C5.88559 23.2429 5.85221 23.2617 5.84338 23.2705C5.56161 23.5544 5.7181 23.4765 5.7547 23.807C6.98421 23.937 8.29506 23.822 9.56407 23.4943Z" fill="#FFF8F2" fill-opacity="0.8"/>
<path fill-rule="evenodd" clip-rule="evenodd" d="M5.08242 9.64974C5.13408 9.58925 5.15481 9.53356 5.08337 9.46893L5.08242 9.64974ZM5.0892 8.35475C5.25589 8.40739 5.41954 8.44637 5.57191 8.41022C5.4297 8.35397 5.26212 8.30586 5.08964 8.26744L5.0892 8.35475ZM5.09543 7.16717C5.66645 7.27031 6.22863 7.38998 6.60033 7.48897L6.67718 2.0709C9.64894 1.83091 11.8849 2.21145 11.8923 5.48039C11.8923 5.6124 11.8886 5.73887 11.8821 5.86109L12.6133 6.0455C12.8541 5.1417 12.5037 6.79252 12.6388 5.82603C12.697 5.4098 12.3912 5.91722 12.662 5.74439C12.8391 5.93297 13.0331 6.04694 13.2455 6.12089C13.9381 3.57446 11.7424 1.05435 5.12325 1.85553L5.09543 7.16717ZM10.7299 8.31685C11.0442 8.39783 11.3587 8.47552 11.6745 8.533L11.7334 8.47589C11.946 8.27834 12.1389 8.0724 12.3126 7.86081L11.3937 7.64549C11.2158 7.92302 10.9932 8.14269 10.7299 8.31685ZM11.7114 6.93464L12.483 7.08021C12.5622 7.08895 12.678 7.10664 12.8197 7.13115C12.8777 7.03023 12.9314 6.92859 12.9806 6.82648C12.5365 6.73122 12.1295 6.64181 11.8001 6.56551C11.7753 6.69534 11.7458 6.81849 11.7114 6.93464ZM11.8103 6.50967C11.9381 6.50806 12.0655 6.49041 12.1926 6.45221C12.0768 6.41414 11.958 6.37883 11.8367 6.34571C11.8288 6.40169 11.8199 6.45605 11.8103 6.50967Z" fill="#FFF8F2" fill-opacity="0.8"/>
<path fill-rule="evenodd" clip-rule="evenodd" d="M16.4591 15.4805C16.1751 15.4694 16.0056 15.5045 15.671 15.1987C15.4476 15.2678 15.2025 15.2656 14.9491 15.2272C15.0367 15.9318 15.0244 16.6371 14.9173 17.3222L16.3465 17.6168C16.5093 16.9439 16.554 16.2296 16.4591 15.4805ZM11.105 14.3823L10.5005 14.263C10.5864 14.3895 10.6688 14.5137 10.7497 14.633C10.9102 14.6673 11.0635 14.7055 11.1977 14.7513C11.1711 14.6258 11.14 14.5027 11.105 14.3823ZM6.49571 13.4746L6.48302 13.472C6.00718 13.3736 5.56497 13.3179 5.09156 13.1938L5.09122 13.4439L6.4801 13.7446L6.49571 13.4746ZM11.2209 14.867L10.9353 14.8989C11.0488 15.0548 11.1633 15.1973 11.2859 15.3196C11.2707 15.1659 11.2488 15.0149 11.2209 14.867Z" fill="#FFF8F2" fill-opacity="0.8"/>
</svg>
