<svg width="24" height="24" viewBox="0 0 24 24" fill="none" xmlns="http://www.w3.org/2000/svg">
<rect x="0.479488" y="0.479488" width="23.041" height="23.041" rx="11.5205" stroke="#FFF8F2" stroke-width="0.958976"/>
<path fill-rule="evenodd" clip-rule="evenodd" d="M13.7824 9.5529C13.8852 9.88048 13.4166 10.1937 12.9988 10.5675C12.6436 10.8864 12.3619 11.1571 12.0061 11.4578L10.0196 13.2332C9.54365 13.7365 9.72788 14.014 10.1911 14.346C10.5503 14.6036 10.9688 14.8393 11.352 15.0781C15.5454 17.6975 15.2169 18.1589 16.2343 12.4505C16.3664 11.7059 16.9772 8.31945 16.9385 7.65115C16.8991 6.96034 16.3017 6.99099 15.7036 7.16166C14.0695 7.62865 8.04505 10.0899 6.08987 10.897C4.2495 11.6566 3.04395 12.026 6.11257 12.8044C7.70528 13.2088 7.93558 12.9975 9.02899 12.3055L12.5282 10.1243C12.8185 9.94549 13.4026 9.47413 13.7838 9.5529H13.7824Z" fill="#FFF8F2"/>
</svg>
