<svg width="20" height="15" viewBox="0 0 20 15" fill="none" xmlns="http://www.w3.org/2000/svg">
<path fill-rule="evenodd" clip-rule="evenodd" d="M11.1492 7.50012L17.0565 13.4074C17.3819 13.7328 17.3885 14.2539 17.0712 14.5712C16.7539 14.8885 16.2329 14.8819 15.9074 14.5564L10.0002 8.64917L4.09282 14.5565C3.76739 14.882 3.24634 14.8886 2.92904 14.5713C2.61174 14.254 2.61833 13.7329 2.94377 13.4075L8.85114 7.50012L2.94382 1.5928C2.61838 1.26736 2.61178 0.746321 2.92909 0.429018C3.24639 0.111716 3.76743 0.118311 4.09287 0.443748L10.0002 6.35107L15.9074 0.443865C16.2328 0.118428 16.7539 0.111834 17.0712 0.429136C17.3885 0.746438 17.3819 1.26748 17.0564 1.59292L11.1492 7.50012Z" fill="#FFF8F2"/>
</svg>
