<svg width="24" height="24" viewBox="0 0 24 24" fill="none" xmlns="http://www.w3.org/2000/svg">
<path d="M3.33121 21.4876L2.90587 21.2368C2.77689 21.1607 2.73189 21.0348 2.7176 20.947C2.70345 20.86 2.7115 20.7709 2.72411 20.6954C2.734 20.6362 2.74891 20.5734 2.76711 20.509V20.4966L2.77014 20.4984C2.79863 20.3992 2.83467 20.2967 2.87202 20.1985C2.93634 20.0295 3.01126 19.8563 3.0751 19.71L3.0878 19.6809C3.14811 19.5426 3.19295 19.4398 3.21483 19.3779L3.21486 19.3778L3.71707 17.9578L3.71716 17.9576C3.75974 17.8375 3.79951 17.747 3.82826 17.6815C3.83252 17.6718 3.83654 17.6627 3.84029 17.6541C3.86176 17.6048 3.86915 17.5835 3.87164 17.5753C3.86978 17.5696 3.86597 17.5596 3.85849 17.544C3.83427 17.4934 3.7892 17.4194 3.70469 17.2904L3.7045 17.2901C2.03861 14.7403 1.57566 11.8144 2.40849 8.84379L2.40852 8.84368C2.48387 8.57534 2.61495 8.20485 2.75848 7.85273C2.9005 7.50432 3.06325 7.15263 3.20508 6.93162L3.20534 6.93121C3.22259 6.90445 3.23971 6.87785 3.25674 6.85142C4.13909 5.48128 4.74041 4.54755 6.22616 3.49577L6.22636 3.49563C8.29094 2.03681 10.825 1.40743 13.3283 1.63309L13.3285 1.63311C16.4462 1.91566 19.3857 3.84774 21.0045 6.51356L21.0046 6.51366C22.2249 8.52487 22.6014 11.1805 22.1695 13.6478C21.7375 16.1152 20.4886 18.437 18.4066 19.7466L18.4066 19.7466C17.2759 20.4578 16.3419 21.0062 15.3073 21.3502C14.2666 21.6963 13.1399 21.8309 11.6209 21.7434C11.6209 21.7434 11.6209 21.7434 11.6208 21.7434L11.6371 21.4618C10.0639 21.3718 8.4887 21.0418 7.14949 20.1618L3.33121 21.4876ZM3.33121 21.4876V21.3085M3.33121 21.4876V21.3085M3.33121 21.3085C3.44 21.2972 3.55136 21.2704 3.65404 21.2402C3.76872 21.2065 3.88459 21.1651 3.98844 21.1271C4.00773 21.12 4.02647 21.1131 4.04469 21.1064C4.12804 21.0758 4.20061 21.0491 4.26493 21.0284L3.33121 21.3085ZM8.13287 6.70992L8.07623 6.72568C7.85968 6.78595 7.60607 7.00823 7.37217 7.33453C7.1452 7.65116 6.97544 8.0117 6.90476 8.26403L6.90454 8.2648C6.68022 9.05693 6.84307 9.91868 7.16087 10.6287C7.78925 12.027 9.33705 13.8238 10.5468 14.8114L10.547 14.8115C11.1891 15.3366 12.1089 15.926 12.8874 16.1708C12.9238 16.1822 12.9539 16.189 12.9945 16.1981C13.0026 16.1999 13.0111 16.2018 13.0201 16.2038C13.0731 16.2159 13.1375 16.2316 13.2131 16.2616C13.2132 16.2616 13.2133 16.2616 13.2134 16.2617L13.1094 16.5239C13.213 16.5648 13.2845 16.5985 13.3553 16.6319L8.13287 6.70992ZM8.13287 6.70992C8.19069 6.70049 8.26607 6.69579 8.35923 6.69525C8.43517 6.69481 8.50083 6.69661 8.5692 6.69849C8.62259 6.69996 8.67762 6.70147 8.74048 6.70199L8.74087 6.70199C8.89198 6.70304 8.9461 6.70939 8.977 6.7195L8.97797 6.71982C8.98664 6.72262 9.00112 6.72729 9.03323 6.76412L9.5151 7.78286C9.61497 8.08402 9.71962 8.32976 9.80962 8.53527C9.82069 8.56055 9.83142 8.58498 9.84181 8.60862C9.91998 8.78652 9.97881 8.9204 10.017 9.04286C10.0579 9.1742 10.0669 9.26918 10.0507 9.35856C10.0343 9.44964 9.98645 9.56312 9.86623 9.72038L8.13287 6.70992ZM17.9119 14.6535L17.9119 14.6529C17.9113 14.6175 17.9017 14.5725 17.7821 14.4935C17.6802 14.4262 17.5498 14.3672 17.3789 14.2899C17.3284 14.2671 17.2744 14.2427 17.2165 14.216L17.2162 14.2158C17.0609 14.1439 16.9282 14.0773 16.8021 14.0141C16.6046 13.915 16.4235 13.8242 16.1974 13.7338C16.1124 13.7 16.0161 13.6483 15.9312 13.6028L15.9195 13.5965C15.8246 13.5456 15.7329 13.4968 15.6421 13.4572C15.4476 13.3725 15.3569 13.3762 15.3196 13.3931C15.3168 13.3956 15.3118 13.4 15.3045 13.4071C15.287 13.424 15.2644 13.4482 15.2368 13.4798C15.1817 13.5428 15.1168 13.6241 15.049 13.7115C15.0014 13.7731 14.9505 13.8404 14.9017 13.9049C14.8208 14.0118 14.7458 14.1109 14.7017 14.1627C14.666 14.2047 14.6316 14.2456 14.5985 14.2849C14.498 14.4043 14.4094 14.5096 14.3312 14.5897C14.2243 14.6992 14.0991 14.8032 13.9307 14.8446C13.763 14.8857 13.5996 14.8534 13.4416 14.8018C13.2844 14.7505 13.0907 14.6652 12.8523 14.5599L12.8519 14.5597C11.5959 14.003 10.5665 13.056 9.74636 11.9743L9.7462 11.9741C9.51724 11.6716 9.35636 11.432 9.26294 11.2302C9.16657 11.0221 9.12766 10.8233 9.18651 10.6213C9.23986 10.4381 9.36467 10.2935 9.47303 10.1735C9.49833 10.1455 9.52413 10.1174 9.55046 10.0888C9.64738 9.98333 9.75165 9.8699 9.8662 9.72042L17.9119 14.6535ZM17.9119 14.6535C17.9142 14.7658 17.8791 14.9815 17.8214 15.2167C17.7644 15.4494 17.6971 15.6536 17.6542 15.7419L17.9119 14.6535ZM0.917648 22.1L0.918768 22.1007L0.411973 23.6271C0.549145 23.585 0.708664 23.5318 0.877073 23.4733C1.12553 23.3872 1.39759 23.2879 1.63082 23.2028C1.87186 23.1149 2.07141 23.0421 2.16058 23.0145C2.16076 23.0145 2.16094 23.0144 2.16112 23.0143L5.56258 21.9487L5.56317 21.9485C5.63607 21.9258 5.71021 21.8976 5.79487 21.8653C5.80638 21.8609 5.81808 21.8565 5.83001 21.8519C5.9253 21.8157 6.03304 21.7757 6.14397 21.7458C6.36749 21.6855 6.64039 21.6562 6.91499 21.7968L6.91543 21.797C8.40627 22.5636 9.80516 22.9903 11.469 23.0701L11.4692 23.0701C17.1725 23.3459 22.1003 19.7346 23.3756 14.4932C24.17 11.2267 23.5698 7.89085 21.7026 5.23832C21.3265 4.70522 20.8463 4.13111 20.3749 3.65188C19.4452 2.70857 18.139 1.82345 16.9365 1.27025L16.9364 1.27021C15.4519 0.586604 13.7331 0.280117 12.0571 0.28206C12.057 0.28206 12.057 0.282061 12.0569 0.282061L0.917648 22.1ZM0.917648 22.1C1.12735 21.4683 1.3502 20.8297 1.57513 20.1856L1.58334 20.162C1.80561 19.5255 2.02976 18.8836 2.24366 18.2413M0.917648 22.1L12.0569 0.282061C9.78886 0.286003 7.0943 1.18411 5.47201 2.45597C4.34458 3.34079 3.3565 4.19296 2.60997 5.41134L2.60994 5.41137C1.19169 7.7252 0.618903 9.65828 0.733208 12.3258L0.733214 12.326C0.764707 13.0696 0.935304 14.1844 1.13606 14.8256L1.1361 14.8257C1.38629 15.6262 1.45202 15.765 1.61569 16.1108C1.69901 16.2868 1.80772 16.5164 1.97908 16.9143M2.24366 18.2413C2.24361 18.2415 2.24357 18.2416 2.24353 18.2417L1.97618 18.1519L2.24378 18.241C2.24374 18.2411 2.2437 18.2412 2.24366 18.2413ZM2.24366 18.2413C2.36224 17.8884 2.35561 17.6401 2.25377 17.4085C2.21502 17.3204 2.16366 17.2389 2.12183 17.1725C2.11681 17.1645 2.11192 17.1567 2.1072 17.1492C2.06007 17.0739 2.01716 17.0023 1.97908 16.9143M1.97908 16.9143C1.97903 16.9142 1.97899 16.9141 1.97894 16.914L1.72004 17.0259L1.97908 16.9143ZM3.87328 17.5814C3.87324 17.5813 3.87311 17.5808 3.87298 17.5798L3.87328 17.5814Z" fill="#FFF8F2" stroke="black" stroke-width="0.564103"/>
</svg>
