<svg width="24" height="24" viewBox="0 0 24 24" fill="none" xmlns="http://www.w3.org/2000/svg">
<path fill-rule="evenodd" clip-rule="evenodd" d="M0 12C0 5.38292 5.38292 0 12 0C18.6171 0 24 5.38292 24 12C24 18.6171 18.6171 24 12 24C9.82082 24.0021 7.68242 23.4092 5.81538 22.2854L1.05877 23.7485C0.899077 23.7974 0.723692 23.7558 0.602308 23.6391C0.542756 23.5818 0.499752 23.5095 0.477822 23.4298C0.455892 23.3501 0.455847 23.266 0.477692 23.1863C0.478657 23.1829 0.488877 23.1455 0.506948 23.0794C0.661744 22.513 1.39263 19.8387 1.81708 18.3517C0.627231 16.4488 0 14.2574 0 12ZM6.12415 21.3918C7.88534 22.4949 9.92189 23.079 12 23.0769C18.1075 23.0769 23.0769 18.1075 23.0769 12C23.0769 5.89246 18.1075 0.923077 12 0.923077C5.89246 0.923077 0.923077 5.89246 0.923077 12C0.920126 14.1395 1.53925 16.2337 2.70508 18.0277C2.77754 18.1398 2.79831 18.2783 2.76138 18.4066C2.36421 19.8094 1.97375 21.214 1.59 22.6205L5.74338 21.342C5.80671 21.3225 5.8735 21.3168 5.9392 21.3254C6.0049 21.334 6.06798 21.3567 6.12415 21.3918ZM13.0385 14.0867L14.0184 13.3066C14.4273 12.8977 15.091 12.8977 15.4998 13.3066L16.6934 14.2233C17.1022 14.6322 17.1022 15.2958 16.6934 15.7047L16.2148 16.2547C15.7097 16.7607 15.0442 17 14.3814 17C10.9768 17 6 12.2854 6 8.61857C6 7.95579 6.23926 7.29026 6.74528 6.78516L7.2953 6.30664C7.70415 5.89779 8.36785 5.89779 8.7767 6.30664L9.6934 7.50019C10.1023 7.90904 10.1023 8.57273 9.6934 8.98158L8.91329 9.96154C9.73924 12.0186 11.14 13.3616 13.0385 14.0867Z" fill="white"/>
</svg>
