<svg width="110" height="58" viewBox="0 0 110 58" fill="none" xmlns="http://www.w3.org/2000/svg">
<path d="M15.2507 23.2788C15.5355 24.8939 14.849 26.6058 13.1912 28.4145C11.4987 30.2563 9.52974 31.3752 7.28438 31.7712C6.48341 31.9124 5.62876 31.9412 4.72046 31.8577C3.30084 31.7154 2.52389 31.2634 2.38961 30.5019C2.33867 30.213 2.58779 30.0133 3.13697 29.903C4.52651 29.6444 5.67848 29.8813 6.59288 30.6137C6.59982 30.6531 6.5836 30.6762 6.54421 30.6832C5.51471 30.0659 4.52726 29.8406 3.58184 30.0073C3.14853 30.0837 2.9666 30.3189 3.03606 30.7128C3.09163 31.0279 3.47546 31.2852 4.18757 31.4846C5.058 31.7373 6.07098 31.7617 7.22648 31.558C8.59208 31.3172 9.90058 30.7141 11.152 29.7488C12.3099 28.8677 13.2187 27.841 13.8785 26.6686C14.5383 25.4962 14.7883 24.457 14.6285 23.551C14.478 22.6975 14.0904 22.0347 13.4656 21.5627C12.5628 20.896 11.2448 20.7155 9.51149 21.0211C8.51355 21.1971 7.6666 21.4615 6.97064 21.8144C6.88335 21.8568 6.82658 21.8804 6.80032 21.885C6.7478 21.8943 6.71922 21.8858 6.71459 21.8595C6.70301 21.7939 6.77679 21.7132 6.93591 21.6174C7.9146 21.0251 8.77782 20.3923 9.52558 19.7189C10.9408 18.4539 11.5615 17.329 11.3879 16.3442C11.3161 15.9372 11.0045 15.7823 10.453 15.8795C9.52068 16.0439 8.45544 16.9899 7.25724 18.7176C6.18032 20.2884 5.26751 22.0605 4.5188 24.0339C3.7639 26.0489 3.46015 27.5511 3.60753 28.5406C3.61908 28.8364 3.48698 29.0086 3.21123 29.0572C3.01427 29.092 2.89958 29.0174 2.86717 28.8336C2.7514 28.177 3.06518 26.8084 3.8085 24.7277C4.62445 22.4447 5.58247 20.4683 6.68258 18.7986C8.05306 16.7427 9.39484 15.599 10.7079 15.3675C11.0887 15.3003 11.4081 15.3456 11.666 15.5032C11.88 15.6414 12.0055 15.8156 12.0425 16.0257C12.237 17.1287 11.0805 18.7474 8.57307 20.882C8.58002 20.9213 8.64914 20.9295 8.78045 20.9063C8.80671 20.9017 8.98166 20.8573 9.3053 20.7732C9.62662 20.6759 9.92516 20.6029 10.2009 20.5543C11.2908 20.3621 12.2524 20.4024 13.0857 20.6752C14.2952 21.0847 15.0169 21.9526 15.2507 23.2788ZM21.0329 26.4631C21.0445 26.5288 20.9645 26.6512 20.7931 26.8303L18.4292 29.3186C18.5812 30.3343 18.3459 31.7636 17.7231 33.6064C17.1474 35.3326 16.4146 36.8969 15.5246 38.2994C14.5805 39.7792 13.7725 40.5715 13.1005 40.6765C12.8773 40.7159 12.673 40.6706 12.4877 40.5409C12.3023 40.4111 12.1888 40.228 12.1471 39.9916C11.9758 39.02 12.3409 37.6355 13.2426 35.8383C13.9402 34.4968 14.8464 33.0711 15.9612 31.5613C16.9484 30.2499 17.5209 29.5803 17.6784 29.5526C17.6645 29.4738 17.6321 29.405 17.5811 29.3463C17.3394 29.0505 17.0544 28.9315 16.7262 28.9894C16.5949 29.0125 16.4551 29.0642 16.3068 29.1445C16.0101 29.3052 15.829 29.3913 15.7633 29.4028C15.724 29.4098 15.6931 29.3881 15.6707 29.3379C15.6475 29.2066 15.758 29.0653 16.0021 28.9139C16.3898 28.656 16.834 28.2189 17.3346 27.6026C17.9217 26.8628 18.1817 26.3024 18.1146 25.9217C18.0752 25.6984 17.9505 25.6053 17.7404 25.6424C17.5566 25.6748 17.1931 25.9555 16.6501 26.4845C16.2267 26.9247 15.8034 27.3649 15.3801 27.8051C15.3476 27.8514 15.3117 27.8781 15.2723 27.885C15.2461 27.8897 15.2202 27.8198 15.1947 27.6753C15.2295 27.6421 15.4346 27.4232 15.81 27.0185C16.1831 26.6007 16.5617 26.1752 16.9456 25.7419C17.3403 25.2932 17.7215 25.0365 18.0892 24.9716C18.5619 24.8883 18.8423 25.0961 18.9302 25.5951C19.0367 26.1991 18.4044 27.1432 17.0333 28.4275C16.9576 28.5356 16.9232 28.6094 16.9301 28.6488C16.9394 28.7013 16.99 28.7194 17.0819 28.7032C17.6596 28.6014 18.0705 28.7049 18.3146 29.0139C18.5865 28.79 19.0044 28.3575 19.5683 27.7165C20.089 27.1373 20.5169 26.7233 20.8522 26.4747C20.8846 26.4283 20.9206 26.4017 20.9599 26.3947C20.9993 26.3878 21.0237 26.4106 21.0329 26.4631ZM17.8499 29.9488C17.8406 29.8963 17.8294 29.8712 17.8163 29.8735C17.5274 29.9244 16.9353 30.5975 16.0399 31.8926C15.0881 33.2519 14.2997 34.6162 13.6747 35.9855C12.9252 37.6476 12.6235 38.8922 12.7693 39.7195C12.8226 40.0215 12.9477 40.1551 13.1446 40.1204C13.5386 40.0509 14.16 39.3524 15.0091 38.0248C15.8604 36.7103 16.5643 35.3271 17.1206 33.8751C17.7711 32.1899 18.0142 30.8811 17.8499 29.9488ZM24.0472 27.4954C23.8247 27.6158 23.6065 27.722 23.3926 27.8139C23.1917 27.9035 22.9994 27.9645 22.8156 27.9969C22.6449 28.027 22.4881 28.0208 22.3452 27.9783C22.2154 27.9334 22.1158 27.8292 22.0463 27.6654C21.9838 27.541 21.9942 27.37 22.0777 27.1522C22.1719 26.9189 22.2979 26.6733 22.4555 26.4154C22.6131 26.1574 22.7772 25.8983 22.948 25.638C23.1295 25.3623 23.2829 25.1187 23.408 24.907C23.544 24.68 23.6344 24.5016 23.6792 24.3718C23.7348 24.2266 23.7012 24.1513 23.5784 24.1459C23.4989 24.0787 23.3656 24.1293 23.1787 24.2976C23.0049 24.4636 22.7998 24.6826 22.5634 24.9544C22.327 25.2263 22.0733 25.5147 21.8021 25.8198C21.5441 26.1225 21.2965 26.3693 21.0594 26.56L21.0397 26.5635C21.0134 26.5681 20.9825 26.5465 20.947 26.4986C20.9246 26.4484 20.9111 26.4101 20.9065 26.3839C21.1846 26.1182 21.47 25.8174 21.7628 25.4815C22.0555 25.1455 22.3309 24.8262 22.589 24.5234C22.8601 24.2184 23.0988 23.9597 23.3051 23.7473C23.5113 23.5349 23.6735 23.4183 23.7917 23.3975C23.9447 23.3434 24.0775 23.3674 24.1903 23.4694C24.3138 23.5559 24.3968 23.6428 24.4393 23.7301C24.5181 23.9464 24.481 24.1966 24.328 24.4808C24.1881 24.7627 23.9363 25.1388 23.5724 25.6092C23.3839 25.8455 23.2186 26.098 23.0765 26.3668C22.932 26.6224 22.8366 26.8491 22.7902 27.0468C22.7415 27.2314 22.7593 27.3705 22.8434 27.4639C22.9253 27.5443 23.0995 27.5339 23.366 27.4327C23.6417 27.3841 23.8866 27.3138 24.1005 27.222C24.3122 27.1169 24.5203 26.9922 24.725 26.8478C24.9406 26.688 25.1657 26.5061 25.4006 26.3022C25.6462 26.0829 25.9343 25.8358 26.265 25.5609C26.2889 25.5431 26.3063 25.5265 26.3171 25.5111C26.3279 25.4956 26.3465 25.4856 26.3727 25.4809C26.3858 25.4786 26.4005 25.5234 26.4167 25.6153C26.4306 25.6941 26.4059 25.7459 26.3426 25.7706C26.0884 26.0185 25.8798 26.2177 25.7168 26.3683C25.5539 26.5189 25.394 26.6487 25.2371 26.7575C25.0935 26.8641 24.9301 26.9741 24.747 27.0877C24.5748 27.1857 24.3415 27.3216 24.0472 27.4954ZM26.9234 26.4805C27.0285 26.462 27.2683 26.3249 27.6429 26.0693C28.3049 25.6006 28.87 25.0812 29.3381 24.5113C29.8171 23.9259 30.2084 23.3424 30.512 22.7608C30.6742 22.5292 30.8013 22.4052 30.8932 22.389C31.0639 22.3589 31.1643 22.4292 31.1944 22.5999C31.213 22.7049 31.1878 22.8312 31.1191 22.9787C30.5396 24.2994 30.2811 25.137 30.3436 25.4916C30.4015 25.8198 30.5815 25.9573 30.8835 25.9041C31.3431 25.8231 32.1039 25.2624 33.1661 24.2222C33.1877 24.1913 33.2387 24.1349 33.319 24.053C33.4125 23.9689 33.4789 23.9233 33.5183 23.9164C33.5577 23.9094 33.5821 23.9322 33.5913 23.9847C33.6052 24.0635 33.5253 24.1859 33.3514 24.352C31.9154 25.7289 30.9216 26.466 30.3701 26.5632C30.0025 26.6281 29.7816 26.4504 29.7075 26.0302C29.6844 25.8989 29.6732 25.7587 29.674 25.6096C29.6856 25.4451 29.7007 25.3003 29.7192 25.1752C29.7509 25.0478 29.7729 24.9423 29.7853 24.8589C29.8108 24.7732 29.8247 24.7369 29.827 24.75C29.8178 24.6975 29.7934 24.6747 29.754 24.6816C29.6884 24.6932 29.5644 24.7963 29.3821 24.9909C29.2129 25.1832 28.9217 25.4512 28.5084 25.7949C28.3037 25.9393 28.1187 26.0802 27.9534 26.2177C27.7881 26.3551 27.6282 26.4849 27.4737 26.6069C27.3192 26.7289 27.1678 26.83 27.0195 26.9104C26.8712 26.9907 26.7105 27.0393 26.5375 27.0563C26.3514 27.0755 26.1803 27.0651 26.0243 27.0249C25.8528 26.9739 25.7451 26.8237 25.7011 26.5742C25.6756 26.4297 25.693 26.2981 25.7533 26.1791C25.8004 26.0625 25.8634 25.9972 25.9422 25.9833C26.0078 25.9718 26.0661 25.9953 26.1171 26.054C26.1681 26.1128 26.2279 26.1834 26.2966 26.2661C26.3631 26.3356 26.4349 26.3974 26.5121 26.4515C26.5893 26.5056 26.6871 26.5222 26.8052 26.5013L26.9234 26.4805ZM37.2437 22.9752C37.4059 22.7435 37.533 22.6195 37.6249 22.6033C37.7956 22.5732 37.896 22.6435 37.9261 22.8142C37.9446 22.9193 37.9195 23.0455 37.8507 23.1931C37.7348 23.4572 37.6406 23.6904 37.568 23.8928C37.493 24.082 37.4528 24.238 37.4474 24.3608C37.442 24.4836 37.4844 24.5709 37.5748 24.6227C37.6652 24.6745 37.822 24.6807 38.0452 24.6413C38.5048 24.5603 39.2656 23.9996 40.3278 22.9594C40.3494 22.9285 40.4004 22.8721 40.4807 22.7902C40.5742 22.7061 40.6407 22.6605 40.68 22.6536C40.7194 22.6466 40.7438 22.6694 40.753 22.7219C40.7669 22.8007 40.687 22.9231 40.5131 23.0892C39.0771 24.4661 38.0833 25.2032 37.5318 25.3004C37.1642 25.3653 36.9433 25.1876 36.8692 24.7674C36.8368 24.5836 36.8318 24.4017 36.8542 24.2217C36.8767 24.0418 36.9049 23.8946 36.9389 23.7803C36.847 23.7965 36.7539 23.8062 36.6596 23.8092C36.5785 23.81 36.4909 23.8119 36.3967 23.815C36.1904 24.0274 35.9525 24.2521 35.6829 24.4892C35.411 24.7131 35.1367 24.924 34.8602 25.1217C34.5837 25.3193 34.3156 25.4885 34.0561 25.629C33.8074 25.7541 33.5965 25.8251 33.4235 25.8421C33.2373 25.8614 33.0663 25.8509 32.9102 25.8107C32.7388 25.7597 32.6311 25.6095 32.5871 25.36C32.5616 25.2156 32.579 25.0839 32.6393 24.9649C32.6864 24.8483 32.7493 24.7831 32.8281 24.7692C32.8938 24.7576 32.9521 24.7812 33.0031 24.8399C33.054 24.8986 33.1139 24.9693 33.1826 25.0519C33.249 25.1214 33.3208 25.1832 33.3981 25.2373C33.4753 25.2914 33.573 25.308 33.6912 25.2872L33.8094 25.2663C33.8488 25.2594 33.9241 25.2258 34.0353 25.1656C34.1597 25.103 34.3242 24.9995 34.5289 24.8551C34.8294 24.6397 35.1017 24.4563 35.3458 24.3049C35.5875 24.1404 35.8073 23.9663 36.0051 23.7825C35.7463 23.774 35.4949 23.7303 35.2508 23.6515C34.9079 23.5495 34.7191 23.2849 34.6844 22.8578C34.6597 22.5643 34.7362 22.3071 34.9139 22.0862C35.0916 21.8653 35.3048 21.6924 35.5535 21.5673C35.8154 21.4399 36.0811 21.3727 36.3507 21.3658C36.631 21.3434 36.8573 21.3983 37.0295 21.5304C37.1995 21.6494 37.2879 21.8436 37.2948 22.1132C37.3148 22.3804 37.1889 22.7411 36.9169 23.1952C36.8845 23.2416 36.8466 23.2956 36.8034 23.3574C36.7709 23.4038 36.7253 23.4524 36.6666 23.5034L37.0188 23.5428C37.0273 23.5142 37.0467 23.4702 37.0768 23.4108C37.1046 23.3382 37.1336 23.2721 37.1637 23.2127C37.1915 23.1401 37.2151 23.0817 37.2344 23.0377C37.2537 22.9937 37.2568 22.9728 37.2437 22.9752ZM36.8035 22.6669C36.8313 22.5943 36.8537 22.5294 36.8707 22.4723C36.9008 22.4128 36.9232 22.3479 36.9379 22.2777C36.9588 22.1657 36.9588 22.0506 36.938 21.9324C36.9303 21.8119 36.8712 21.7072 36.7607 21.6184C36.6194 21.5079 36.4178 21.5164 36.156 21.6438C35.9049 21.7558 35.6906 21.9222 35.5129 22.1431C35.3352 22.3639 35.2355 22.6049 35.2139 22.866C35.203 23.1116 35.3583 23.3008 35.6796 23.4337L36.2982 23.4871C36.3871 23.3767 36.4736 23.2531 36.5578 23.1164C36.642 22.9797 36.7239 22.8299 36.8035 22.6669ZM42.3162 23.8273C42.2861 23.8867 42.2463 23.9682 42.1968 24.0717C42.1451 24.1621 42.0933 24.2524 42.0416 24.3428C42.0052 24.444 41.9655 24.5254 41.9222 24.5872C41.8812 24.6621 41.8476 24.7019 41.8214 24.7066C41.6507 24.7367 41.5491 24.6598 41.5167 24.476C41.5051 24.4103 41.5279 24.2709 41.5851 24.0577C41.7033 23.8067 41.8227 23.5623 41.9432 23.3244C42.0637 23.0865 42.1765 22.8432 42.2816 22.5945C42.6254 21.857 42.773 21.3503 42.7244 21.0746C42.7036 20.9564 42.6538 20.9042 42.575 20.9181C42.5225 20.9274 42.4483 20.9676 42.3525 21.0386C42.0551 21.3483 41.7013 21.7221 41.2911 22.1599C40.894 22.5955 40.4209 23.0986 39.8717 23.6694L39.7338 23.6937C39.6419 23.7099 39.5936 23.7049 39.589 23.6786C39.5843 23.6523 39.645 23.5739 39.7709 23.4434C40.1656 22.9947 40.5789 22.536 41.0108 22.0672C41.4534 21.583 41.92 21.081 42.4105 20.5613C42.5318 20.4045 42.7237 20.303 42.9864 20.2567C43.249 20.2103 43.4011 20.3054 43.4428 20.5417C43.4891 20.8043 43.3728 21.2581 43.0939 21.903C43.0769 21.9601 43.0533 22.0185 43.0232 22.0779C42.9907 22.1243 42.966 22.176 42.949 22.2332C43.0541 22.2146 43.1788 22.1926 43.3232 22.1672C43.4677 22.1417 43.6307 22.1062 43.8122 22.0607C44.1227 21.9788 44.3919 21.9314 44.6197 21.9183C44.656 21.8171 44.6923 21.7159 44.7287 21.6147C44.765 21.5136 44.8067 21.4047 44.8538 21.288C44.9589 21.0393 45.0609 20.8115 45.1598 20.6045C45.2718 20.3952 45.3873 20.2056 45.5063 20.0357C45.5774 19.9013 45.7114 19.8168 45.9083 19.782C46.018 19.7898 46.0763 19.8133 46.0833 19.8527C46.0833 19.8527 45.9206 20.2741 45.5953 21.1167C45.2701 21.9593 45.1375 22.5513 45.1977 22.8927C45.2695 23.2998 45.4826 23.472 45.8372 23.4095C46.2836 23.3308 46.8653 22.8288 47.5822 21.9036C47.6146 21.8573 47.6505 21.8306 47.6899 21.8237C47.7293 21.8167 47.7537 21.8395 47.7629 21.8921C47.7768 21.9708 47.6687 22.1253 47.4385 22.3554C47.0831 22.7972 46.7521 23.1466 46.4454 23.4038C46.1364 23.6478 45.8309 23.7965 45.5289 23.8497C44.938 23.9539 44.5986 23.7565 44.5106 23.2576C44.4527 22.9293 44.4659 22.5817 44.5502 22.2149C44.3903 22.2295 44.1987 22.2565 43.9755 22.2959C43.7654 22.3329 43.5314 22.3877 43.2734 22.4603C43.0919 22.5058 42.9748 22.5332 42.9223 22.5425C42.8698 22.5518 42.8304 22.5587 42.8041 22.5633C42.6666 22.8584 42.5465 23.1368 42.4437 23.3986C42.3541 23.6581 42.3116 23.801 42.3162 23.8273ZM54.2548 20.6052C54.2687 20.684 54.1887 20.8064 54.0149 20.9724C52.592 22.3471 51.5982 23.0842 51.0336 23.1837C50.666 23.2486 50.4451 23.0709 50.371 22.6507C50.3293 22.4143 50.3336 22.1699 50.3838 21.9173C50.4573 21.5659 50.4928 21.3836 50.4905 21.3705C50.4812 21.318 50.4569 21.2952 50.4175 21.3021C50.4044 21.3044 50.3739 21.3234 50.326 21.3589C50.088 21.6987 49.7292 22.1208 49.2495 22.625C48.6331 23.2753 48.187 23.6247 47.9112 23.6734C47.5961 23.7289 47.4107 23.5991 47.3551 23.284C47.3227 23.1002 47.4634 22.5541 47.7771 21.6459C48.0885 20.7244 48.2326 20.1981 48.2095 20.0668C48.184 19.9223 48.0531 19.871 47.8167 19.9126C47.7642 19.9219 47.7241 19.8477 47.6963 19.6902C47.8075 19.6299 47.9288 19.5883 48.0601 19.5651C48.5197 19.4841 48.7726 19.5749 48.8189 19.8375C48.8698 20.1263 48.752 20.6481 48.4653 21.4027C48.1787 22.1572 48.0504 22.6199 48.0805 22.7906C48.099 22.8956 48.1542 22.94 48.2461 22.9238C48.4562 22.8868 48.907 22.4485 49.5984 21.609C50.3029 20.7672 50.8286 20.0247 51.1755 19.3813C51.3377 19.1496 51.4648 19.0257 51.5567 19.0095C51.7274 18.9794 51.8278 19.0497 51.8579 19.2204C51.8741 19.3123 51.849 19.4386 51.7826 19.5992C51.2031 20.9199 50.9446 21.7575 51.0071 22.112C51.065 22.4403 51.2449 22.5778 51.547 22.5246C52.0065 22.4435 52.7674 21.8829 53.8296 20.8426C53.886 20.7786 53.9675 20.7033 54.0741 20.6168C54.1065 20.5704 54.1424 20.5438 54.1818 20.5368C54.2212 20.5299 54.2455 20.5527 54.2548 20.6052ZM59.6465 20.7715C59.6164 20.8309 59.5766 20.9124 59.5272 21.0159C59.4754 21.1063 59.4236 21.1966 59.3719 21.287C59.3356 21.3882 59.2958 21.4696 59.2525 21.5314C59.2116 21.6063 59.178 21.6461 59.1517 21.6508C58.981 21.6808 58.8794 21.604 58.847 21.4202C58.8354 21.3545 58.8582 21.2151 58.9154 21.0019C59.0336 20.7509 59.153 20.5065 59.2735 20.2686C59.3941 20.0307 59.5069 19.7874 59.6119 19.5387C59.9557 18.8012 60.1033 18.2945 60.0547 18.0188C60.0339 17.9006 59.9841 17.8484 59.9053 17.8623C59.8528 17.8716 59.7786 17.9118 59.6828 17.9828C59.3854 18.2925 59.0316 18.6663 58.6214 19.1041C58.2244 19.5397 57.7512 20.0428 57.202 20.6136L57.0641 20.6379C56.9722 20.6541 56.9239 20.6491 56.9193 20.6228C56.9146 20.5965 56.9753 20.5181 57.1012 20.3876C57.4959 19.9389 57.9092 19.4802 58.3411 19.0114C58.7837 18.5272 59.2503 18.0252 59.7408 17.5055C59.8621 17.3487 60.0541 17.2472 60.3167 17.2008C60.5793 17.1545 60.7314 17.2496 60.7731 17.4859C60.8194 17.7485 60.7031 18.2023 60.4242 18.8472C60.4072 18.9043 60.3836 18.9627 60.3535 19.0221C60.321 19.0685 60.2963 19.1202 60.2793 19.1774C60.3844 19.1588 60.5091 19.1368 60.6535 19.1114C60.798 19.0859 60.961 19.0504 61.1425 19.0049C61.453 18.923 61.7222 18.8756 61.95 18.8625C61.9863 18.7613 62.0227 18.6601 62.059 18.5589C62.0953 18.4578 62.137 18.3489 62.1841 18.2322C62.2892 17.9835 62.3912 17.7557 62.4901 17.5487C62.6021 17.3394 62.7176 17.1498 62.8366 16.9799C62.9077 16.8455 63.0417 16.761 63.2386 16.7262C63.3483 16.734 63.4066 16.7575 63.4136 16.7969C63.4136 16.7969 63.2509 17.2183 62.9256 18.0609C62.6004 18.9035 62.4678 19.4955 62.528 19.8369C62.5998 20.244 62.8129 20.4162 63.1675 20.3537C63.6139 20.275 64.1956 19.773 64.9125 18.8478C64.9449 18.8015 64.9809 18.7748 65.0202 18.7679C65.0596 18.7609 65.084 18.7837 65.0932 18.8363C65.1071 18.915 64.999 19.0695 64.7688 19.2996C64.4134 19.7414 64.0824 20.0908 63.7757 20.348C63.4667 20.592 63.1612 20.7407 62.8592 20.7939C62.2683 20.8981 61.9289 20.7007 61.8409 20.2018C61.783 19.8735 61.7962 19.5259 61.8805 19.159C61.7206 19.1737 61.529 19.2007 61.3058 19.2401C61.0957 19.2771 60.8617 19.3319 60.6037 19.4045C60.4222 19.45 60.3052 19.4774 60.2526 19.4867C60.2001 19.496 60.1607 19.5029 60.1345 19.5075C59.9969 19.8026 59.8768 20.081 59.774 20.3428C59.6844 20.6023 59.6419 20.7452 59.6465 20.7715ZM71.3488 17.5911C71.3765 17.7486 71.0227 18.1224 70.2873 18.7124C69.5172 19.3356 68.9483 19.6796 68.5806 19.7445C67.8978 19.8649 67.4928 19.564 67.3654 18.8418C67.3307 18.6448 67.3964 18.4031 67.5625 18.1165C67.5602 18.1034 67.5524 18.098 67.5393 18.1003C67.5524 18.098 67.2465 18.4363 66.6216 19.1151C65.9943 19.7808 65.5231 20.1414 65.208 20.197C64.906 20.2503 64.733 20.1521 64.689 19.9027C64.5825 19.2986 64.9641 18.507 65.834 17.5277C66.6559 16.584 67.3361 16.0647 67.8744 15.9698C67.9555 15.969 68.049 15.9999 68.1548 16.0625C68.2714 16.1096 68.3332 16.1529 68.3401 16.1923C68.3425 16.2054 68.3382 16.2197 68.3274 16.2351C67.5921 16.3648 66.7539 17.1015 65.813 18.4453C65.5102 18.8778 65.3807 19.2188 65.4247 19.4683C65.4409 19.5602 65.495 19.5981 65.5869 19.5819C65.8758 19.5309 66.3682 19.0988 67.0643 18.2856C67.6236 17.6184 68.0121 17.0963 68.23 16.7194C68.3335 16.5387 68.4116 16.4437 68.4641 16.4344C68.5954 16.4113 68.6772 16.4916 68.7097 16.6754C68.7212 16.7411 68.6625 16.9071 68.5335 17.1736C68.1055 18.0479 67.91 18.5901 67.947 18.8001C68.0119 19.1678 68.2478 19.3158 68.6549 19.244C69.3245 19.1259 70.1622 18.5788 71.168 17.6026C71.2005 17.5563 71.2364 17.5297 71.2758 17.5227C71.3152 17.5158 71.3395 17.5386 71.3488 17.5911ZM79.8432 15.6262C79.9683 15.4146 80.1236 15.1435 80.309 14.8129C80.5076 14.4801 80.6887 14.1638 80.8525 13.8641C80.9568 13.7645 81.0715 13.724 81.1966 13.7425C81.3218 13.7611 81.3638 13.8078 81.3229 13.8827C81.0332 14.5431 80.8369 15.1193 80.7341 15.6112C80.6313 16.1032 80.5961 16.4412 80.6285 16.625C80.6864 16.9533 80.8664 17.0908 81.1684 17.0375C81.6279 16.9565 82.3888 16.3958 83.451 15.3556C83.4726 15.3247 83.5236 15.2683 83.6039 15.1865C83.6974 15.1023 83.7638 15.0567 83.8032 15.0498C83.8426 15.0428 83.867 15.0656 83.8762 15.1181C83.8901 15.1969 83.8101 15.3193 83.6363 15.4854C82.2003 16.8623 81.2065 17.5994 80.655 17.6967C80.2874 17.7615 80.0665 17.5838 79.9924 17.1636C79.9693 17.0323 79.9581 16.8921 79.9589 16.7431C79.9705 16.5785 79.9856 16.4337 80.0041 16.3086C80.0358 16.1812 80.0578 16.0757 80.0702 15.9923C80.0957 15.9066 80.1096 15.8703 80.1119 15.8834C80.1027 15.8309 80.0783 15.8081 80.0389 15.8151C79.9655 15.9363 79.8477 16.1128 79.6855 16.3445C79.5233 16.5762 79.3479 16.8102 79.1594 17.0465C78.9709 17.2828 78.7778 17.4929 78.58 17.6767C78.38 17.8473 78.2131 17.9377 78.0795 17.9477C77.9196 17.9624 77.8119 17.9272 77.7563 17.8422C77.6984 17.7441 77.6764 17.6194 77.6903 17.468C77.7042 17.3166 77.7421 17.1475 77.8039 16.9606C77.8657 16.7737 77.9353 16.5922 78.0125 16.4161C78.0318 16.3721 78.0651 16.2917 78.1122 16.1751C78.157 16.0454 78.1964 15.9233 78.2304 15.809C78.2775 15.6924 78.3085 15.5989 78.3231 15.5287C78.3378 15.4584 78.3224 15.4476 78.2768 15.4962C78.259 15.4723 78.2135 15.5209 78.1401 15.6422C78.0775 15.748 77.9879 15.8924 77.8712 16.0754C77.7546 16.2585 77.614 16.4593 77.4494 16.6778C77.2957 16.8809 77.1134 17.0756 76.9025 17.2617C76.7503 17.3968 76.5927 17.5397 76.4297 17.6903C76.2644 17.8277 76.098 17.9586 75.9303 18.083C75.7735 18.1919 75.6078 18.2888 75.4333 18.3737C75.2718 18.4563 75.1046 18.5061 74.9316 18.5231C74.7454 18.5424 74.5744 18.5319 74.4183 18.4917C74.2469 18.4407 74.1392 18.2905 74.0952 18.041C74.0697 17.8966 74.0871 17.7649 74.1474 17.6459C74.1945 17.5293 74.2574 17.4641 74.3362 17.4502C74.4019 17.4386 74.4602 17.4622 74.5112 17.5209C74.5621 17.5796 74.622 17.6503 74.6907 17.7329C74.7571 17.8024 74.829 17.8642 74.9062 17.9183C74.9834 17.9724 75.0811 17.989 75.1993 17.9682L75.3175 17.9473C75.4225 17.9288 75.6624 17.7917 76.037 17.5361C76.699 17.0674 77.2289 16.5407 77.6268 15.9561C78.0378 15.3691 78.3951 14.7849 78.6987 14.2033C78.8609 13.9716 78.988 13.8477 79.0799 13.8315C79.1193 13.8245 79.1687 13.8361 79.2282 13.8662C79.2985 13.8809 79.3471 13.9265 79.3742 14.003C79.4143 14.0771 79.4143 14.1922 79.3741 14.3482C79.3448 14.4888 79.2632 14.6792 79.1296 14.9194C79.0431 15.0429 78.9461 15.2225 78.8387 15.4581C78.7444 15.6913 78.6459 15.9388 78.5432 16.2007C78.4535 16.4602 78.3682 16.7054 78.287 16.9363C78.219 17.1649 78.1734 17.3287 78.1502 17.4275C78.1819 17.5303 78.2684 17.5218 78.4098 17.4021C78.5643 17.2801 78.7315 17.1152 78.9115 16.9074C79.1046 16.6974 79.2889 16.4753 79.4642 16.2413C79.6373 15.9942 79.7636 15.7891 79.8432 15.6262ZM90.108 14.2833C90.1218 14.3621 90.0419 14.4845 89.8681 14.6506C88.4452 16.0252 87.4514 16.7623 86.8868 16.8618C86.5191 16.9267 86.2982 16.749 86.2241 16.3288C86.1825 16.0925 86.1868 15.848 86.237 15.5954C86.3104 15.244 86.346 15.0617 86.3437 15.0486C86.3344 14.9961 86.3101 14.9733 86.2707 14.9802C86.2575 14.9826 86.227 15.0015 86.1791 15.037C85.9412 15.3768 85.5824 15.7989 85.1027 16.3032C84.4862 16.9534 84.0401 17.3029 83.7644 17.3515C83.4492 17.4071 83.2639 17.2773 83.2083 16.9621C83.1759 16.7783 83.3165 16.2322 83.6303 15.324C83.9416 14.4026 84.0858 13.8762 84.0626 13.7449C84.0372 13.6005 83.9062 13.5491 83.6699 13.5908C83.6174 13.6 83.5772 13.5259 83.5494 13.3683C83.6607 13.3081 83.7819 13.2664 83.9132 13.2432C84.3728 13.1622 84.6258 13.253 84.6721 13.5156C84.723 13.8045 84.6051 14.3262 84.3185 15.0808C84.0318 15.8353 83.9035 16.298 83.9336 16.4687C83.9522 16.5737 84.0074 16.6181 84.0993 16.6019C84.3094 16.5649 84.7601 16.1266 85.4515 15.2872C86.1561 14.4454 86.6818 13.7028 87.0287 13.0594C87.1909 12.8278 87.318 12.7038 87.4099 12.6876C87.5806 12.6575 87.681 12.7278 87.7111 12.8985C87.7273 12.9904 87.7022 13.1167 87.6357 13.2773C87.0562 14.598 86.7978 15.4356 86.8603 15.7902C86.9182 16.1184 87.0981 16.2559 87.4001 16.2027C87.8597 16.1217 88.6206 15.561 89.6827 14.5208C89.7391 14.4567 89.8206 14.3814 89.9272 14.2949C89.9597 14.2485 89.9956 14.2219 90.035 14.215C90.0744 14.208 90.0987 14.2308 90.108 14.2833ZM95.8443 13.2718C95.8767 13.4557 95.4642 13.8804 94.6068 14.5461C93.7493 15.2118 92.6444 15.6638 91.2919 15.9023C90.5172 16.0389 90.0831 16.0342 89.9897 15.8882C89.9735 15.7963 90.0376 15.7376 90.182 15.7122C90.3859 15.7168 90.5142 15.7145 90.5667 15.7053C91.2364 15.5872 91.8918 15.1196 92.533 14.3025C93.1417 13.5318 93.4056 12.9166 93.3245 12.457C93.2898 12.2601 93.1477 12.1836 92.8982 12.2276C91.6639 12.4452 90.5241 13.8512 89.4787 16.4454C89.3929 16.6501 88.9227 18.1682 88.0681 20.9996C87.2026 23.8464 86.7467 25.3687 86.7003 25.5665C86.6478 25.8059 86.5493 25.9383 86.4048 25.9638C86.3523 25.9731 86.3118 25.9735 86.2832 25.965C86.1998 25.9526 86.1465 25.8807 86.1233 25.7494C86.04 25.2767 88.022 19.2409 92.0693 7.64184C92.1419 7.43948 92.2242 7.3302 92.3161 7.314C92.3293 7.31168 92.3578 7.32018 92.4019 7.3395C92.4459 7.35881 92.4748 7.40786 92.4887 7.48665C92.5142 7.63109 92.4945 7.74964 92.4296 7.84232C92.4234 7.88403 92.0564 8.95063 91.3285 11.0421C90.6416 13.0587 90.3085 14.1261 90.3294 14.2443C90.3317 14.2574 90.3406 14.2694 90.356 14.2802C90.3645 14.2516 90.4012 14.191 90.4661 14.0983C90.7141 13.662 91.0791 13.1982 91.5612 12.707C92.2085 12.0784 92.8079 11.7155 93.3594 11.6182C93.7665 11.5465 93.9978 11.6681 94.0533 11.9833C94.2224 12.9418 93.6198 14.0161 92.2455 15.2062C93.4142 15.0001 94.5535 14.3592 95.6636 13.2834C95.696 13.2371 95.7319 13.2104 95.7713 13.2035C95.8107 13.1965 95.835 13.2193 95.8443 13.2718Z" fill="white"/>
<path d="M46.2622 44.127C46.2228 44.3641 45.8026 44.7834 45.0016 45.385C44.2005 45.9866 43.5899 46.3244 43.1697 46.3985C42.9465 46.4379 42.821 46.3788 42.7932 46.2212C42.7562 46.0111 42.8987 45.5527 43.2209 44.846C43.5562 44.137 43.7065 43.6841 43.6718 43.4871C43.6324 43.2639 43.5077 43.1708 43.2976 43.2078C42.9825 43.2634 42.4274 43.8013 41.6325 44.8215C41.091 45.5127 40.6248 46.1703 40.2338 46.7943C40.0847 47.0237 39.9577 47.1477 39.8526 47.1662C39.6819 47.1963 39.5804 47.1194 39.548 46.9356C39.5387 46.8831 39.5615 46.7436 39.6164 46.5174C39.8551 46.0285 40.0873 45.5407 40.3129 45.0542C40.6567 44.3166 40.8043 43.8099 40.7557 43.5342C40.7348 43.416 40.685 43.3639 40.6062 43.3778C40.5668 43.3847 40.4927 43.4249 40.3838 43.4982C39.8021 44.1153 38.9751 44.9922 37.9029 46.129L37.765 46.1533C37.6731 46.1695 37.6248 46.1645 37.6202 46.1382C37.6133 46.0988 37.6739 46.0204 37.8021 45.9031C38.5939 45.0188 39.4738 44.0581 40.4418 43.0209C40.5762 42.8618 40.7681 42.7603 41.0176 42.7163C41.2802 42.67 41.4324 42.765 41.474 43.0014C41.5227 43.2771 41.4064 43.7309 41.1251 44.3626C40.8547 44.9789 40.7241 45.3134 40.7334 45.3659C40.7357 45.379 40.75 45.3833 40.7763 45.3786C40.7631 45.381 41.1382 44.9357 41.9014 44.043C42.6623 43.1371 43.2004 42.6563 43.5155 42.6008C44.0013 42.5151 44.2732 42.6364 44.3311 42.9647C44.382 43.2536 44.2553 43.7633 43.9509 44.4939C43.6464 45.2246 43.5023 45.6358 43.5185 45.7277C43.5371 45.8328 43.612 45.8737 43.7433 45.8506C43.9928 45.8066 44.4385 45.5317 45.0804 45.0259C45.5176 44.6645 45.8513 44.3687 46.0815 44.1385C46.114 44.0922 46.1499 44.0656 46.1893 44.0586C46.2287 44.0517 46.253 44.0745 46.2622 44.127ZM51.6081 43.1844C51.6173 43.2369 51.5656 43.3273 51.4528 43.4555C50.9607 44.0432 50.4192 44.3891 49.8283 44.4933C49.4607 44.5581 49.1282 44.5152 48.8308 44.3646C48.3657 45.2589 47.7786 45.7686 47.0696 45.8936C46.5443 45.9863 46.2238 45.7043 46.1081 45.0477C45.9576 44.1942 46.2261 43.2601 46.9137 42.2453C47.4954 41.3981 47.9504 40.9455 48.2787 40.8876C48.4887 40.8506 48.6054 40.8977 48.6285 41.029C48.6355 41.0684 48.6053 41.1279 48.5381 41.2074C48.2346 41.3287 47.8669 41.7387 47.435 42.4377C46.9081 43.2888 46.7049 44.0557 46.8253 44.7385C46.904 45.185 47.1009 45.3804 47.4161 45.3248C47.8756 45.2438 48.2943 44.8924 48.6721 44.2707C48.374 44.039 48.1891 43.7195 48.1173 43.3125C48.0339 42.8398 48.0803 42.4119 48.2565 42.0288C48.4156 41.7029 48.6134 41.5191 48.8497 41.4774C49.0861 41.4357 49.2529 41.5756 49.3502 41.8969C49.4521 42.4746 49.3585 43.1342 49.0695 43.8757C49.3368 44.0858 49.6608 44.1573 50.0416 44.0902C50.5537 43.9999 51.0156 43.7018 51.4273 43.1959C51.4598 43.1496 51.4957 43.123 51.5351 43.116C51.5745 43.1091 51.5988 43.1319 51.6081 43.1844ZM49.1741 42.0498C49.1509 41.9185 49.0934 41.8609 49.0015 41.8771C48.8833 41.898 48.7771 42.025 48.6828 42.2583C48.5885 42.4915 48.5704 42.7723 48.6282 43.1005C48.6769 43.3763 48.7765 43.5957 48.9271 43.7587C49.1843 43.1446 49.2667 42.575 49.1741 42.0498ZM58.5932 40.9373C58.6279 41.1342 58.507 41.3316 58.2305 41.5293C57.9539 41.727 57.6515 41.8547 57.3233 41.9126C56.9556 41.9775 56.4489 41.9449 55.8032 41.8151C55.1552 41.6721 54.6605 41.6307 54.3191 41.6909C54.1747 41.7164 53.9827 41.8179 53.7433 41.9955C53.5015 42.16 53.3478 42.2481 53.2821 42.2596L53.2393 42.2469C53.2231 42.155 53.354 41.9762 53.6321 41.7105C53.9712 41.407 54.3377 41.2205 54.7317 41.1511C55.0599 41.0932 55.5701 41.1454 56.2621 41.3077C56.9518 41.4569 57.4083 41.5118 57.6315 41.4724C57.881 41.4284 58.0926 41.3234 58.2664 41.1574C58.4511 40.9759 58.5368 40.8863 58.5237 40.8886C58.5631 40.8817 58.5863 40.8979 58.5932 40.9373ZM62.1402 42.4443C62.11 42.5037 62.0703 42.5852 62.0208 42.6887C61.969 42.7791 61.9173 42.8694 61.8655 42.9598C61.8292 43.061 61.7894 43.1424 61.7462 43.2042C61.7052 43.2791 61.6716 43.3189 61.6453 43.3235C61.4746 43.3536 61.3731 43.2768 61.3407 43.0929C61.3291 43.0273 61.3519 42.8879 61.4091 42.6747C61.5273 42.4237 61.6467 42.1793 61.7672 41.9414C61.8877 41.7035 62.0005 41.4602 62.1056 41.2115C62.4494 40.474 62.597 39.9673 62.5484 39.6915C62.5275 39.5734 62.4777 39.5212 62.3989 39.5351C62.3464 39.5444 62.2723 39.5845 62.1765 39.6556C61.8791 39.9653 61.5253 40.339 61.1151 40.7769C60.718 41.2125 60.2449 41.7156 59.6956 42.2863L59.5577 42.3107C59.4658 42.3269 59.4176 42.3218 59.4129 42.2956C59.4083 42.2693 59.4689 42.1909 59.5948 42.0604C59.9896 41.6117 60.4029 41.153 60.8347 40.6842C61.2774 40.2 61.7439 39.698 62.2345 39.1783C62.3558 39.0215 62.5477 38.9199 62.8103 38.8736C63.0729 38.8273 63.2251 38.9224 63.2668 39.1587C63.3131 39.4213 63.1968 39.8751 62.9178 40.52C62.9008 40.5771 62.8773 40.6354 62.8471 40.6949C62.8147 40.7413 62.79 40.793 62.773 40.8501C62.878 40.8316 63.0028 40.8096 63.1472 40.7842C63.2916 40.7587 63.4546 40.7232 63.6361 40.6776C63.9466 40.5958 64.2158 40.5484 64.4437 40.5353C64.48 40.4341 64.5163 40.3329 64.5526 40.2317C64.5889 40.1305 64.6307 40.0216 64.6778 39.905C64.7829 39.6563 64.8849 39.4285 64.9837 39.2215C65.0958 39.0122 65.2113 38.8226 65.3302 38.6527C65.4013 38.5183 65.5353 38.4338 65.7323 38.399C65.842 38.4068 65.9003 38.4303 65.9072 38.4697C65.9072 38.4697 65.7446 38.891 65.4193 39.7337C65.094 40.5763 64.9615 41.1683 65.0217 41.5097C65.0934 41.9167 65.3066 42.089 65.6611 42.0265C66.1076 41.9478 66.6892 41.4458 67.4061 40.5206C67.4386 40.4743 67.4745 40.4476 67.5139 40.4407C67.5533 40.4337 67.5776 40.4565 67.5869 40.509C67.6008 40.5878 67.4926 40.7423 67.2624 40.9724C66.9071 41.4142 66.576 41.7636 66.2694 42.0208C65.9604 42.2648 65.6549 42.4135 65.3529 42.4667C64.762 42.5709 64.4226 42.3735 64.3346 41.8745C64.2767 41.5463 64.2899 41.1987 64.3741 40.8318C64.2142 40.8465 64.0227 40.8735 63.7995 40.9129C63.5894 40.9499 63.3553 41.0047 63.0973 41.0773C62.9158 41.1228 62.7988 41.1502 62.7463 41.1595C62.6938 41.1687 62.6544 41.1757 62.6281 41.1803C62.4906 41.4754 62.3704 41.7538 62.2677 42.0156C62.178 42.2751 62.1355 42.418 62.1402 42.4443ZM73.0546 39.4028C73.0638 39.4553 73.0121 39.5457 72.8993 39.6739C72.4072 40.2616 71.8657 40.6075 71.2748 40.7117C70.9072 40.7765 70.5746 40.7336 70.2773 40.583C69.8122 41.4773 69.2251 41.987 68.5161 42.112C67.9908 42.2047 67.6703 41.9227 67.5546 41.2662C67.4041 40.4127 67.6726 39.4785 68.3602 38.4637C68.9419 37.6165 69.3969 37.1639 69.7252 37.106C69.9352 37.069 70.0519 37.1161 70.075 37.2474C70.082 37.2868 70.0518 37.3463 69.9846 37.4258C69.6811 37.5471 69.3134 37.9571 68.8815 38.6561C68.3546 39.5072 68.1514 40.2741 68.2718 40.9569C68.3505 41.4034 68.5474 41.5988 68.8626 41.5432C69.3221 41.4622 69.7408 41.1108 70.1186 40.4891C69.8205 40.2574 69.6355 39.938 69.5638 39.5309C69.4804 39.0582 69.5268 38.6303 69.703 38.2472C69.8621 37.9213 70.0599 37.7375 70.2962 37.6958C70.5326 37.6542 70.6994 37.794 70.7967 38.1153C70.8986 38.6931 70.805 39.3527 70.516 40.0941C70.7833 40.3042 71.1073 40.3757 71.488 40.3086C72.0001 40.2183 72.4621 39.9202 72.8738 39.4143C72.9063 39.368 72.9422 39.3414 72.9816 39.3344C73.021 39.3275 73.0453 39.3503 73.0546 39.4028ZM70.6206 38.2682C70.5974 38.1369 70.5399 38.0793 70.448 38.0956C70.3298 38.1164 70.2236 38.2434 70.1293 38.4767C70.035 38.7099 70.0168 38.9907 70.0747 39.319C70.1234 39.5947 70.223 39.8141 70.3736 39.9771C70.6308 39.3631 70.7132 38.7934 70.6206 38.2682ZM79.3207 25.7066C79.5545 27.0328 79.2071 28.7865 78.2784 30.9675C77.5621 32.6643 76.6049 34.3766 75.4067 36.1042C74.3514 37.6442 73.6794 38.4397 73.3905 38.4906C73.6475 39.7179 74.1437 40.2668 74.879 40.1371C75.4436 40.0376 76.0114 39.687 76.5823 39.0854C76.4093 38.8722 76.2985 38.6277 76.2498 38.352C76.0924 37.4591 76.3026 36.9617 76.8803 36.8598C77.1167 36.8181 77.2835 36.958 77.3808 37.2793C77.4618 37.7389 77.3459 38.2332 77.033 38.7622C77.321 39.0905 77.7014 39.213 78.1741 39.1296C78.6862 39.0393 79.1481 38.7413 79.5599 38.2354C79.5923 38.1891 79.6283 38.1624 79.6677 38.1555C79.707 38.1485 79.7314 38.1713 79.7406 38.2238C79.7499 38.2764 79.6981 38.3667 79.5853 38.4949C79.0933 39.0826 78.5518 39.4286 77.9609 39.5328C77.4751 39.6184 77.0588 39.5226 76.712 39.2453C76.0623 40.0909 75.3698 40.5786 74.6345 40.7083C74.2012 40.7847 73.8088 40.6711 73.4574 40.3675C73.1168 40.0484 72.9014 39.6329 72.8111 39.1208C72.5541 37.6633 72.7548 35.8069 73.4132 33.5516C74.0121 31.4964 74.8264 29.6266 75.8562 27.9422C76.8837 26.2446 77.7914 25.3264 78.5792 25.1875C78.9994 25.1134 79.2466 25.2864 79.3207 25.7066ZM78.8016 26.1028C78.7483 25.8008 78.6035 25.6706 78.3672 25.7123C77.75 25.8211 76.9945 26.7193 76.1006 28.4068C75.2562 29.9908 74.5546 31.7324 73.9959 33.6316C73.4009 35.632 73.1856 37.0983 73.35 38.0306C73.3593 38.0832 73.377 38.1071 73.4033 38.1025C73.6528 38.0585 74.2615 37.2877 75.2295 35.7902C76.3057 34.1383 77.176 32.509 77.8404 30.9026C78.6849 28.8582 79.0053 27.2583 78.8016 26.1028ZM77.2046 37.4322C77.1815 37.3009 77.1239 37.2433 77.032 37.2595C76.7563 37.3082 76.6659 37.6017 76.7608 38.14C76.7932 38.3238 76.8484 38.4833 76.9264 38.6185C77.179 38.2084 77.2718 37.813 77.2046 37.4322ZM85.0954 37.2797C85.1046 37.3322 85.0529 37.4225 84.9401 37.5507C84.448 38.1385 83.9065 38.4844 83.3156 38.5886C82.948 38.6534 82.6155 38.6105 82.3181 38.4599C81.853 39.3542 81.2659 39.8639 80.5569 39.9889C80.0316 40.0815 79.7112 39.7996 79.5954 39.143C79.4449 38.2895 79.7134 37.3554 80.401 36.3406C80.9827 35.4933 81.4377 35.0408 81.766 34.9829C81.9761 34.9459 82.0927 34.993 82.1158 35.1243C82.1228 35.1637 82.0926 35.2232 82.0254 35.3027C81.7219 35.4239 81.3542 35.834 80.9223 36.533C80.3954 37.3841 80.1922 38.151 80.3126 38.8338C80.3913 39.2802 80.5882 39.4757 80.9034 39.4201C81.3629 39.3391 81.7816 38.9877 82.1594 38.366C81.8613 38.1342 81.6764 37.8148 81.6046 37.4078C81.5212 36.9351 81.5676 36.5072 81.7438 36.1241C81.9029 35.7982 82.1007 35.6144 82.3371 35.5727C82.5734 35.531 82.7402 35.6709 82.8375 35.9922C82.9394 36.5699 82.8458 37.2295 82.5569 37.971C82.8241 38.1811 83.1481 38.2526 83.5289 38.1854C84.041 38.0951 84.5029 37.7971 84.9146 37.2912C84.9471 37.2449 84.983 37.2182 85.0224 37.2113C85.0618 37.2044 85.0861 37.2271 85.0954 37.2797ZM82.6614 36.1451C82.6382 36.0138 82.5807 35.9562 82.4888 35.9724C82.3706 35.9933 82.2644 36.1203 82.1701 36.3536C82.0759 36.5868 82.0577 36.8676 82.1155 37.1958C82.1642 37.4716 82.2638 37.6909 82.4144 37.8539C82.6717 37.2399 82.754 36.6703 82.6614 36.1451ZM90.1653 35.9186C90.2904 35.707 90.4457 35.4359 90.6311 35.1054C90.8297 34.7725 91.0108 34.4562 91.1746 34.1566C91.2789 34.0569 91.3936 34.0164 91.5187 34.035C91.6439 34.0535 91.686 34.1003 91.645 34.1752C91.3553 34.8355 91.159 35.4117 91.0562 35.9037C90.9534 36.3957 90.9182 36.7336 90.9506 36.9174C91.0085 37.2457 91.1885 37.3832 91.4905 37.3299C91.9501 37.2489 92.7109 36.6883 93.7731 35.648C93.7947 35.6171 93.8457 35.5607 93.926 35.4789C94.0195 35.3947 94.0859 35.3491 94.1253 35.3422C94.1647 35.3352 94.1891 35.358 94.1983 35.4106C94.2122 35.4893 94.1323 35.6118 93.9584 35.7778C92.5224 37.1547 91.5286 37.8918 90.9771 37.9891C90.6095 38.0539 90.3886 37.8762 90.3145 37.456C90.2914 37.3247 90.2802 37.1846 90.281 37.0355C90.2926 36.871 90.3077 36.7261 90.3262 36.601C90.3579 36.4736 90.3799 36.3682 90.3923 36.2847C90.4178 36.199 90.4317 36.1627 90.434 36.1758C90.4248 36.1233 90.4004 36.1005 90.361 36.1075C90.2876 36.2287 90.1698 36.4052 90.0076 36.6369C89.8454 36.8686 89.67 37.1026 89.4815 37.3389C89.293 37.5752 89.0999 37.7853 88.9021 37.9691C88.7021 38.1398 88.5352 38.2301 88.4016 38.2401C88.2417 38.2548 88.134 38.2196 88.0784 38.1347C88.0205 38.0366 87.9985 37.9118 88.0124 37.7604C88.0263 37.609 88.0642 37.4399 88.126 37.253C88.1878 37.0661 88.2574 36.8846 88.3346 36.7085C88.3539 36.6645 88.3872 36.5841 88.4343 36.4675C88.4791 36.3378 88.5185 36.2157 88.5525 36.1014C88.5996 35.9848 88.6306 35.8914 88.6452 35.8211C88.6599 35.7508 88.6445 35.74 88.5989 35.7886C88.5811 35.7647 88.5356 35.8133 88.4622 35.9346C88.3996 36.0404 88.31 36.1848 88.1933 36.3679C88.0767 36.5509 87.9361 36.7517 87.7715 36.9703C87.6178 37.1734 87.4355 37.368 87.2246 37.5541C87.0724 37.6892 86.9148 37.8321 86.7518 37.9827C86.5865 38.1202 86.4201 38.2511 86.2524 38.3754C86.0956 38.4843 85.9299 38.5812 85.7554 38.6661C85.5939 38.7487 85.4267 38.7985 85.2537 38.8155C85.0675 38.8348 84.8965 38.8243 84.7405 38.7841C84.569 38.7331 84.4613 38.5829 84.4173 38.3334C84.3918 38.189 84.4092 38.0573 84.4695 37.9384C84.5166 37.8217 84.5796 37.7565 84.6583 37.7426C84.724 37.731 84.7823 37.7546 84.8333 37.8133C84.8842 37.872 84.9441 37.9427 85.0128 38.0253C85.0792 38.0948 85.1511 38.1566 85.2283 38.2107C85.3055 38.2648 85.4032 38.2814 85.5214 38.2606L85.6396 38.2397C85.7446 38.2212 85.9845 38.0842 86.3591 37.8286C87.0211 37.3598 87.551 36.8331 87.9489 36.2485C88.3599 35.6615 88.7172 35.0773 89.0208 34.4957C89.183 34.264 89.3101 34.1401 89.402 34.1239C89.4414 34.1169 89.4908 34.1285 89.5503 34.1587C89.6206 34.1733 89.6693 34.2189 89.6963 34.2954C89.7364 34.3695 89.7364 34.4846 89.6962 34.6406C89.6669 34.7812 89.5853 34.9716 89.4517 35.2118C89.3652 35.3353 89.2682 35.5149 89.1608 35.7505C89.0666 35.9837 88.968 36.2313 88.8653 36.4931C88.7756 36.7526 88.6903 36.9978 88.6091 37.2287C88.5411 37.4573 88.4955 37.6211 88.4723 37.7199C88.504 37.8227 88.5905 37.8142 88.7319 37.6945C88.8864 37.5725 89.0536 37.4076 89.2336 37.1999C89.4267 36.9898 89.611 36.7678 89.7863 36.5338C89.9594 36.2866 90.0857 36.0816 90.1653 35.9186ZM99.721 34.7008C99.6986 34.8807 99.3112 35.2943 98.5588 35.9414C97.689 36.6905 97.0042 37.2987 96.5044 37.7659C95.3592 41.6369 94.6324 43.9651 94.3241 44.7506C93.4603 47.0692 92.6082 48.3025 91.7678 48.4507C91.3739 48.5202 91.1318 48.2989 91.0415 47.7868C90.5368 44.9242 92.1631 41.6318 95.9204 37.9095L96.6901 35.1337C96.6809 35.0811 96.6565 35.0583 96.6171 35.0653C95.3672 36.423 94.5782 37.1307 94.2499 37.1886C93.9348 37.2442 93.7494 37.1144 93.6938 36.7993C93.6614 36.6154 93.775 36.108 94.0347 35.2769C94.3074 34.4436 94.4322 33.9613 94.4091 33.8299C94.3836 33.6855 94.2527 33.6341 94.0163 33.6758C93.9638 33.6851 93.9237 33.6109 93.8959 33.4533C94.0071 33.3931 94.1284 33.3514 94.2597 33.3283C94.7193 33.2472 94.9722 33.338 95.0185 33.6006C95.0695 33.8895 94.9755 34.3935 94.7368 35.1125C94.498 35.8316 94.3937 36.2765 94.4238 36.4472C94.4423 36.5522 94.4975 36.5966 94.5894 36.5804C94.9046 36.5248 95.3615 36.16 95.9602 35.4858C96.6369 34.7166 97.1085 33.9361 97.3751 33.1445C97.5373 32.9128 97.6644 32.7888 97.7563 32.7726C97.927 32.7425 98.0274 32.8128 98.0575 32.9835C98.0737 33.0755 98.0486 33.2017 97.9822 33.3624C97.6113 34.2537 97.174 35.5357 96.6701 37.2086C97.2897 36.6526 97.8671 36.1649 98.4024 35.7456C98.9918 35.2491 99.3711 34.9046 99.5403 34.7123C99.5727 34.666 99.6086 34.6393 99.648 34.6324C99.6874 34.6255 99.7117 34.6482 99.721 34.7008ZM95.7779 38.4829C92.4948 41.8238 91.0906 44.8401 91.5652 47.5319C91.6254 47.8733 91.7671 48.0244 91.9903 47.985C92.5418 47.8878 93.1892 46.7988 93.9326 44.7181C94.4108 43.3611 95.0259 41.2827 95.7779 38.4829ZM104.64 22.9683C104.652 23.034 104.634 23.1251 104.587 23.2417C104.114 24.4759 103.679 26.2315 103.282 28.5084C102.853 30.9939 102.483 32.7313 102.17 33.7207C102.125 33.8504 102.083 33.9188 102.043 33.9257C101.978 33.9373 101.926 33.838 101.889 33.6279C101.95 32.3582 102.182 30.679 102.585 28.5906C103.221 25.3644 103.558 23.6262 103.595 23.376C103.583 23.2292 103.641 23.0972 103.769 22.9798C103.91 22.8601 104.06 22.7864 104.217 22.7586C104.467 22.7146 104.608 22.7845 104.64 22.9683ZM102.534 35.4435C102.56 35.5879 102.505 35.7397 102.371 35.8988C102.237 36.0579 102.11 36.1479 101.992 36.1687C101.743 36.2127 101.582 36.1057 101.509 35.8477C101.477 35.6639 101.523 35.5067 101.649 35.3762C101.775 35.2457 101.904 35.1688 102.035 35.1457C102.324 35.0947 102.49 35.194 102.534 35.4435Z" fill="white"/>
</svg>
