<svg width="14" height="12" viewBox="0 0 14 12" fill="none" xmlns="http://www.w3.org/2000/svg">
<path d="M10.9971 6.04C9.33857 6.04 7.99429 7.37143 7.99429 9.01572C7.99429 10.6586 9.33857 11.9914 10.9971 11.9914C12.6557 11.9914 14 10.66 14 9.01572C14 7.37143 12.6557 6.04 10.9971 6.04ZM10.96 10.9471C10.8029 11.1 10.55 11.1 10.3929 10.9471L9.11857 9.69857C8.96286 9.54572 8.96286 9.29714 9.11857 9.14429C9.27571 8.99143 9.52857 8.99143 9.68429 9.14429L10.6757 10.1157L12.5871 8.24286C12.7429 8.09 12.9971 8.09 13.1529 8.24286C13.31 8.39572 13.31 8.64429 13.1529 8.79714L10.96 10.9471ZM11.6857 2.44429H7.70143C7.53571 2.44429 7.40143 2.57857 7.40143 2.74429C7.40143 2.91 7.53571 3.04429 7.70143 3.04429H11.6857C11.8514 3.04429 11.9857 2.91 11.9857 2.74429C11.9843 2.57857 11.85 2.44429 11.6857 2.44429ZM11.6857 3.93429H7.70143C7.53571 3.93429 7.40143 4.06857 7.40143 4.23429C7.40143 4.4 7.53571 4.53429 7.70143 4.53429H11.6857C11.8514 4.53429 11.9857 4.4 11.9857 4.23429C11.9843 4.06857 11.85 3.93429 11.6857 3.93429ZM9.07571 5.72286C9.07571 5.55714 8.94143 5.42286 8.77571 5.42286H7.70143C7.53571 5.42286 7.40143 5.55714 7.40143 5.72286C7.40143 5.88857 7.53571 6.02286 7.70143 6.02286H8.77571C8.94143 6.02286 9.07571 5.88857 9.07571 5.72286ZM1.22143 9.52857C0.832857 9.48857 0.527143 9.15714 0.527143 8.75714V1.26286C0.527143 0.835714 0.875714 0.52 1.30143 0.52H12.6329C13.0586 0.52 13.44 0.837143 13.44 1.26286V5.91429C13.6314 6.06286 13.8071 6.22714 13.9686 6.40572V0.997143C13.9686 0.425714 13.4571 0 12.8871 0H1.03857C0.467143 0 0 0.424286 0 0.997143V9.01286C0 9.54857 0.41 9.99286 0.93 10.0471H7.16429C7.11857 9.87857 7.08286 9.70572 7.06 9.52857H1.22143Z" fill="#41464B"/>
<path d="M5.54568 7.98715C5.47996 7.98715 5.41425 7.97001 5.34139 7.93144L4.22996 7.34858C4.20282 7.33144 4.16425 7.32144 4.11996 7.32144C4.08139 7.32144 4.0371 7.33287 4.00996 7.34287L2.90282 7.93144C2.8371 7.97001 2.77139 7.98715 2.69425 7.98715C2.56282 7.98715 2.43568 7.92715 2.3471 7.82715C2.25853 7.72858 2.22568 7.59572 2.24853 7.4643L2.46282 6.23144C2.47425 6.1543 2.44568 6.07715 2.39139 6.02287L1.49996 5.15715C1.37282 5.03572 1.32996 4.86001 1.38425 4.6943C1.43996 4.52858 1.5771 4.41287 1.7471 4.38572L2.97996 4.2043C3.0571 4.19287 3.12853 4.1443 3.16139 4.07715L3.71139 2.9543C3.78853 2.80001 3.94282 2.70715 4.11282 2.70715C4.28282 2.70715 4.4371 2.80144 4.51425 2.9543L5.06425 4.07715C5.10282 4.14858 5.16853 4.19287 5.24568 4.2043L6.47853 4.38572C6.64853 4.41287 6.7871 4.52858 6.84139 4.68858C6.8971 4.8543 6.85282 5.03001 6.73139 5.15144L5.84568 6.02144C5.78568 6.07715 5.76282 6.15287 5.77425 6.23001L5.98282 7.45715C6.00425 7.58858 5.97139 7.72144 5.88425 7.82001C5.80425 7.92572 5.67853 7.98715 5.54568 7.98715Z" fill="#41464B"/>
</svg>
