<svg width="14" height="14" viewBox="0 0 14 14" fill="none" xmlns="http://www.w3.org/2000/svg">
<path fill-rule="evenodd" clip-rule="evenodd" d="M5.3726 9.78157L4.59068 10.56C4.53519 10.6141 4.53565 10.6326 4.48066 10.6831C4.33265 10.8191 4.16585 10.9842 4.02803 11.1292C3.8902 11.2741 3.92432 11.2096 3.80391 11.3531L3.57698 11.5752C3.44275 11.7301 3.0814 12.0632 2.90378 12.249L2.45464 12.6971C2.41681 12.7355 2.38654 12.7706 2.34987 12.8073C2.32686 12.8303 2.31572 12.8465 2.29292 12.8677C2.24163 12.9153 2.27342 12.8831 2.2231 12.9169C2.16054 12.9589 2.18019 12.9814 2.07873 12.9926C1.84358 13.0186 1.64837 12.7556 1.94433 12.4802L2.7314 11.684C2.79804 11.6109 2.88778 11.5512 2.963 11.4688C3.0281 11.3974 3.11449 11.3085 3.18392 11.2405C3.26042 11.1655 3.33435 11.095 3.40923 11.017C3.47762 10.9458 3.55928 10.8822 3.63716 10.7969C3.6698 10.7611 3.70246 10.7246 3.73969 10.6843C3.78151 10.639 3.81085 10.603 3.8549 10.5664C3.97945 10.4627 4.19709 10.215 4.30584 10.1184L4.97451 9.4413C5.25408 9.21217 5.51322 9.59756 5.37262 9.78156L5.3726 9.78157ZM4.57354 9.02062C4.50839 9.10228 4.42998 9.17713 4.35288 9.24727L3.52268 10.0952C3.49186 10.1248 3.48819 10.1256 3.4614 10.15C3.12869 10.4522 2.13295 11.4547 1.88929 11.7214L1.44016 12.1692C1.1972 12.3812 0.809185 12.0165 1.17117 11.7044L4.20621 8.67052C4.45453 8.46344 4.76338 8.78264 4.57354 9.02063V9.02062ZM0.545084 13.2196C1.42695 14.3182 2.7475 14.0106 3.54163 13.2196C3.68668 13.0434 4.63949 12.123 4.90376 11.8498L5.14799 11.6072C5.19093 11.5682 5.23005 11.5206 5.27236 11.4767C5.51442 11.226 5.76746 11.0019 6.02078 10.7235C6.26542 10.4547 6.42939 10.02 6.43148 9.64598C6.43244 9.47368 6.41248 9.34661 6.36486 9.20227C6.26235 8.89155 6.25075 8.9329 6.4736 8.71707C6.52788 8.66451 6.55391 8.63301 6.62187 8.61104L6.98056 8.95488C7.01051 8.98766 7.02531 9.01824 7.06095 9.04865C7.11127 9.09157 7.10493 9.07941 7.15315 9.13361C7.26473 9.25902 7.51673 9.47626 7.68716 9.67324C7.71285 9.70293 7.75144 9.73376 7.77799 9.7563L8.041 10.0362C8.03586 10.0841 7.99675 10.1762 7.98251 10.2259C7.95667 10.3162 7.96475 10.3902 7.95454 10.4833C7.94631 10.5585 7.91749 10.6097 7.91042 10.7017C7.90377 10.7882 7.90644 10.8862 7.90668 10.9736C7.90691 11.0594 7.90356 11.1628 7.91103 11.2468C7.91914 11.3381 7.94468 11.3676 7.95501 11.479C7.98636 11.8168 8.21038 12.3552 8.40786 12.6423C8.49467 12.7685 8.55772 12.8366 8.64829 12.9472C8.68822 12.9959 8.73263 13.04 8.77914 13.0901C8.81888 13.1329 8.8991 13.1887 8.9154 13.2196C9.51158 13.8559 10.8474 14.2932 11.6375 13.7629C12.0716 13.4716 11.9503 13.4683 11.6857 13.2055C11.5911 13.1115 10.8953 12.4135 10.8851 12.3798C10.866 12.317 10.9679 11.9191 11.002 11.8262C11.1307 11.4749 11.0356 11.1857 11.389 11.136C11.5587 11.1121 11.7842 11.017 11.9073 10.9923C12.3729 10.8989 12.2609 10.7726 12.6067 11.1303L13.2591 11.7855C13.3303 11.8575 13.3896 11.9503 13.5073 11.9681C13.8163 12.015 13.8848 11.7701 13.917 11.5222C13.9779 11.053 13.9913 10.8063 13.9107 10.331C13.89 10.2095 13.7457 9.79635 13.7008 9.67908C13.6119 9.44686 13.3541 9.10316 13.1812 8.91465L12.8541 8.59772C12.7911 8.54359 12.7897 8.55305 12.7241 8.51013C12.6783 8.48016 12.6514 8.43982 12.5961 8.4069C12.5397 8.37334 12.5204 8.36847 12.4599 8.32775C12.1943 8.14886 11.9318 8.10583 11.7016 8.0112C11.612 7.97436 11.4572 7.97481 11.351 7.93941C11.2323 7.89986 10.6575 7.89059 10.541 7.93086C10.4545 7.96076 10.484 7.96266 10.3655 7.96872C10.2419 7.97505 10.0563 8.05426 10.0144 8.0456C9.93566 8.02936 9.64528 7.6933 9.55698 7.60414C9.35267 7.39785 9.13384 7.20586 8.93972 6.99162C8.90768 6.95625 8.88653 6.93126 8.8544 6.90206C8.79531 6.84837 8.59861 6.68518 8.60439 6.61841C8.60917 6.56325 9.09033 6.10222 9.15876 6.03477L9.44838 5.75846C9.49556 5.71461 9.4882 5.70015 9.53735 5.65243L11.5571 3.63341C11.5586 3.63179 11.593 3.59773 11.5965 3.59419C11.8512 3.3418 11.8012 3.30063 12.0613 3.30263C12.3348 3.30474 12.5776 3.345 12.7276 3.22514L13.8685 2.09992C13.9338 2.03566 13.9964 1.97258 13.9998 1.85328C14.004 1.70721 13.9432 1.6662 13.8761 1.59787L12.3872 0.101282C12.1966 -0.086356 12.0457 0.0150478 11.8701 0.176175L11.504 0.55083C11.2485 0.793078 10.9806 1.02731 10.7472 1.29804C10.6578 1.40182 10.6993 1.81174 10.6999 1.99037C10.7004 2.14802 10.6711 2.14755 10.581 2.2461C10.5405 2.29033 10.5225 2.30221 10.4815 2.34032L10.0108 2.80646C9.97182 2.85178 9.95531 2.86294 9.91397 2.90463L9.44735 3.37287C9.37368 3.47354 8.90796 3.90492 8.79206 4.02708L7.85417 4.96272C7.82307 4.98983 7.8053 5.01584 7.76802 5.05248C7.44315 5.3718 7.42041 5.49502 7.27542 5.31911L6.61177 4.65538C6.49801 4.53408 5.97873 4.0427 5.963 4.00138C5.9611 3.88874 6.02284 3.83015 6.03778 3.69202L6.09175 3.35791C6.10208 3.16901 6.11025 2.96096 6.09099 2.77169L5.99691 2.28331C5.96436 2.17951 5.92867 2.09706 5.8997 1.99031C5.86943 1.87877 5.82562 1.82244 5.77969 1.72219L5.49527 1.24073C5.38907 1.06367 5.08148 0.793258 4.91834 0.669116L4.43962 0.367033C4.26484 0.276903 4.08945 0.183585 3.89779 0.148076C3.73036 0.117049 3.578 0.0630581 3.40436 0.0533277C3.30529 0.0477755 3.30968 0.0359165 3.24417 0.0253076C3.06245 -0.00413148 2.67025 0.0379662 2.52908 0.0770682C2.34011 0.129403 2.06918 0.132128 2.0501 0.38753C2.03237 0.624924 2.20634 0.718737 2.34769 0.861281L2.93199 1.44784C3.12389 1.65189 3.18053 1.58711 3.0717 1.91295C3.03534 2.02179 3.02837 2.12417 2.99434 2.22653C2.96698 2.30882 2.92116 2.45074 2.90239 2.5232C2.87345 2.63487 2.88374 2.74156 2.82302 2.8129C2.75365 2.89439 2.62198 2.8713 2.51998 2.90316C2.46928 2.919 2.45694 2.93102 2.37863 2.95249C2.23804 2.99105 2.0681 3.01611 1.91951 3.07736C1.62557 3.1985 1.64982 3.14494 1.44368 2.93887C1.37304 2.86825 1.3169 2.80592 1.24957 2.74279L0.677753 2.16388C0.588887 2.07476 0.58367 2.04302 0.40107 2.04818C0.181728 2.05437 0.166617 2.19614 0.120959 2.3515C0.0435721 2.61484 0.028214 2.94521 0.0429088 3.24067C0.0549389 3.48254 0.107197 3.67443 0.146334 3.906C0.187855 4.15166 0.418924 4.55665 0.552392 4.7666L0.592766 4.82621C0.955706 5.29617 1.05155 5.3689 1.49451 5.66179C1.54188 5.69311 1.54253 5.70731 1.60653 5.74262C1.74076 5.81666 1.8844 5.86794 2.02609 5.91459C2.41414 6.04237 2.97111 6.16997 3.37761 6.08693C3.49544 6.06287 3.60634 6.0579 3.72055 6.03802C3.842 6.01688 3.89846 5.96259 4.00924 5.96777C4.04775 6.02032 4.05337 6.01999 4.09524 6.06335C4.12824 6.09751 4.1484 6.13399 4.17442 6.16014C4.20971 6.19562 4.22359 6.19283 4.26912 6.24011C4.30577 6.27818 4.32008 6.29223 4.35715 6.32901C4.53513 6.50566 5.32929 7.26511 5.40898 7.39963C5.34838 7.50168 5.29399 7.5251 5.22406 7.60149C4.97422 7.87445 5.02308 7.57598 4.37984 7.5756C4.12525 7.57544 3.95486 7.62698 3.75501 7.70824L3.50609 7.83213C3.2888 7.92602 2.31305 8.97004 2.05986 9.2158C2.02488 9.24974 2.00633 9.26406 1.97049 9.30249C1.90675 9.37081 1.85094 9.43118 1.78512 9.48804L1.40527 9.86907C1.29132 9.98823 1.16175 10.1275 1.02653 10.2502C0.81954 10.4381 0.458152 10.7906 0.292608 11.0203C0.0462367 11.3621 -0.116654 12.0846 0.103757 12.5418C0.183527 12.7072 0.250615 12.8735 0.371816 13.0154C0.431764 13.0857 0.510354 13.1577 0.545084 13.2196V13.2196Z" fill="#41464B"/>
</svg>
