<svg width="15" height="19" viewBox="0 0 15 19" fill="none" xmlns="http://www.w3.org/2000/svg">
<path fill-rule="evenodd" clip-rule="evenodd" d="M0.144303 0.757967C0.126913 0.951385 0.0311275 1.13029 0.0193238 1.42633L0.0192484 2.2362L0.019395 2.91301L0.0192484 3.72058L0.019395 4.39739L0.0192484 5.20497L0.019395 5.88177L0.0192484 6.68936L0.019395 7.36616L0.0192484 8.17374L0.019395 8.85054L0.0192484 9.65812L0.019395 10.3349L0.0192484 11.1425L0.019395 11.8193L0.0192484 12.6269L0.019395 13.3037L0.0192484 14.1113L0 14.6674C0.00528003 14.676 0.0102544 14.6801 0.0118958 14.6951C0.0139265 14.7136 0.0299885 14.7424 0.0330619 14.7531C0.208144 15.3653 0.321964 15.6408 1.0974 15.9116C1.36228 15.9381 4.20999 16.0077 4.38677 15.8935C4.4554 15.8491 4.90332 15.3793 4.95591 15.302L4.89098 15.2486C4.82755 15.1941 4.86198 15.2438 4.83418 15.1962C4.53598 15.1038 4.49867 14.9428 4.20595 14.9425C3.89542 14.9422 3.58782 14.9527 3.27595 14.9453C2.90481 14.9236 1.44953 15.0012 1.22619 14.9009C0.950773 14.7771 1.0147 14.4088 1.01208 14.0774L1.0132 8.73364C1.01478 8.33534 0.979146 1.49887 1.03074 1.28821C1.11205 0.956243 1.4418 1.00349 1.79618 1.00354L2.60529 1.00361L3.28057 1.00354L4.08968 1.00361L4.76495 1.00354L5.57407 1.00361L6.24933 1.00354L7.05845 1.00361L7.73372 1.00354L8.54284 1.00361L9.2181 1.00354L10.0272 1.00361L10.6979 1.00384C11.6229 1.00701 11.7448 0.861696 11.7439 1.83125C11.7434 2.44792 11.7383 3.07077 11.7456 3.68673C11.7604 4.91902 11.7684 6.20393 11.7449 7.43462L11.7427 8.17561C12.064 8.31461 12.1412 8.31577 12.3667 8.54884C12.5118 8.69888 12.6559 8.9218 12.7184 9.16808L12.7215 8.91591L12.7328 1.60856C12.7366 1.10594 12.6909 1.07163 12.5584 0.681045C12.518 0.648205 12.2558 0.331026 12.2441 0.301699C12.0603 0.227234 11.8878 0.0887896 11.6312 0.0418304C11.3108 -0.0168152 6.38705 0.012964 5.94766 0.0129766C5.36837 0.0129975 1.48367 -0.0338779 1.09118 0.0504267C0.873173 0.0972477 0.676262 0.205553 0.535975 0.316785C0.317848 0.489733 0.31449 0.568334 0.186597 0.716347L0.144311 0.75795L0.144303 0.757967Z" fill="#41464B"/>
<path fill-rule="evenodd" clip-rule="evenodd" d="M7.72901 10.1512C7.69693 10.2096 7.53696 10.2891 7.45115 10.3484C7.34993 10.4183 7.25294 10.4984 7.16153 10.5783C6.99225 10.7262 6.86213 10.9479 6.70652 11.1086C6.58638 11.3951 6.46034 11.5312 6.36689 11.8988C6.26893 12.2841 6.26961 12.5161 6.28111 12.9269C6.31724 13.1471 6.3397 13.2895 6.41028 13.5033C6.46349 13.6645 6.58294 13.8724 6.59941 14.0052C6.70848 14.0845 6.66023 14.0581 6.73848 14.1784C7.14858 14.8088 7.73904 15.0613 7.8356 15.1691C8.04296 15.1827 8.4409 15.3819 8.80575 15.4132C9.26472 15.4526 9.64264 15.3018 9.92844 15.3178C10.0183 15.2256 10.2112 15.1818 10.3317 15.1211C10.4882 15.0424 10.5928 14.959 10.7431 14.8818C10.773 14.8224 10.7413 14.8482 10.821 14.841C10.8824 14.716 11.1661 14.4892 11.3295 14.2643C11.3588 14.224 11.3799 14.1894 11.4083 14.1574C11.4732 14.0843 11.4351 14.1199 11.4889 14.0858L11.8206 13.2497L11.8475 12.9269C11.8621 12.4502 11.8394 12.2891 11.7562 11.8482C11.6134 11.5289 11.5682 11.3323 11.3606 11.0398C11.2717 10.9144 11.175 10.7967 11.0781 10.6912C10.9843 10.5892 10.8501 10.5278 10.7936 10.4038C10.5778 10.3149 10.4101 10.1614 10.1573 10.0544C9.92129 9.95461 9.66861 9.88078 9.39668 9.8511C8.62045 9.76637 8.32951 9.94716 7.72901 10.1512V10.1512Z" fill="#41464B"/>
<path fill-rule="evenodd" clip-rule="evenodd" d="M11.9467 14.1218C11.9386 14.2749 11.629 14.6996 11.5129 14.7614C11.4726 14.8748 11.5052 14.823 11.4228 14.8609C11.4026 14.9368 11.4548 14.8468 11.3796 14.946C11.3292 15.0125 10.9367 15.3444 10.8162 15.3628C10.8094 15.3705 10.7999 15.3801 10.7947 15.3849L10.4921 15.5786C10.1033 15.7709 9.66544 15.8816 9.21339 15.8975L8.54504 15.8563C7.23364 15.7086 6.08956 14.5481 5.8673 13.2983L5.79166 12.6249C5.80008 12.3801 5.78855 11.9832 5.92487 11.8215C5.90742 11.4167 6.39654 10.7099 6.59331 10.4931C6.75568 10.3142 7.38097 9.69865 7.73069 9.67604C7.76514 9.63956 7.74669 9.65416 7.79718 9.62042C7.80433 9.61564 7.81368 9.60963 7.82135 9.60506C8.24407 9.35369 9.28703 9.31371 9.83222 9.45096C10.2992 9.56852 10.751 9.78532 11.1012 10.0746C11.2383 10.1878 11.337 10.2502 11.4035 10.3846C11.4587 10.4079 11.4148 10.3795 11.4807 10.4385L11.8622 10.9456C11.9669 11.1187 12.1636 11.447 12.1653 11.6811C12.4774 12.0069 12.3422 13.5905 11.9873 14.0768C11.9833 14.0822 11.9704 14.1056 11.9674 14.0994C11.9644 14.0932 11.9541 14.1148 11.9467 14.1218L11.9467 14.1218ZM6.04873 9.81524C6.11771 10.2105 5.92034 10.4957 5.65501 10.6302C5.38903 10.7651 5.11044 10.9601 4.85924 11.0118C4.79868 11.1154 4.83955 11.0718 4.74097 11.1388C4.72594 11.2613 4.66836 11.3087 4.67425 11.4796C4.68002 11.6472 4.74127 11.6707 4.74793 11.8045C4.78502 11.8364 4.77388 11.8236 4.81068 11.8697L5.05449 12.3372C5.47036 13.1121 4.62382 13.2907 4.68215 14.1143C4.6978 14.1466 4.71326 14.1728 4.73323 14.2158C4.78923 14.3362 4.7611 14.2498 4.77953 14.3359C4.89959 14.3919 5.04147 14.4833 5.20235 14.5634C5.35551 14.6397 5.4651 14.6976 5.61951 14.7754C6.00665 14.9706 6.01066 15.0751 6.07085 15.5876C6.12488 15.7766 6.10996 15.9978 6.17807 16.1857C6.34416 16.6439 6.84283 16.517 7.21256 16.4563L7.78143 16.4129C7.78651 16.404 7.80097 16.4198 7.80973 16.4252C7.99864 16.4104 8.04681 16.5111 8.1511 16.624C8.25343 16.7348 8.32178 16.7815 8.43986 16.8916C8.73615 17.168 8.63773 17.2461 9.19225 17.3221C9.26328 17.251 9.30571 17.2574 9.37609 17.2089L9.88541 16.7166C10.0862 16.511 10.1611 16.3636 10.5043 16.388L10.781 16.4618C10.958 16.4291 11.1846 16.4982 11.3657 16.5265C11.7316 16.5246 11.7257 16.4062 11.94 16.2756C11.9555 16.0811 12.0351 15.7233 12.0719 15.4876C12.1221 15.1667 12.1331 14.9844 12.3619 14.851C12.7805 14.6071 13.2259 14.5531 13.4471 14.1143C13.4812 13.662 13.3219 13.6577 13.2135 13.3181C13.0998 13.2084 12.9242 12.8571 12.9635 12.63C13.0082 12.4221 13.1965 12.1007 13.2884 11.9176C13.5343 11.4275 13.4386 11.6199 13.3887 11.1355C13.2765 11.0784 13.2725 11.0434 13.163 10.9796C13.0923 10.9383 12.9923 10.8851 12.9741 10.8664C11.5679 10.4686 12.3249 9.52233 11.8333 9.04542L11.5708 8.87434L11.5085 8.89263C10.8505 8.91593 10.3084 9.23284 10.065 8.86522C10.0007 8.8554 10.0193 8.87563 10.0095 8.81132C9.85252 8.73135 9.75648 8.59039 9.63283 8.4624L9.27384 8.12463C8.66777 8.14679 8.69406 8.2589 8.38634 8.57472C8.18776 8.77853 8.02496 9.08156 7.58032 9.03364C7.28064 9.00134 6.72914 8.831 6.45812 8.94769C6.07852 9.11113 6.16184 9.48099 6.08702 9.72872C6.08421 9.73805 6.07821 9.75109 6.07568 9.75852C6.07319 9.76587 6.06458 9.79245 6.06264 9.78716C6.06071 9.7819 6.05451 9.80654 6.04872 9.81524H6.04873Z" fill="#41464B"/>
<path fill-rule="evenodd" clip-rule="evenodd" d="M2.56488 3.25646L2.34967 3.53843C2.32439 3.98807 2.45115 3.88917 2.59863 4.11289C2.79159 4.10567 3.05365 4.12931 3.276 4.12958L4.09204 4.12964L4.76038 4.12958L5.57642 4.12964L6.24476 4.12958L7.0608 4.12964L7.72914 4.12958L8.54519 4.12964L9.21354 4.12958L10.0296 4.12364C10.2545 4.01038 10.3162 3.995 10.3946 3.72361C10.3768 3.35036 10.1905 3.20339 9.8086 3.20086C8.56624 3.19258 2.8986 3.14672 2.56489 3.25647L2.56488 3.25646Z" fill="#41464B"/>
<path fill-rule="evenodd" clip-rule="evenodd" d="M2.60287 5.59976C2.44602 5.82846 2.33134 5.71301 2.34971 6.17292C2.52725 6.4762 2.45257 6.32193 2.56509 6.45453C2.97469 6.58869 6.07193 6.50877 6.76408 6.50918C7.4691 6.50959 8.1743 6.51165 8.87933 6.51165C9.54623 6.51165 10.4702 6.70663 10.381 5.91145C10.246 5.68655 10.2816 5.73135 10.0295 5.58868L9.21351 5.58301L8.54515 5.58276L7.72911 5.58291L7.06077 5.58276L6.24473 5.58301L5.57639 5.58276L4.76035 5.58291L4.09201 5.58276L3.27596 5.58301L2.60287 5.59976H2.60287Z" fill="#41464B"/>
<path fill-rule="evenodd" clip-rule="evenodd" d="M11.2824 16.8513C11.1367 16.8779 10.9125 16.8349 10.7716 16.7916C10.3903 16.75 10.3937 16.6808 10.1851 16.9349C10.2213 16.9914 10.2222 16.9997 10.2547 17.0638L12.1821 18.9721C12.8352 19.1395 12.584 18.5285 12.8355 17.8111C13.1351 17.7371 13.4395 17.7043 13.7388 17.6406C14.2844 17.5245 13.8883 17.063 13.865 17.0211L13.7286 16.8845C13.5935 16.8082 13.1987 16.4141 13.1234 16.2785L12.9867 16.1418L12.4417 15.6481C12.2953 15.8462 12.3843 16.2857 12.1431 16.5624C11.9682 16.7631 11.6785 16.9283 11.4051 16.892C11.161 16.8595 11.5427 16.9258 11.3405 16.8761L11.2824 16.8513Z" fill="#41464B"/>
<path fill-rule="evenodd" clip-rule="evenodd" d="M5.60106 15.6849C5.50173 15.8635 5.07801 16.2397 4.90582 16.4125C4.73521 16.5837 4.35555 17.0108 4.179 17.1089C4.09446 17.4023 4.03583 17.572 4.45073 17.6503C4.67472 17.6925 5.10965 17.7454 5.28062 17.8172C5.35024 17.9311 5.3969 18.1842 5.3788 18.3463C5.43862 18.4266 5.40341 18.3552 5.43689 18.4864C5.45123 18.5425 5.45723 18.6144 5.46948 18.6775C5.49998 18.8346 5.55115 18.9019 5.60881 18.9934C6.1363 19.0132 5.96988 18.7916 6.24051 18.6967C6.30193 18.5784 6.32957 18.5508 6.44774 18.4892L6.56588 18.3336C6.65499 18.245 6.88247 17.989 6.98223 17.9543C7.02446 17.8728 6.99219 17.9054 7.06628 17.8308C7.13962 17.7569 7.11028 17.788 7.1897 17.7466C7.22413 17.6465 7.49999 17.3964 7.58724 17.311L7.72396 17.2119C7.76646 17.1294 7.73311 17.1636 7.80803 17.0881C7.88262 17.013 7.85059 17.0459 7.93168 17.0041C7.94586 16.8619 7.86052 16.8746 7.79098 16.7509C7.28553 16.742 6.73712 17.0342 6.27113 16.7963C5.86807 16.5905 5.79127 16.1829 5.71356 15.6407L5.60107 15.6849L5.60106 15.6849Z" fill="#41464B"/>
</svg>
