<svg width="14" height="15" viewBox="0 0 14 15" fill="none" xmlns="http://www.w3.org/2000/svg">
<path fill-rule="evenodd" clip-rule="evenodd" d="M1.96362 11.6588C1.96362 11.1673 2.20408 10.5833 2.57483 10.279C2.59996 10.2584 2.61202 10.2416 2.63547 10.22C2.82589 10.0444 3.17344 9.87543 3.42232 9.82093C3.72292 9.75511 4.00427 9.74368 4.30696 9.81701C4.58874 9.8853 4.87286 10.0266 5.08911 10.2075C5.71038 10.7274 5.97234 11.6648 5.6059 12.4175C5.29518 13.0557 4.70532 13.4899 3.98314 13.5242C3.92297 13.5271 3.93369 13.5365 3.87568 13.5379L3.4585 13.4874C3.32374 13.4569 3.20974 13.4124 3.09846 13.3673C2.88792 13.2819 2.68497 13.1333 2.53533 12.985C2.18945 12.6423 1.96359 12.1718 1.96359 11.6588H1.96362ZM3.58167 5.36169H3.58194C3.83531 5.36174 4.07667 5.61218 4.07667 5.8644C4.07667 6.01071 4.00365 6.18411 3.95246 6.3104L3.02399 8.65958C3.00173 8.71455 2.96558 8.78884 2.95327 8.84099C3.02204 8.82514 3.08236 8.80249 3.16185 8.78272C3.2371 8.76398 3.3106 8.74911 3.38295 8.73684C4.09916 8.61547 4.85629 8.792 5.38656 9.10629C5.69876 9.29135 6.18039 9.68915 6.36359 10.0316C6.43968 9.99548 8.28171 10.0184 8.5435 10.0184C8.5879 9.93537 8.68316 9.81542 8.74754 9.74399C8.89934 9.57559 9.05725 9.41713 9.24257 9.28116C9.33397 9.2141 9.42146 9.15232 9.52434 9.09689C9.74374 8.97865 9.9332 8.88491 10.1989 8.81165C10.5955 8.70228 11.0856 8.66647 11.5221 8.7389C11.6472 8.75967 11.8252 8.78632 11.9404 8.84099C11.9109 8.7155 11.845 8.58754 11.7973 8.46664L10.9317 6.2801C10.8865 6.16231 10.817 6.04206 10.817 5.89088C10.817 5.62146 11.0332 5.36177 11.3117 5.36172H11.3122C11.5136 5.36177 11.654 5.40779 11.7762 5.5506C11.8537 5.64118 11.9003 5.79858 11.95 5.92116L12.183 6.5108C12.207 6.56968 12.2372 6.64059 12.2594 6.69987C12.4549 7.2235 12.6844 7.73691 12.875 8.26049L13.421 9.63857C13.5414 9.93596 13.4466 9.93001 13.5399 10.0634C13.6174 10.1744 13.6782 10.2947 13.7327 10.4151C13.7602 10.4758 13.7867 10.5355 13.8129 10.6004C13.9273 10.8836 13.9888 11.2037 13.9999 11.5288V11.7466C13.9856 12.1654 13.8888 12.5806 13.7148 12.9246C13.5319 13.2862 13.2639 13.6617 12.9359 13.9136C12.6571 14.1276 12.3664 14.3175 12.0257 14.4288C11.4235 14.6255 10.8199 14.6527 10.2044 14.4873C10.0492 14.4455 9.90774 14.3856 9.75657 14.3217C9.71076 14.3024 9.66564 14.2799 9.6224 14.256C9.3643 14.1132 9.12703 13.9512 8.92111 13.7459L8.73053 13.5375C8.61073 13.3841 8.4992 13.2378 8.4007 13.0568C8.19779 12.684 8.04867 12.244 8.04902 11.7907C8.04907 11.7106 8.02854 11.6818 8.0384 11.61C8.04699 11.5475 8.0459 11.4992 8.04813 11.4203C8.04994 11.3564 8.08346 11.1151 8.10206 11.0768H6.8048C6.8048 11.2025 6.84517 11.3055 6.84477 11.4473C6.84455 11.5225 6.85839 11.557 6.85894 11.6321C6.85955 11.7165 6.84636 11.7475 6.84452 11.8172C6.83088 12.3369 6.63209 12.9116 6.33107 13.3201C6.30059 13.3615 6.27771 13.3972 6.24629 13.4347L6.05911 13.6597C5.84568 13.8994 5.54145 14.1239 5.25353 14.2651C4.75383 14.5103 4.39556 14.5957 3.75558 14.5957C3.11921 14.5957 2.32052 14.287 1.86001 13.825C1.82237 13.7872 1.80159 13.7793 1.76579 13.7462C1.72798 13.7112 1.71767 13.6843 1.67954 13.6463C1.6472 13.614 1.62395 13.5955 1.59458 13.5583C1.43372 13.3547 1.29188 13.1521 1.17421 12.9158C0.937582 12.4406 0.893579 12.0607 0.893555 11.5006V11.5C0.893579 11.0572 1.07927 10.4805 1.31355 10.1296C1.45324 9.92041 1.36803 10.0182 1.40908 9.82723C1.44033 9.6819 1.50189 9.56572 1.5565 9.43066C1.61097 9.29591 1.6576 9.17324 1.71126 9.04136C2.07973 8.13581 2.4243 7.21284 2.79452 6.30291L2.94807 5.91239C3.07119 5.56929 3.17304 5.36177 3.58147 5.36172L3.58167 5.36169ZM9.11859 11.6456C9.11859 11.3575 9.18505 11.1273 9.2867 10.8858C9.33858 10.7626 9.38699 10.6922 9.45558 10.5898C9.57803 10.4071 9.74314 10.2413 9.92631 10.1162C10.6529 9.62007 11.5813 9.65601 12.2441 10.2075L12.3671 10.324C13.2405 11.2267 13.0405 12.5566 12.1198 13.1856L11.8145 13.3598C11.5929 13.4507 11.4871 13.4841 11.2532 13.519C11.0665 13.5469 10.7931 13.5294 10.6136 13.4872C10.002 13.3438 9.56688 12.977 9.29224 12.4263C9.19654 12.2344 9.11859 11.9331 9.11859 11.6456V11.6456Z" fill="#41464B"/>
<circle cx="4.17021" cy="4.17021" r="4.17021" fill="#F2F2F2"/>
<g clip-path="url(#clip0_6_86)">
<rect x="0.893555" y="0.893555" width="6.85106" height="6.85106" rx="3.42553" fill="white"/>
</g>
<rect x="1.89355" y="1.89355" width="4.85106" height="4.85106" rx="2.42553" stroke="#41464B" stroke-width="2"/>
<defs>
<clipPath id="clip0_6_86">
<rect x="0.893555" y="0.893555" width="6.85106" height="6.85106" rx="3.42553" fill="white"/>
</clipPath>
</defs>
</svg>
