<svg width="14" height="14" viewBox="0 0 14 14" fill="none" xmlns="http://www.w3.org/2000/svg">
<path d="M7 0C3.14016 0 0 3.14016 0 7C0 10.8598 3.14016 14 7 14C10.8598 14 14 10.8598 14 7C14 3.14016 10.8598 0 7 0ZM7.5122 12.9534V12.1613C7.5122 11.8784 7.28287 11.6491 7 11.6491C6.71713 11.6491 6.4878 11.8784 6.4878 12.1613V12.9534C3.60063 12.7072 1.29284 10.3994 1.04658 7.5122H1.8387C2.12157 7.5122 2.35091 7.28287 2.35091 7C2.35091 6.71713 2.12157 6.4878 1.8387 6.4878H1.04658C1.29284 3.60063 3.60063 1.29284 6.4878 1.04658V1.8387C6.4878 2.12157 6.71713 2.35091 7 2.35091C7.28287 2.35091 7.5122 2.12157 7.5122 1.8387V1.04658C10.3994 1.29287 12.7072 3.60065 12.9534 6.4878H12.1613C11.8784 6.4878 11.6491 6.71713 11.6491 7C11.6491 7.28287 11.8784 7.5122 12.1613 7.5122H12.9534C12.7072 10.3994 10.3994 12.7072 7.5122 12.9534Z" fill="#41464B"/>
<path d="M8.73544 6.48773H7.51208V3.87854C7.51208 3.59566 7.28275 3.36633 6.99987 3.36633C6.717 3.36633 6.48767 3.59566 6.48767 3.87854V6.99993C6.48767 7.28281 6.717 7.51214 6.99987 7.51214H8.73546C9.01833 7.51214 9.24767 7.28281 9.24767 6.99993C9.24767 6.71706 9.01831 6.48773 8.73544 6.48773Z" fill="#41464B"/>
</svg>
