<svg width="14" height="12" viewBox="0 0 14 12" fill="none" xmlns="http://www.w3.org/2000/svg">
<path fill-rule="evenodd" clip-rule="evenodd" d="M1.52225 9.1383C1.80258 9.04232 7.06397 9.09111 7.81064 9.09111C8.87695 9.09111 9.94318 9.09111 11.0095 9.09111C11.4127 9.09111 12.1931 9.04232 12.5189 9.154C12.8737 9.27565 13.201 9.59853 13.2487 10.019C13.3067 10.5297 13.039 10.8779 12.7384 11.0701C12.3819 11.2979 11.7782 11.23 11.2829 11.23H4.88523C3.82869 11.23 2.73846 11.2554 1.68637 11.2238C1.19487 11.1845 0.778081 10.7604 0.729158 10.2859C0.665698 9.66931 1.05755 9.26132 1.52217 9.13822L1.52225 9.1383ZM10.741 10.521L12.0238 10.5215L12.0264 9.80359H10.7376L10.7411 10.521H10.741ZM1.95631 9.99104V10.3397L1.95553 10.5404C2.15747 10.4891 2.97167 10.5209 3.23848 10.5209L3.24536 9.80351L1.95553 9.79018L1.95631 9.99096V9.99104ZM4.88523 9.96438V10.3663V10.5271L6.17365 10.5214L6.17021 9.80359H4.88523V9.96438ZM7.81064 10.5271H9.09773L9.0957 9.9643V9.80351H7.81071V10.5271H7.81064ZM10.0823 7.74008L10.1893 7.73663L10.8198 7.73725L10.8211 8.27614L10.8187 8.38338L10.5994 8.3791L10.3533 8.37917L10.0842 8.38262L10.0823 7.74023V7.74008ZM6.10925 7.74008H6.83271V8.38323L6.4983 8.3771L6.2518 8.3768L6.10918 8.3827V7.74L6.10925 7.74008ZM2.69798 8.38323H1.85041C1.81626 8.33513 1.81806 8.25576 1.81821 8.19716L1.81993 3.23801C1.81993 2.67514 1.84564 2.05083 1.81681 1.49616H2.72533C2.72533 3.69096 2.70446 5.97716 2.72634 8.16982C2.72713 8.2501 2.73533 8.32563 2.69798 8.38323ZM6.66859 0.767747C7.15517 0.927386 6.84139 1.7766 6.28221 1.5235C6.19092 1.48222 6.18092 1.45479 6.14708 1.39688C5.97468 1.31499 6.03634 0.992191 6.13176 0.869015C6.22977 0.742468 6.4729 0.645337 6.66859 0.767747ZM5.78172 0.209853C5.67652 0.320467 5.62393 0.341532 5.5296 0.466088C5.38619 0.655448 5.418 0.758248 5.32257 0.778778H1.05748L1.08483 8.49047C1.07154 8.54854 0.872958 8.62476 0.713527 8.74273C0.358558 9.00539 0.0822893 9.411 0.0150781 9.8841C0.00390233 10.0967 -0.0110248 10.2019 0.012421 10.4198C0.0733799 10.8076 0.171774 10.8804 0.298225 11.1654C0.383802 11.2416 0.4507 11.354 0.539482 11.4363C0.623808 11.5144 0.771204 11.5887 0.834507 11.6928C0.934933 11.7033 1.02301 11.7696 1.11515 11.8105C1.48732 11.9758 1.87683 11.9475 2.28783 11.9475H11.0094C11.5272 11.9475 12.2304 11.9993 12.6843 11.8745C13.3685 11.6865 13.6071 11.2088 13.6878 11.1702C13.8316 10.814 13.8571 10.946 13.9565 10.469L14 10.3421V9.98866C13.9958 9.98307 13.9914 9.96652 13.9902 9.97012L13.9621 9.88448C13.9527 9.84089 13.9513 9.80681 13.9426 9.76667C13.8814 9.48194 13.7433 9.31548 13.6936 9.16059C13.5788 9.09824 13.2898 8.44244 12.2123 8.37994C12.0723 8.37879 11.6407 8.40675 11.5497 8.3565L11.5493 7.03848L11.4207 7.02155C10.971 7.00225 9.60619 7.06468 9.36478 7.00324L9.35946 8.3807L7.56164 8.38614V7.02607L5.37736 7.01803L5.37704 8.3807L3.45723 8.37887V1.49623H5.32265C5.40213 1.51447 5.3808 1.5579 5.46262 1.70658C5.51428 1.80057 5.575 1.85106 5.62072 1.92965C5.79539 2.05895 5.85799 2.13448 6.1123 2.21974L6.10597 3.20515L5.77382 3.20707L5.78742 3.47923L5.75819 3.91434C5.75726 3.91089 5.7535 3.92682 5.74968 3.93226C5.78008 4.06218 5.76015 4.20627 5.75702 4.33833L4.52721 5.14074C4.58004 5.27655 4.84154 5.59951 4.93845 5.73241C5.01481 5.83713 5.07256 5.91656 5.15376 6.03016C5.28139 6.20872 5.27677 6.2635 5.38166 6.25277C5.42862 6.17548 5.45707 6.17073 5.54538 6.10868C5.61572 6.05927 5.6512 6.02925 5.73279 5.99684C5.79422 5.92936 5.76249 5.94621 5.84643 5.93127C5.87722 5.87826 5.86503 5.88677 5.91426 5.84732C5.82548 5.7377 5.61674 5.45933 5.55101 5.33783C5.6033 5.30252 5.6387 5.27785 5.70536 5.25273C5.75843 5.18065 6.35114 4.81288 6.47102 4.73888C6.52127 4.76991 6.54964 4.77657 6.58051 4.82399C6.72252 4.87753 7.26677 5.24507 7.39103 5.34588C7.29272 5.50023 7.13719 5.70943 7.02778 5.85467C7.2248 5.99102 7.42448 6.13886 7.61658 6.25668C7.69911 6.15464 7.76718 6.03323 7.86534 5.94483L8.41483 5.13829C8.04197 4.93146 7.49912 4.50816 7.18362 4.34308L7.15447 3.20883L6.83396 3.20033L6.8324 2.22487L7.01285 2.16015C7.10023 2.07366 7.2291 2.01498 7.3146 1.92214C7.39228 1.8378 7.46301 1.74259 7.52358 1.61811C7.67965 1.29753 7.63792 1.08388 7.56938 0.746145C7.5099 0.58934 7.40479 0.440349 7.29874 0.33663C7.1497 0.190856 7.0753 0.18197 6.90829 0.0739609C6.32058 -0.0499049 6.25454 -0.0270008 5.7818 0.210006L5.78172 0.209853Z" fill="#41464B"/>
</svg>
