<svg width="22" height="22" viewBox="0 0 22 22" fill="none" xmlns="http://www.w3.org/2000/svg">
<g clip-path="url(#clip0_662_1422)">
<path d="M14.3203 7.16406C14.0831 7.16406 13.8906 7.35656 13.8906 7.59375C13.8906 7.83094 14.0831 8.02344 14.3203 8.02344C14.5575 8.02344 14.75 7.83094 14.75 7.59375C14.75 7.35656 14.5575 7.16406 14.3203 7.16406Z" fill="white"/>
<path d="M21.4964 19.0661L15.761 13.3306C16.6953 11.9232 17.1875 10.2934 17.1875 8.59375C17.1875 3.85516 13.3323 0 8.59375 0C3.85516 0 0 3.85516 0 8.59375C0 13.3323 3.85516 17.1875 8.59375 17.1875C10.2934 17.1875 11.9232 16.6953 13.3306 15.761L14.9159 17.3464L19.066 21.4964C19.3908 21.8212 19.8223 22 20.2812 22C20.7402 22 21.1717 21.8212 21.4963 21.4966C21.8211 21.172 22 20.7405 22 20.2812C22 19.822 21.8211 19.3905 21.4964 19.0661ZM13.1285 14.8555C11.8022 15.8188 10.2341 16.3281 8.59375 16.3281C4.32902 16.3281 0.859375 12.8585 0.859375 8.59375C0.859375 4.32902 4.32902 0.859375 8.59375 0.859375C12.8585 0.859375 16.3281 4.32902 16.3281 8.59375C16.3281 10.2341 15.8189 11.8021 14.8555 13.1285C14.3744 13.7915 13.7916 14.3744 13.1285 14.8555ZM14.03 15.245C14.4744 14.8815 14.8815 14.4744 15.245 14.03L17.0733 15.8583C16.7024 16.2961 16.296 16.7025 15.8583 17.0734L14.03 15.245ZM20.8888 20.8888C20.7264 21.0512 20.5106 21.1406 20.2812 21.1406C20.0519 21.1406 19.8361 21.0512 19.6737 20.8888L15.8583 17.0734C16.2936 16.6998 16.6998 16.2936 17.0733 15.8583L20.8889 19.6739C20.9689 19.7534 21.0324 19.8481 21.0756 19.9523C21.1189 20.0566 21.1409 20.1684 21.1406 20.2812C21.1409 20.3941 21.1188 20.506 21.0756 20.6103C21.0324 20.7145 20.9689 20.8092 20.8888 20.8888Z" fill="white"/>
<path d="M14.409 5.74923C14.039 4.78621 13.3948 3.96285 12.5459 3.3682C11.6768 2.75934 10.656 2.4375 9.59375 2.4375C9.35648 2.4375 9.16406 2.62991 9.16406 2.86719C9.16406 3.10446 9.35648 3.29688 9.59375 3.29688C11.3597 3.29688 12.9724 4.40624 13.6069 6.05749C13.638 6.13861 13.693 6.20839 13.7647 6.2576C13.8363 6.30682 13.9212 6.33317 14.0081 6.33318C14.0607 6.33315 14.1129 6.32342 14.1621 6.30447C14.3836 6.21935 14.4942 5.97078 14.409 5.74923Z" fill="white"/>
</g>
<defs>
<clipPath id="clip0_662_1422">
<rect width="22" height="22" fill="white"/>
</clipPath>
</defs>
</svg>
