<svg width="51" height="38" viewBox="0 0 51 38" fill="none" xmlns="http://www.w3.org/2000/svg">
<path d="M38.4531 26.7156C35.0586 27.467 30.8341 28.4021 25.2885 28.4021C21.619 28.4021 18.4031 27.5196 15.7186 25.7785C17.5783 26.4636 19.5453 26.8213 21.5302 26.8351C25.7968 26.8351 30.4575 25.6065 34.5691 24.5224C39.1642 23.3109 43.5043 22.1667 44.9584 23.493C45.113 23.634 45.318 23.7087 45.5284 23.7005C45.7388 23.6923 45.9372 23.602 46.0801 23.4494C46.223 23.2968 46.2986 23.0944 46.2903 22.8868C46.2821 22.6791 46.1905 22.4833 46.0359 22.3422C43.9395 20.4302 39.6236 21.5679 34.1591 23.0082C30.1422 24.0677 25.589 25.2681 21.5302 25.2681C16.9545 25.2681 13.0416 23.0275 10.5649 21.1478C7.84061 19.0802 6.19919 16.9785 6.18351 16.958C6.12098 16.8744 6.04223 16.8039 5.95185 16.7506C5.86146 16.6974 5.76124 16.6624 5.65703 16.6477C5.55281 16.633 5.44668 16.639 5.34482 16.6652C5.24295 16.6914 5.14738 16.7373 5.06367 16.8003C4.97995 16.8633 4.90977 16.9421 4.85721 17.0322C4.80465 17.1222 4.77075 17.2216 4.75749 17.3247C4.74424 17.4278 4.75188 17.5324 4.77999 17.6326C4.8081 17.7327 4.8561 17.8263 4.92121 17.908C4.99176 17.9993 6.6821 20.1703 9.56122 22.3625C9.9839 22.6843 10.41 22.9891 10.8396 23.2767C10.8483 23.2935 10.857 23.3101 10.867 23.3265C10.8707 23.3325 10.8824 23.351 10.901 23.3794L10.3034 23.2437L10.3068 23.23C10.3001 23.2545 10.1342 23.8339 9.411 24.2377C8.44487 24.7773 6.91061 24.7755 4.97578 24.2327C4.77388 24.1778 4.55816 24.2038 4.37563 24.3052C4.1931 24.4065 4.05855 24.575 4.00129 24.7738C3.94403 24.9727 3.96872 25.1858 4.06996 25.3668C4.1712 25.5478 4.34079 25.6819 4.54179 25.74C5.65883 26.0534 6.66758 26.2101 7.56805 26.2101C8.62189 26.2101 9.52193 25.9946 10.2595 25.5637C10.8074 25.2511 11.2612 24.8005 11.5747 24.258C11.7001 24.4047 11.8288 24.5487 11.9607 24.6898C11.9228 24.7823 11.9033 24.8812 11.9033 24.9811C11.9033 24.9941 11.8735 26.2887 10.8734 27.049C9.97626 27.7309 8.47772 27.8386 6.53932 27.3602C6.33568 27.3115 6.12078 27.3442 5.94149 27.4512C5.76221 27.5583 5.63308 27.731 5.58226 27.9316C5.53145 28.1323 5.56307 28.3446 5.67024 28.5224C5.77741 28.7001 5.95143 28.8288 6.15434 28.8804C6.98666 29.0968 7.84262 29.2121 8.70325 29.2239C9.9847 29.2239 11.0424 28.9069 11.8634 28.2739C12.5984 27.6926 13.118 26.8876 13.3412 25.9843C13.6375 26.2294 13.9428 26.4637 14.2565 26.6868C14.2687 26.6955 14.2817 26.7044 14.2941 26.7131C14.2819 26.79 14.2814 26.8683 14.2925 26.9453C14.2949 26.962 14.5021 28.6344 13.415 29.7415C12.5212 30.6524 10.9741 30.9937 8.81587 30.7569C8.60846 30.7374 8.4016 30.7992 8.23994 30.9289C8.07827 31.0586 7.97476 31.2459 7.95173 31.4503C7.92871 31.6546 7.98802 31.8598 8.11686 32.0214C8.24571 32.183 8.43376 32.2881 8.64044 32.3141C9.11013 32.3669 9.58242 32.3941 10.0551 32.3955C12.0239 32.3955 13.534 31.8718 14.5551 30.8319C15.5506 29.818 15.8251 28.5585 15.8836 27.7025C16.1474 27.8466 16.4252 27.9886 16.7171 28.1284C16.6708 28.2498 16.6558 28.3807 16.6735 28.5092C16.6762 28.5283 16.9216 30.4349 15.7548 31.7516C14.9603 32.6487 13.6644 33.1032 11.9026 33.1032C11.692 33.1032 11.4901 33.1857 11.3413 33.3327C11.1924 33.4796 11.1088 33.6789 11.1088 33.8867C11.1088 34.0945 11.1924 34.2938 11.3413 34.4407C11.4901 34.5876 11.692 34.6702 11.9026 34.6702C12.1757 34.6702 12.4407 34.6606 12.6974 34.6415V34.6523C12.6974 34.6661 12.6963 34.6799 12.6968 34.6936C12.6968 34.702 12.6981 34.7102 12.6986 34.7187C12.6997 34.7359 12.7007 34.7531 12.7029 34.7702C12.7037 34.7755 12.7049 34.7808 12.7057 34.786C12.7087 34.8056 12.7119 34.8252 12.7164 34.8448C12.7175 34.8495 12.7192 34.8541 12.7202 34.8588C12.7252 34.8784 12.7302 34.898 12.7368 34.9169C12.7392 34.924 12.7424 34.931 12.745 34.9381C12.751 34.9543 12.7569 34.9705 12.7639 34.9862C12.769 34.9976 12.775 35.0085 12.7807 35.0196C12.7863 35.0308 12.7914 35.042 12.7974 35.0527C12.8053 35.0666 12.8143 35.08 12.8229 35.0934C12.8279 35.1009 12.8324 35.1088 12.8375 35.1162C12.8469 35.1297 12.8574 35.1425 12.8678 35.1554C12.8732 35.1622 12.8783 35.1695 12.8841 35.1762C12.894 35.1872 12.9039 35.1976 12.9138 35.2082C12.9216 35.2162 12.9289 35.2246 12.9369 35.2323C12.945 35.2401 12.9544 35.2477 12.9631 35.2554C12.9741 35.2652 12.9848 35.275 12.9963 35.2838C13.0032 35.2892 13.0107 35.294 13.0178 35.2992C13.0321 35.3096 13.0463 35.3201 13.0613 35.3295C13.0677 35.3336 13.0746 35.3371 13.0811 35.3411C13.0974 35.3509 13.1137 35.3602 13.1307 35.3687C13.1322 35.3695 13.1335 35.3703 13.135 35.371L16.3101 36.938C16.324 36.945 16.3382 36.9515 16.3525 36.9576C17.0056 37.2444 17.7016 37.4249 18.4132 37.4921C18.487 37.589 18.5826 37.6677 18.6926 37.7219C18.8025 37.776 18.9237 37.8042 19.0465 37.8042H20.6341C21.05 37.8048 21.4656 37.7787 21.8781 37.7259C21.9852 37.7772 22.1026 37.804 22.2216 37.8042H24.6029C24.8113 37.8042 25.0144 37.7964 25.2135 37.7824C25.2735 37.7967 25.335 37.804 25.3967 37.8042H27.778C27.9864 37.8042 28.1895 37.7964 28.3886 37.7824C28.4486 37.7967 28.5101 37.804 28.5718 37.8042H30.1594C31.4484 37.8042 32.5333 37.5173 33.4375 37.0195C34.6796 37.007 35.7306 36.721 36.6106 36.2308C37.9002 36.011 39.1177 35.4893 40.1609 34.7094C41.6815 33.5837 43.4794 31.4146 43.6405 27.4197C44.7554 27.3869 45.6306 27.5928 46.2898 28.194C46.3663 28.2639 46.456 28.3181 46.5538 28.3537C46.6516 28.3893 46.7556 28.4056 46.8597 28.4015C46.9639 28.3975 47.0662 28.3732 47.1609 28.3301C47.2556 28.2871 47.3407 28.226 47.4115 28.1504C47.4822 28.0749 47.5372 27.9863 47.5733 27.8898C47.6093 27.7932 47.6258 27.6906 47.6217 27.5878C47.6176 27.485 47.593 27.384 47.5494 27.2906C47.5057 27.1971 47.4439 27.1131 47.3673 27.0432C45.3373 25.1916 42.4496 25.831 38.4531 26.7156ZM14.9177 34.1687C15.7048 33.8743 16.4066 33.3937 16.9617 32.7691C18.1852 31.3766 18.3054 29.6272 18.2813 28.7854C18.7675 28.9627 19.2835 29.1269 19.8292 29.2735C19.8239 29.3092 19.8211 29.3452 19.8209 29.3812C19.8209 30.6795 19.3557 32.5418 18.0448 33.5178C17.2399 34.118 16.1906 34.3345 14.9181 34.1691L14.9177 34.1687ZM20.3992 35.4754C19.5223 36.0462 18.48 36.0917 17.22 35.6134C17.8646 35.4515 18.4701 35.1643 19.0011 34.7688C20.6939 33.5084 21.3471 31.3331 21.404 29.6271C21.9208 29.7211 22.441 29.7954 22.9636 29.8499C22.8128 31.5469 22.1114 34.3617 20.3996 35.4758L20.3992 35.4754ZM25.2052 34.0602C24.5206 35.169 23.4963 35.8456 22.0972 36.1093C23.8006 34.4052 24.4009 31.5975 24.5455 29.9556C24.7897 29.9635 25.0363 29.9688 25.2881 29.9688C25.5867 29.9688 25.8806 29.9655 26.1717 29.9605V29.9688C26.1717 31.122 26.0041 32.7677 25.2056 34.0606L25.2052 34.0602ZM25.4554 36.1855C26.9524 34.8563 27.7593 32.7429 27.7593 29.9692C27.7593 29.9488 27.7577 29.9287 27.7561 29.9087C28.3047 29.8819 28.8395 29.8472 29.3607 29.8047C29.3104 32.7868 28.8133 35.7644 25.4563 36.1859L25.4554 36.1855ZM29.0734 36.1125C29.5509 35.6065 29.9314 35.0192 30.1964 34.379C30.8711 32.7912 30.9438 30.9859 30.9517 29.6492C31.4961 29.5877 32.0253 29.5197 32.5392 29.4454C32.5216 32.4078 32.1578 35.4669 29.0738 36.1129L29.0734 36.1125ZM32.6427 35.6497C32.9373 35.2572 33.1821 34.8306 33.3715 34.3793C34.1266 32.6037 34.1282 30.5544 34.1282 29.1947C34.6668 29.1018 35.1885 29.0053 35.6932 28.9051C35.6536 30.5525 35.2594 34.2203 32.6431 35.6501L32.6427 35.6497ZM35.6323 34.9591C36.7995 33.2035 37.2842 30.8613 37.2842 28.5976C37.2842 28.5905 37.2833 28.5835 37.2831 28.5764C37.7891 28.4673 38.2948 28.3566 38.8001 28.2443L38.8768 28.2273C38.7957 30.0753 38.2837 33.6521 35.6327 34.9595L35.6323 34.9591ZM39.2084 33.4633C40.0624 31.8369 40.445 29.8396 40.4762 27.8808C41.0333 27.7647 41.5552 27.6641 42.0439 27.5863C41.8592 30.717 40.5304 32.4792 39.2084 33.4633ZM48.8447 5.40235L19.1467 0.207712C19.0779 0.196473 19.0079 0.193513 18.9384 0.198897L15.022 0.538743C14.9181 0.547749 14.8171 0.576858 14.7247 0.624405C14.6322 0.671952 14.5502 0.737008 14.4832 0.815857C14.4162 0.894706 14.3656 0.985804 14.3343 1.08395C14.303 1.1821 14.2916 1.28537 14.3007 1.38787C14.3174 1.58386 14.4089 1.76627 14.5567 1.89812C14.6378 1.97117 14.7334 2.02682 14.8374 2.06155C14.9414 2.09628 15.0516 2.10933 15.161 2.09988L18.9731 1.76885L48.568 6.94488C48.7517 6.97623 48.9183 7.07068 49.0383 7.21154C49.1584 7.35241 49.2241 7.53062 49.2238 7.71467C49.2233 7.76129 49.219 7.8078 49.2109 7.85374V7.85472C49.0949 8.40787 48.7708 8.89709 48.3041 9.2239C47.8155 9.58463 47.2234 9.78286 46.6133 9.78998H46.6064C46.4651 9.78976 46.324 9.77797 46.1847 9.75472L19.1517 4.13013C19.0979 4.11869 19.043 4.1131 18.988 4.11348H4.41131C3.59065 4.11348 2.90612 3.97343 2.48333 3.71977C2.28582 3.60907 2.11969 3.45112 2.00022 3.26044C1.99625 3.25457 1.99328 3.24869 1.98931 3.24183L8.83462 2.64833C8.93847 2.63933 9.0395 2.61022 9.13196 2.56268C9.22441 2.51513 9.30647 2.45008 9.37345 2.37123C9.44044 2.29238 9.49103 2.20128 9.52234 2.10314C9.55366 2.00499 9.56508 1.90171 9.55596 1.79921C9.54684 1.6967 9.51735 1.59697 9.46919 1.50572C9.42102 1.41446 9.35511 1.33346 9.27523 1.26734C9.19535 1.20123 9.10305 1.15129 9.00362 1.12038C8.90419 1.08947 8.79956 1.07819 8.69571 1.0872L0.915727 1.76199C0.717858 1.77883 0.533611 1.8684 0.399468 2.01296C0.265326 2.15751 0.191071 2.34652 0.191407 2.54256L0.1923 2.5974C0.219552 3.11851 0.374505 3.62532 0.643859 4.07431C1.09423 4.8108 1.7988 5.18101 2.30969 5.3622C2.90899 5.57472 3.60563 5.67951 4.44108 5.68049H18.9045L45.8711 11.2904L45.895 11.2953C46.1298 11.3362 46.3679 11.3568 46.6064 11.357C47.5614 11.3502 48.4893 11.0424 49.2546 10.4785C50.045 9.9151 50.5882 9.07563 50.7737 8.13091V8.12797C50.8284 7.82398 50.8219 7.51232 50.7546 7.21081C50.6872 6.90929 50.5604 6.62382 50.3813 6.37071C50.2021 6.1176 49.9742 5.90181 49.7106 5.73565C49.4469 5.5695 49.1527 5.45624 48.8447 5.40235Z" fill="white"/>
<path d="M11.3919 2.17235C11.5376 2.30406 11.7281 2.37708 11.9257 2.37704C11.9484 2.37704 11.9723 2.37606 11.9961 2.3741C12.1778 2.35846 12.3485 2.28158 12.4795 2.15639C12.6105 2.03119 12.6939 1.86531 12.7157 1.68659C12.7374 1.50788 12.6962 1.32722 12.599 1.17495C12.5017 1.02269 12.3543 0.908095 12.1816 0.850419C12.0088 0.792742 11.8213 0.795496 11.6503 0.858217C11.4794 0.920938 11.3355 1.03981 11.2429 1.19486C11.1503 1.34991 11.1145 1.5317 11.1417 1.7097C11.1688 1.8877 11.2571 2.05106 11.3919 2.17235Z" fill="white"/>
</svg>
