<svg width="20" height="13" viewBox="0 0 20 13" fill="none" xmlns="http://www.w3.org/2000/svg">
<path d="M19.1667 5.6875H0.833333C0.373096 5.6875 0 6.05127 0 6.5C0 6.94874 0.373096 7.31251 0.833333 7.31251H19.1667C19.6269 7.31251 20 6.94874 20 6.5C20 6.05127 19.6269 5.6875 19.1667 5.6875Z" fill="#FFF8F2"/>
<path d="M19.1667 0H0.833333C0.373096 0 0 0.36377 0 0.812503C0 1.26124 0.373096 1.62501 0.833333 1.62501H19.1667C19.6269 1.62501 20 1.26124 20 0.812503C20 0.36377 19.6269 0 19.1667 0Z" fill="#FFF8F2"/>
<path d="M19.1667 11.375H0.833333C0.373096 11.375 0 11.7388 0 12.1875C0 12.6362 0.373096 13 0.833333 13H19.1667C19.6269 13 20 12.6362 20 12.1875C20 11.7388 19.6269 11.375 19.1667 11.375Z" fill="#FFF8F2"/>
</svg>
