<svg width="49" height="38" viewBox="0 0 49 38" fill="none" xmlns="http://www.w3.org/2000/svg">
<path d="M47.2501 19.0266H45.3483C45.3575 18.8431 45.3639 18.6595 45.3639 18.4762C45.3639 12.5077 40.5124 7.65202 34.5491 7.65202C34.0283 7.65202 33.606 8.07474 33.606 8.59599V11.1579C33.606 11.8307 33.3385 12.4573 32.8531 12.9223C32.3727 13.3825 31.7446 13.6189 31.0818 13.5908C30.9215 13.5838 30.761 13.5803 30.6005 13.5803C28.5016 13.5803 26.2795 14.1643 24.5038 15.1823C22.7667 16.1785 21.5673 17.5235 21.0552 19.0269H18.003C17.4821 19.0269 17.0598 19.4496 17.0598 19.9709V37.056C17.0598 37.5773 17.4821 38 18.003 38H47.2501C47.7709 38 48.1933 37.5773 48.1933 37.056V19.9706C48.1933 19.4491 47.7709 19.0266 47.2501 19.0266ZM30.6005 15.468C30.7331 15.468 30.8675 15.4709 30.9994 15.4766C32.1813 15.5285 33.3015 15.1057 34.1573 14.286C35.0182 13.4616 35.4922 12.3505 35.4922 11.1577V9.58933C39.9739 10.0624 43.4778 13.8675 43.4778 18.4761C43.4778 18.6595 43.4707 18.8432 43.4596 19.0265H23.1108C24.3041 16.8591 27.6666 15.468 30.6005 15.468ZM46.3071 22.8023H27.9405C27.4197 22.8023 26.9974 23.225 26.9974 23.7463C26.9974 24.2675 27.4197 24.6903 27.9405 24.6903H46.3071V36.1119H18.9462V24.6902H20.3955C20.9164 24.6902 21.3387 24.2675 21.3387 23.7462C21.3387 23.2249 20.9164 22.8022 20.3955 22.8022H18.9462V20.9144H46.3071V22.8023ZM26.4269 4.41604L22.2907 0.276409C21.9224 -0.0921363 21.3252 -0.0921363 20.9569 0.276409L0.276225 20.975C0.0993605 21.1521 0 21.3922 0 21.6425C0 21.8929 0.0993605 22.133 0.276225 22.31L4.41238 26.4496C4.49987 26.5374 4.60382 26.607 4.71827 26.6545C4.83271 26.7019 4.9554 26.7263 5.07927 26.7261C5.20315 26.7263 5.32584 26.7019 5.44029 26.6545C5.55473 26.607 5.65868 26.5374 5.74617 26.4496L26.4269 5.75098C26.6038 5.57395 26.7032 5.33386 26.7032 5.08351C26.7032 4.83316 26.6038 4.59307 26.4269 4.41604ZM5.07918 24.4473L2.27681 21.6425L21.6239 2.27863L24.4263 5.08342L5.07918 24.4473Z" fill="white"/>
</svg>
